{
.appVersion = "1075";
DisplayStrings = (
N,
"n v"
);
customParameters = (
{
name = fsType;
value = (
);
},
{
name = licenseURL;
value = "http://scripts.sil.org/OFL";
},
{
name = license;
value = "This Font Software is licensed under the SIL Open Font License, Version 1.1. This license is available with a FAQ at: http://scripts.sil.org/OFL";
},
{
name = trademark;
value = "18Franklin is based on Libre Franklin, which is a trademark of Impallari Type.";
},
{
name = description;
value = "Libre Franklin is a reinterpretation and expansion of the 1912 Morris Fuller Benton￢ﾀﾙs classic.";
},
{
name = vendorID;
value = IMPA;
},
{
name = note;
value = "Based on Libre Franklin\012\012";
},
{
name = vsuffix;
value = "-v.030";
}
);
date = "2017-12-17 19:59:26 +0000";
designer = "Pablo Impallari, Rodrigo Fuenzalida (Modified by Dan O. Williams)";
familyName = "United Sans";
featurePrefixes = (
{
automatic = 1;
code = "languagesystem DFLT dflt;\012languagesystem latn dflt;\012languagesystem latn CAT;\012languagesystem latn ROM;\012languagesystem latn MOL;\012languagesystem latn KAZ;\012languagesystem latn TAT;\012languagesystem latn TRK;\012languagesystem latn CRT;\012languagesystem latn AZE;\012";
name = Languagesystems;
}
);
features = (
{
automatic = 1;
code = "feature ccmp;\012feature locl;\012feature subs;\012feature sinf;\012feature sups;\012feature numr;\012feature dnom;\012feature frac;\012feature ordn;\012";
name = aalt;
},
{
automatic = 1;

glyphs = (
{
glyphname = A;
lastChange = "2017-12-17 19:32:49 +0000";
layers = (
{
anchors = (
{
name = ogonek;
position = "{692, 9}";
},
{
name = top;
position = "{450, 723}";
}
);
background = {
anchors = (
{
name = ogonek;
position = "{813, 9}";
},
{
name = top;
position = "{462, 742}";
}
);
paths = (
{
closed = 1;
nodes = (
"262 0 LINE SMOOTH",
"276 0 OFFCURVE",
"283 7 OFFCURVE",
"286 15 CURVE SMOOTH",
"327 133 LINE SMOOTH",
"329 140 OFFCURVE",
"334 144 OFFCURVE",
"342 144 CURVE SMOOTH",
"554 144 LINE SMOOTH",
"564 144 OFFCURVE",
"566 139 OFFCURVE",
"569 132 CURVE SMOOTH",
"608 17 LINE SMOOTH",
"612 4 OFFCURVE",
"620 0 OFFCURVE",
"630 0 CURVE SMOOTH",
"826 0 LINE SMOOTH",
"841 0 OFFCURVE",
"845 20 OFFCURVE",
"840 34 CURVE SMOOTH",
"600 715 LINE SMOOTH",
"594 731 OFFCURVE",
"581 742 OFFCURVE",
"564 742 CURVE SMOOTH",
"367 742 LINE SMOOTH",
"349 742 OFFCURVE",
"343 735 OFFCURVE",
"337 719 CURVE SMOOTH",
"95 37 LINE SMOOTH",
"87 15 OFFCURVE",
"95 0 OFFCURVE",
"110 0 CURVE SMOOTH"
);
},
{
closed = 1;
nodes = (
"378 314 OFFCURVE",
"375 322 OFFCURVE",
"380 335 CURVE SMOOTH",
"441 505 LINE SMOOTH",
"443 512 OFFCURVE",
"450 512 OFFCURVE",
"453 505 CURVE SMOOTH",
"513 334 LINE SMOOTH",
"517 321 OFFCURVE",
"515 314 OFFCURVE",
"504 314 CURVE SMOOTH",
"390 314 LINE SMOOTH"
);
}
);
};
layerId = "258ED206-D907-4350-8EBA-CBDDA1C16BF7";
paths = (
{
closed = 1;
nodes = (
"172 0 LINE",
"241 140 LINE",
"469 140 LINE",
"497 0 LINE",
"689 0 LINE",
"535 723 LINE",
"336 723 LINE",
"-21 0 LINE"
);
},
{
closed = 1;
nodes = (
"409 537 LINE",
"448 306 LINE",
"305 306 LINE"
);
}
);
width = 730;
},
{
anchors = (
{
name = ogonek;
position = "{595, 11}";
},
{
name = top;
position = "{414, 723}";
}
);
background = {
anchors = (
{
name = ogonek;
position = "{714, 11}";
},
{
name = top;
position = "{425, 742}";
}
);
paths = (
{
closed = 1;
nodes = (
"160 0 LINE SMOOTH",
"166 0 OFFCURVE",
"170 2 OFFCURVE",
"171 7 CURVE SMOOTH",
"254 231 LINE SMOOTH",
"256 236 OFFCURVE",
"258 238 OFFCURVE",
"264 238 CURVE SMOOTH",
"586 238 LINE SMOOTH",
"592 238 OFFCURVE",
"594 236 OFFCURVE",
"596 231 CURVE SMOOTH",
"677 8 LINE SMOOTH",
"679 2 OFFCURVE",
"683 0 OFFCURVE",
"690 0 CURVE SMOOTH",
"714 0 LINE SMOOTH",
"721 0 OFFCURVE",
"724 4 OFFCURVE",
"722 10 CURVE SMOOTH",
"460 732 LINE SMOOTH",
"458 739 OFFCURVE",
"452 742 OFFCURVE",
"442 742 CURVE SMOOTH",
"409 742 LINE SMOOTH",
"400 742 OFFCURVE",
"396 739 OFFCURVE",
"393 731 CURVE SMOOTH",
"128 9 LINE SMOOTH",
"126 3 OFFCURVE",
"129 0 OFFCURVE",
"135 0 CURVE SMOOTH"
);
},
{
closed = 1;
nodes = (
"272 278 OFFCURVE",
"270 279 OFFCURVE",
"273 286 CURVE SMOOTH",
"418 677 LINE SMOOTH",
"423 691 OFFCURVE",
"428 691 OFFCURVE",
"433 678 CURVE SMOOTH",
"576 288 LINE SMOOTH",
"578 282 OFFCURVE",
"577 278 OFFCURVE",
"569 278 CURVE SMOOTH",
"278 278 LINE SMOOTH"
);
}
);
};
guideLines = (
{
angle = 69.4967;
position = "{30, 110}";
},
{
angle = 110.0797;
position = "{422, 110}";
}
);
layerId = "91AB5BCA-6A50-42DA-B2F7-8181BF189245";
paths = (
{
closed = 1;
nodes = (
"62 0 LINE",
"180 228 LINE",
"511 228 LINE",
"561 0 LINE",
"604 0 LINE",
"442 723 LINE",
"387 723 LINE",
"20 0 LINE"
);
},
{
closed = 1;
nodes = (
"409 680 LINE",
"502 271 LINE",
"200 271 LINE"
);
}
);
width = 697;
}
);
leftKerningGroup = A;
rightKerningGroup = A;
unicode = 0041;
},
{
glyphname = Aringacute;
lastChange = "2017-12-17 19:32:49 +0000";
layers = (
{
background = {
paths = (
{
closed = 1;
nodes = (
"593 850 OFFCURVE",
"547 899 OFFCURVE",
"482 899 CURVE SMOOTH",
"426 899 OFFCURVE",
"375 863 OFFCURVE",
"367 809 CURVE SMOOTH",
"358 741 OFFCURVE",
"404 693 OFFCURVE",
"469 693 CURVE SMOOTH",
"526 693 OFFCURVE",
"576 728 OFFCURVE",
"584 785 CURVE SMOOTH"
);
},
{
closed = 1;
nodes = (
"520 775 OFFCURVE",
"491 746 OFFCURVE",
"460 746 CURVE SMOOTH",
"438 746 OFFCURVE",
"421 763 OFFCURVE",
"424 784 CURVE SMOOTH",
"428 816 OFFCURVE",
"459 842 OFFCURVE",
"489 842 CURVE SMOOTH",
"512 842 OFFCURVE",
"527 828 OFFCURVE",
"524 806 CURVE SMOOTH"
);
},
{
closed = 1;
nodes = (
"345 742 OFFCURVE",
"341 740 OFFCURVE",
"334 724 CURVE SMOOTH",
"3 42 LINE SMOOTH",
"-7 20 OFFCURVE",
"3 0 OFFCURVE",
"18 0 CURVE SMOOTH",
"170 0 LINE SMOOTH",
"184 0 OFFCURVE",
"188 2 OFFCURVE",
"192 10 CURVE SMOOTH",
"248 127 LINE SMOOTH",
"250 134 OFFCURVE",
"259 144 OFFCURVE",
"267 144 CURVE SMOOTH",
"468 144 LINE SMOOTH",
"478 144 OFFCURVE",
"478 144 OFFCURVE",
"480 137 CURVE SMOOTH",
"500 22 LINE SMOOTH",
"501 9 OFFCURVE",
"511 0 OFFCURVE",
"521 0 CURVE SMOOTH",
"717 0 LINE SMOOTH",
"732 0 OFFCURVE",
"733 15 OFFCURVE",
"730 29 CURVE SMOOTH",
"593 710 LINE SMOOTH",
"591 726 OFFCURVE",
"577 742 OFFCURVE",
"560 742 CURVE SMOOTH",
"362 742 LINE SMOOTH"
);
},
{
closed = 1;
nodes = (
"454 326 OFFCURVE",
"445 314 OFFCURVE",
"434 314 CURVE SMOOTH",
"331 314 LINE SMOOTH",
"319 314 OFFCURVE",
"321 317 OFFCURVE",
"328 330 CURVE SMOOTH",
"409 499 LINE SMOOTH",
"411 506 OFFCURVE",
"419 517 OFFCURVE",
"421 510 CURVE SMOOTH",
"452 339 LINE SMOOTH"
);
},
{
closed = 1;
nodes = (
"485 964 OFFCURVE",
"475 963 OFFCURVE",
"466 938 CURVE SMOOTH",
"443 875 LINE",
"531 875 LINE",
"565 930 LINE SMOOTH",
"571 944 OFFCURVE",
"565 964 OFFCURVE",
"549 964 CURVE SMOOTH",
"504 964 LINE SMOOTH"
);
}
);
};
layerId = "258ED206-D907-4350-8EBA-CBDDA1C16BF7";
paths = (
{
closed = 1;
nodes = (
"578 828 OFFCURVE",
"533 876 OFFCURVE",
"470 876 CURVE SMOOTH",
"415 876 OFFCURVE",
"365 841 OFFCURVE",
"358 788 CURVE SMOOTH",
"349 722 OFFCURVE",
"394 675 OFFCURVE",
"457 675 CURVE SMOOTH",
"512 675 OFFCURVE",
"561 709 OFFCURVE",
"569 765 CURVE SMOOTH"
);
},
{
closed = 1;
nodes = (
"507 755 OFFCURVE",
"478 727 OFFCURVE",
"448 727 CURVE SMOOTH",
"427 727 OFFCURVE",
"410 743 OFFCURVE",
"413 764 CURVE SMOOTH",
"417 795 OFFCURVE",
"447 820 OFFCURVE",
"476 820 CURVE SMOOTH",
"499 820 OFFCURVE",
"513 807 OFFCURVE",
"511 785 CURVE SMOOTH"
);
},
{
closed = 1;
nodes = (
"-17 0 LINE",
"182 0 LINE",
"249 140 LINE",
"467 140 LINE",
"491 0 LINE",
"717 0 LINE",
"572 723 LINE",
"334 723 LINE"
);
},
{
closed = 1;
nodes = (
"312 306 LINE",
"408 507 LINE",
"445 306 LINE"
);
},
{
closed = 1;
nodes = (
"432 853 LINE",
"517 853 LINE",
"571 939 LINE",
"463 939 LINE"
);
}
);
width = 781;
},
{
background = {
paths = (
{
closed = 1;
nodes = (
"496 856 OFFCURVE",
"457 900 OFFCURVE",
"400 900 CURVE SMOOTH",
"346 900 OFFCURVE",
"296 858 OFFCURVE",
"289 806 CURVE SMOOTH",
"281 747 OFFCURVE",
"319 702 OFFCURVE",
"376 702 CURVE SMOOTH",
"431 702 OFFCURVE",
"480 744 OFFCURVE",
"488 800 CURVE SMOOTH"
);
},
{
closed = 1;
nodes = (
"441 771 OFFCURVE",
"411 742 OFFCURVE",
"377 742 CURVE SMOOTH",
"347 742 OFFCURVE",
"324 769 OFFCURVE",
"328 799 CURVE SMOOTH",
"333 835 OFFCURVE",
"366 860 OFFCURVE",
"398 860 CURVE SMOOTH",
"430 860 OFFCURVE",
"450 837 OFFCURVE",
"446 803 CURVE SMOOTH"
);
},
{
closed = 1;
nodes = (
"355 742 OFFCURVE",
"352 740 OFFCURVE",
"348 732 CURVE SMOOTH",
"-2 10 LINE",
"-4 5 OFFCURVE",
"0 0 OFFCURVE",
"6 0 CURVE SMOOTH",
"28 0 LINE SMOOTH",
"34 0 OFFCURVE",
"36 1 OFFCURVE",
"39 6 CURVE",
"148 230 LINE SMOOTH",
"150 235 OFFCURVE",
"153 238 OFFCURVE",
"159 238 CURVE SMOOTH",
"455 238 LINE SMOOTH",
"461 238 OFFCURVE",
"462 237 OFFCURVE",
"463 232 CURVE SMOOTH",
"509 9 LINE SMOOTH",
"509 3 OFFCURVE",
"513 0 OFFCURVE",
"520 0 CURVE SMOOTH",
"547 0 LINE SMOOTH",
"554 0 OFFCURVE",
"556 3 OFFCURVE",
"555 9 CURVE SMOOTH",
"412 731 LINE",
"412 738 OFFCURVE",
"406 742 OFFCURVE",
"396 742 CURVE SMOOTH",
"364 742 LINE SMOOTH"
);
},
{
closed = 1;
nodes = (
"455 283 OFFCURVE",
"452 278 OFFCURVE",
"444 278 CURVE SMOOTH",
"175 278 LINE SMOOTH",
"169 278 OFFCURVE",
"169 278 OFFCURVE",
"173 285 CURVE SMOOTH",
"362 676 LINE SMOOTH",
"368 690 OFFCURVE",
"374 692 OFFCURVE",
"376 679 CURVE SMOOTH",
"454 289 LINE SMOOTH"
);
},
{
closed = 1;
nodes = (
"420 964 OFFCURVE",
"416 961 OFFCURVE",
"413 952 CURVE SMOOTH",
"384 875 LINE",
"422 875 LINE",
"464 947 LINE SMOOTH",
"468 957 OFFCURVE",
"465 964 OFFCURVE",
"454 964 CURVE SMOOTH",
"431 964 LINE SMOOTH"
);
}
);
};
layerId = "91AB5BCA-6A50-42DA-B2F7-8181BF189245";
paths = (
{
closed = 1;
nodes = (
"488 834 OFFCURVE",
"450 877 OFFCURVE",
"395 877 CURVE SMOOTH",
"342 877 OFFCURVE",
"293 836 OFFCURVE",
"286 785 CURVE SMOOTH",
"279 728 OFFCURVE",
"316 684 OFFCURVE",
"371 684 CURVE SMOOTH",
"425 684 OFFCURVE",
"473 725 OFFCURVE",
"480 779 CURVE SMOOTH"
);
},
{
closed = 1;
nodes = (
"435 751 OFFCURVE",
"405 723 OFFCURVE",
"372 723 CURVE SMOOTH",
"343 723 OFFCURVE",
"321 749 OFFCURVE",
"324 778 CURVE SMOOTH",
"329 814 OFFCURVE",
"361 838 OFFCURVE",
"393 838 CURVE SMOOTH",
"424 838 OFFCURVE",
"443 815 OFFCURVE",
"439 782 CURVE SMOOTH"
);
},
{
closed = 1;
nodes = (
"-2 0 LINE",
"40 0 LINE",
"153 232 LINE",
"455 232 LINE",
"503 0 LINE",
"548 0 LINE",
"404 723 LINE",
"349 723 LINE"
);
},
{
closed = 1;
nodes = (
"171 271 LINE",
"367 679 LINE",
"449 271 LINE"
);
},
{
closed = 1;
nodes = (
"379 853 LINE",
"416 853 LINE",
"467 939 LINE",
"412 939 LINE"
);
}
);
width = 619;
}
);
leftKerningGroup = A;
rightKerningGroup = A;
unicode = 01FA;
},
{
glyphname = AE;
lastChange = "2017-12-17 19:32:49 +0000";
layers = (
{
anchors = (
{
name = top;
position = "{777, 723}";
}
);
background = {
anchors = (
{
name = top;
position = "{797, 742}";
}
);
paths = (
{
closed = 1;
nodes = (
"738 164 LINE SMOOTH",
"729 164 OFFCURVE",
"729 161 OFFCURVE",
"731 172 CURVE SMOOTH",
"745 272 LINE SMOOTH",
"746 280 OFFCURVE",
"758 292 OFFCURVE",
"768 292 CURVE SMOOTH",
"953 292 LINE SMOOTH",
"966 292 OFFCURVE",
"967 294 OFFCURVE",
"968 303 CURVE SMOOTH",
"986 427 LINE SMOOTH",
"988 440 OFFCURVE",
"978 453 OFFCURVE",
"964 453 CURVE SMOOTH",
"784 453 LINE SMOOTH",
"774 453 OFFCURVE",
"771 454 OFFCURVE",
"773 468 CURVE SMOOTH",
"784 553 LINE SMOOTH",
"786 566 OFFCURVE",
"800 578 OFFCURVE",
"815 578 CURVE SMOOTH",
"1115 578 LINE SMOOTH",
"1133 578 OFFCURVE",
"1138 583 OFFCURVE",
"1140 599 CURVE SMOOTH",
"1157 715 LINE SMOOTH",
"1159 728 OFFCURVE",
"1151 742 OFFCURVE",
"1139 742 CURVE SMOOTH",
"490 742 LINE SMOOTH",
"473 742 OFFCURVE",
"467 740 OFFCURVE",
"457 724 CURVE SMOOTH",
"6 42 LINE SMOOTH",
"-8 20 OFFCURVE",
"1 0 OFFCURVE",
"16 0 CURVE SMOOTH",
"168 0 LINE SMOOTH",
"182 0 OFFCURVE",
"188 2 OFFCURVE",
"193 10 CURVE SMOOTH",
"269 128 LINE",
"272 135 OFFCURVE",
"282 144 OFFCURVE",
"290 144 CURVE SMOOTH",
"491 144 LINE SMOOTH",
"501 144 OFFCURVE",
"500 145 OFFCURVE",
"499 136 CURVE SMOOTH",
"484 31 LINE SMOOTH",
"482 14 OFFCURVE",
"491 0 OFFCURVE",
"511 0 CURVE SMOOTH",
"1046 0 LINE SMOOTH",
"1063 0 OFFCURVE",
"1066 4 OFFCURVE",
"1068 16 CURVE SMOOTH",
"1085 139 LINE SMOOTH",
"1087 153 OFFCURVE",
"1077 164 OFFCURVE",
"1063 164 CURVE SMOOTH"
);
},
{
closed = 1;
nodes = (
"384 314 LINE SMOOTH",
"372 314 OFFCURVE",
"376 317 OFFCURVE",
"386 330 CURVE",
"518 532 LINE SMOOTH",
"537 562 OFFCURVE",
"560 571 OFFCURVE",
"556 541 CURVE SMOOTH",
"528 340 LINE SMOOTH",
"526 327 OFFCURVE",
"513 314 OFFCURVE",
"501 314 CURVE SMOOTH"
);
}
);
};
layerId = "258ED206-D907-4350-8EBA-CBDDA1C16BF7";
paths = (
{
closed = 1;
nodes = (
"711 160 LINE",
"729 284 LINE",
"941 284 LINE",
"965 441 LINE",
"751 441 LINE",
"767 563 LINE",
"1108 563 LINE",
"1131 723 LINE",
"457 723 LINE",
"-21 0 LINE",
"182 0 LINE",
"272 140 LINE",
"487 140 LINE",
"468 0 LINE",
"1039 0 LINE",
"1060 160 LINE"
);
},
{
closed = 1;
nodes = (
"366 306 LINE",
"550 588 LINE",
"511 306 LINE"
);
}
);
width = 1123;
},
{
anchors = (
{
name = top;
position = "{740, 723}";
}
);
background = {
anchors = (
{
name = top;
position = "{755, 742}";
}
);
paths = (
{
closed = 1;
nodes = (
"524 40 LINE SMOOTH",
"517 40 OFFCURVE",
"516 40 OFFCURVE",
"518 48 CURVE SMOOTH",
"559 345 LINE SMOOTH",
"560 353 OFFCURVE",
"564 355 OFFCURVE",
"571 355 CURVE SMOOTH",
"839 355 LINE SMOOTH",
"845 355 OFFCURVE",
"846 355 OFFCURVE",
"846 361 CURVE SMOOTH",
"850 387 LINE SMOOTH",
"851 392 OFFCURVE",
"848 395 OFFCURVE",
"843 395 CURVE SMOOTH",
"574 395 LINE SMOOTH",
"567 395 OFFCURVE",
"566 395 OFFCURVE",
"567 401 CURVE SMOOTH",
"608 692 LINE SMOOTH",
"609 700 OFFCURVE",
"612 702 OFFCURVE",
"619 702 CURVE SMOOTH",
"957 702 LINE SMOOTH",
"963 702 OFFCURVE",
"964 702 OFFCURVE",
"965 708 CURVE SMOOTH",
"969 734 LINE SMOOTH",
"970 739 OFFCURVE",
"967 742 OFFCURVE",
"962 742 CURVE SMOOTH",
"557 742 LINE SMOOTH",
"548 742 OFFCURVE",
"544 740 OFFCURVE",
"539 732 CURVE",
"23 10 LINE SMOOTH",
"19 5 OFFCURVE",
"23 0 OFFCURVE",
"29 0 CURVE SMOOTH",
"54 0 LINE SMOOTH",
"60 0 OFFCURVE",
"63 1 OFFCURVE",
"67 6 CURVE SMOOTH",
"227 230 LINE SMOOTH",
"231 235 OFFCURVE",
"234 238 OFFCURVE",
"240 238 CURVE SMOOTH",
"494 238 LINE SMOOTH",
"497 238 OFFCURVE",
"498 237 OFFCURVE",
"498 234 CURVE SMOOTH",
"466 11 LINE SMOOTH",
"465 3 OFFCURVE",
"468 0 OFFCURVE",
"475 0 CURVE SMOOTH",
"875 0 LINE SMOOTH",
"880 0 OFFCURVE",
"881 1 OFFCURVE",
"882 6 CURVE SMOOTH",
"885 32 LINE SMOOTH",
"886 38 OFFCURVE",
"883 40 OFFCURVE",
"877 40 CURVE SMOOTH"
);
},
{
closed = 1;
nodes = (
"263 278 LINE SMOOTH",
"257 278 OFFCURVE",
"258 278 OFFCURVE",
"263 285 CURVE SMOOTH",
"546 676 LINE SMOOTH",
"556 690 OFFCURVE",
"561 692 OFFCURVE",
"560 679 CURVE",
"505 288 LINE SMOOTH",
"505 283 OFFCURVE",
"501 278 OFFCURVE",
"495 278 CURVE SMOOTH"
);
}
);
};
layerId = "91AB5BCA-6A50-42DA-B2F7-8181BF189245";
paths = (
{
closed = 1;
nodes = (
"509 39 LINE",
"550 346 LINE",
"828 346 LINE",
"834 385 LINE",
"556 385 LINE",
"598 684 LINE",
"944 684 LINE",
"950 723 LINE",
"537 723 LINE",
"20 0 LINE",
"66 0 LINE",
"232 232 LINE",
"491 232 LINE",
"457 0 LINE",
"863 0 LINE",
"868 39 LINE"
);
},
{
closed = 1;
nodes = (
"256 271 LINE",
"553 681 LINE",
"496 271 LINE"
);
}
);
width = 968;
}
);
leftKerningGroup = AE;
leftMetricsKey = A;
rightMetricsKey = E;
unicode = 00C6;
},
{
glyphname = B;
lastChange = "2017-12-17 19:32:49 +0000";
layers = (
{
background = {
paths = (
{
closed = 1;
nodes = (
"464 0 LINE SMOOTH",
"680 0 OFFCURVE",
"783 65 OFFCURVE",
"783 202 CURVE SMOOTH",
"783 287 OFFCURVE",
"744 338 OFFCURVE",
"634 379 CURVE SMOOTH",
"631 380 OFFCURVE",
"631 385 OFFCURVE",
"634 386 CURVE SMOOTH",
"734 432 OFFCURVE",
"765 477 OFFCURVE",
"765 546 CURVE SMOOTH",
"765 675 OFFCURVE",
"655 742 OFFCURVE",
"448 742 CURVE SMOOTH",
"150 742 LINE SMOOTH",
"135 742 OFFCURVE",
"125 731 OFFCURVE",
"125 716 CURVE SMOOTH",
"125 22 LINE SMOOTH",
"125 10 OFFCURVE",
"134 0 OFFCURVE",
"148 0 CURVE SMOOTH"
);
},
{
closed = 1;
nodes = (
"356 150 OFFCURVE",
"352 157 OFFCURVE",
"352 172 CURVE SMOOTH",
"352 277 LINE SMOOTH",
"352 292 OFFCURVE",
"358 298 OFFCURVE",
"375 298 CURVE SMOOTH",
"464 298 LINE SMOOTH",
"514 298 OFFCURVE",
"547 268 OFFCURVE",
"547 227 CURVE SMOOTH",
"547 188 OFFCURVE",
"517 150 OFFCURVE",
"459 150 CURVE SMOOTH",
"369 150 LINE SMOOTH"
);
},
{
closed = 1;
nodes = (
"356 452 OFFCURVE",
"352 459 OFFCURVE",
"352 474 CURVE SMOOTH",
"352 572 LINE SMOOTH",
"352 587 OFFCURVE",
"358 592 OFFCURVE",
"375 592 CURVE SMOOTH",
"457 592 LINE SMOOTH",
"504 592 OFFCURVE",
"541 564 OFFCURVE",
"541 520 CURVE SMOOTH",
"541 481 OFFCURVE",
"511 452 OFFCURVE",
"464 452 CURVE SMOOTH",
"369 452 LINE SMOOTH"
);
}
);
};
layerId = "258ED206-D907-4350-8EBA-CBDDA1C16BF7";
paths = (
{
closed = 1;
nodes = (
"331 0 LINE SMOOTH",
"542 0 OFFCURVE",
"631 62 OFFCURVE",
"650 197 CURVE",
"658 250 OFFCURVE",
"663 334 OFFCURVE",
"540 372 CURVE",
"636 416 OFFCURVE",
"670 465 OFFCURVE",
"679 532 CURVE SMOOTH",
"697 655 OFFCURVE",
"619 723 OFFCURVE",
"417 723 CURVE SMOOTH",
"129 723 LINE",
"27 0 LINE"
);
},
{
closed = 1;
nodes = (
"263 290 LINE",
"385 290 LINE",
"434 290 OFFCURVE",
"461 261 OFFCURVE",
"456 221 CURVE SMOOTH",
"450 183 OFFCURVE",
"416 146 OFFCURVE",
"360 146 CURVE",
"243 146 LINE"
);
},
{
closed = 1;
nodes = (
"303 577 LINE",
"418 577 LINE SMOOTH",
"464 577 OFFCURVE",
"496 550 OFFCURVE",
"490 507 CURVE SMOOTH",
"484 469 OFFCURVE",
"451 440 OFFCURVE",
"405 440 CURVE SMOOTH",
"284 440 LINE"
);
}
);
width = 693;
},
{
background = {
paths = (
{
closed = 1;
nodes = (
"397 0 LINE SMOOTH",
"572 0 OFFCURVE",
"675 65 OFFCURVE",
"675 197 CURVE SMOOTH",
"675 297 OFFCURVE",
"616 356 OFFCURVE",
"526 373 CURVE SMOOTH",
"520 374 OFFCURVE",
"520 380 OFFCURVE",
"526 382 CURVE SMOOTH",
"614 409 OFFCURVE",
"657 467 OFFCURVE",
"657 551 CURVE SMOOTH",
"657 675 OFFCURVE",
"560 742 OFFCURVE",
"394 742 CURVE SMOOTH",
"189 742 LINE SMOOTH",
"182 742 OFFCURVE",
"180 740 OFFCURVE",
"180 732 CURVE SMOOTH",
"180 8 LINE SMOOTH",
"180 3 OFFCURVE",
"183 0 OFFCURVE",
"188 0 CURVE SMOOTH"
);
},
{
closed = 1;
nodes = (
"228 40 OFFCURVE",
"226 43 OFFCURVE",
"226 50 CURVE SMOOTH",
"226 346 LINE SMOOTH",
"226 353 OFFCURVE",
"229 355 OFFCURVE",
"237 355 CURVE SMOOTH",
"406 355 LINE SMOOTH",
"531 355 OFFCURVE",
"627 311 OFFCURVE",
"627 191 CURVE SMOOTH",
"627 82 OFFCURVE",
"550 40 OFFCURVE",
"392 40 CURVE SMOOTH",
"233 40 LINE SMOOTH"
);
},
{
closed = 1;
nodes = (
"228 395 OFFCURVE",
"226 398 OFFCURVE",
"226 405 CURVE SMOOTH",
"226 694 LINE SMOOTH",
"226 700 OFFCURVE",
"229 702 OFFCURVE",
"235 702 CURVE SMOOTH",
"390 702 LINE SMOOTH",
"525 702 OFFCURVE",
"609 654 OFFCURVE",
"609 546 CURVE SMOOTH",
"609 424 OFFCURVE",
"499 395 OFFCURVE",
"406 395 CURVE SMOOTH",
"233 395 LINE SMOOTH"
);
}
);
};
layerId = "91AB5BCA-6A50-42DA-B2F7-8181BF189245";
paths = (
{
closed = 1;
nodes = (
"284 0 LINE",
"454 0 OFFCURVE",
"563 64 OFFCURVE",
"582 193 CURVE",
"594 288 OFFCURVE",
"550 349 OFFCURVE",
"445 366 CURVE",
"553 397 OFFCURVE",
"600 454 OFFCURVE",
"612 536 CURVE SMOOTH",
"628 657 OFFCURVE",
"544 723 OFFCURVE",
"382 723 CURVE SMOOTH",
"179 723 LINE",
"78 0 LINE"
);
},
{
closed = 1;
nodes = (
"165 345 LINE",
"340 345 LINE SMOOTH",
"462 345 OFFCURVE",
"558 304 OFFCURVE",
"542 187 CURVE SMOOTH",
"526 81 OFFCURVE",
"438 41 OFFCURVE",
"284 41 CURVE",
"123 41 LINE"
);
},
{
closed = 1;
nodes = (
"212 682 LINE",
"372 682 LINE SMOOTH",
"504 682 OFFCURVE",
"587 636 OFFCURVE",
"572 531 CURVE SMOOTH",
"555 412 OFFCURVE",
"436 386 OFFCURVE",
"346 386 CURVE SMOOTH",
"171 386 LINE"
);
}
);
width = 657;
}
);
leftMetricsKey = N;
rightKerningGroup = B;
unicode = 0042;
},
{
glyphname = C;
lastChange = "2017-12-17 19:32:49 +0000";
layers = (
{
anchors = (
{
name = bottom;
position = "{339, 0}";
},
{
name = top;
position = "{440, 723}";
}
);
background = {
anchors = (
{
name = bottom;
position = "{450, 0}";
},
{
name = top;
position = "{452, 742}";
}
);
paths = (
{
closed = 1;
nodes = (
"235 752 OFFCURVE",
"97 606 OFFCURVE",
"97 381 CURVE SMOOTH",
"97 155 OFFCURVE",
"235 -10 OFFCURVE",
"450 -10 CURVE SMOOTH",
"681 -10 OFFCURVE",
"767 167 OFFCURVE",
"777 221 CURVE SMOOTH",
"781 247 OFFCURVE",
"770 252 OFFCURVE",
"763 254 CURVE SMOOTH",
"638 279 LINE SMOOTH",
"622 282 OFFCURVE",
"613 279 OFFCURVE",
"610 271 CURVE SMOOTH",
"575 183 OFFCURVE",
"524 154 OFFCURVE",
"457 154 CURVE SMOOTH",
"376 154 OFFCURVE",
"335 212 OFFCURVE",
"335 377 CURVE SMOOTH",
"335 540 OFFCURVE",
"383 598 OFFCURVE",
"458 598 CURVE SMOOTH",
"526 598 OFFCURVE",
"553 544 OFFCURVE",
"565 475 CURVE",
"755 487 LINE",
"770 489 OFFCURVE",
"774 494 OFFCURVE",
"768 522 CURVE SMOOTH",
"742 655 OFFCURVE",
"621 752 OFFCURVE",
"452 752 CURVE SMOOTH"
);
}
);
};
guideLines = (
{
angle = -183.559;
position = "{438, 314}";
}
);
layerId = "258ED206-D907-4350-8EBA-CBDDA1C16BF7";
paths = (
{
closed = 1;
nodes = (
"230 733 OFFCURVE",
"76 590 OFFCURVE",
"45 371 CURVE SMOOTH",
"15 151 OFFCURVE",
"128 -10 OFFCURVE",
"337 -10 CURVE SMOOTH",
"568 -10 OFFCURVE",
"647 107 OFFCURVE",
"689 257 CURVE",
"498 270 LINE",
"476 203 OFFCURVE",
"432 146 OFFCURVE",
"365 146 CURVE SMOOTH",
"292 146 OFFCURVE",
"235 207 OFFCURVE",
"257 367 CURVE SMOOTH",
"280 526 OFFCURVE",
"353 577 OFFCURVE",
"426 577 CURVE SMOOTH",
"492 577 OFFCURVE",
"522 530 OFFCURVE",
"524 463 CURVE",
"719 475 LINE",
"725 631 OFFCURVE",
"613 733 OFFCURVE",
"441 733 CURVE SMOOTH"
);
}
);
width = 718;
},
{
anchors = (
{
name = bottom;
position = "{313, 0}";
},
{
name = top;
position = "{414, 723}";
}
);
background = {
anchors = (
{
name = bottom;
position = "{431, 0}";
},
{
name = top;
position = "{425, 742}";
}
);
guideLines = (
{
angle = 90;
position = "{686, 369}";
}
);
paths = (
{
closed = 1;
nodes = (
"238 752 OFFCURVE",
"128 610 OFFCURVE",
"128 368 CURVE SMOOTH",
"128 127 OFFCURVE",
"238 -10 OFFCURVE",
"431 -10 CURVE SMOOTH",
"552 -10 OFFCURVE",
"652 61 OFFCURVE",
"687 171 CURVE SMOOTH",
"688 175 OFFCURVE",
"687 177 OFFCURVE",
"685 178 CURVE SMOOTH",
"651 188 LINE SMOOTH",
"648 189 OFFCURVE",
"646 188 OFFCURVE",
"645 186 CURVE SMOOTH",
"605 81 OFFCURVE",
"539 32 OFFCURVE",
"435 32 CURVE SMOOTH",
"262 32 OFFCURVE",
"176 153 OFFCURVE",
"176 368 CURVE SMOOTH",
"176 591 OFFCURVE",
"264 710 OFFCURVE",
"427 710 CURVE SMOOTH",
"528 710 OFFCURVE",
"608 647 OFFCURVE",
"631 552 CURVE SMOOTH",
"632 546 OFFCURVE",
"634 544 OFFCURVE",
"638 545 CURVE SMOOTH",
"674 549 LINE SMOOTH",
"679 549 OFFCURVE",
"680 551 OFFCURVE",
"679 556 CURVE SMOOTH",
"667 659 OFFCURVE",
"547 752 OFFCURVE",
"425 752 CURVE SMOOTH"
);
}
);
};
guideLines = (
{
angle = 90;
position = "{632, 341}";
}
);
layerId = "91AB5BCA-6A50-42DA-B2F7-8181BF189245";
paths = (
{
closed = 1;
nodes = (
"225 733 OFFCURVE",
"106 594 OFFCURVE",
"73 359 CURVE SMOOTH",
"41 124 OFFCURVE",
"123 -10 OFFCURVE",
"311 -10 CURVE SMOOTH",
"430 -10 OFFCURVE",
"556 69 OFFCURVE",
"582 172 CURVE",
"541 184 LINE",
"505 87 OFFCURVE",
"418 31 OFFCURVE",
"319 31 CURVE SMOOTH",
"150 31 OFFCURVE",
"88 149 OFFCURVE",
"117 359 CURVE SMOOTH",
"148 576 OFFCURVE",
"246 692 OFFCURVE",
"404 692 CURVE SMOOTH",
"528 692 OFFCURVE",
"588 623 OFFCURVE",
"592 529 CURVE",
"636 536 LINE",
"639 639 OFFCURVE",
"555 733 OFFCURVE",
"407 733 CURVE SMOOTH"
);
}
);
width = 657;
}
);
leftKerningGroup = O;
unicode = 0043;
},
{
glyphname = D;
lastChange = "2017-12-17 19:32:49 +0000";
layers = (
{
anchors = (
{
name = center;
position = "{381, 361}";
},
{
name = top;
position = "{432, 723}";
}
);
background = {
anchors = (
{
name = center;
position = "{443, 371}";
},
{
name = top;
position = "{443, 742}";
}
);
paths = (
{
closed = 1;
nodes = (
"105 0 LINE",
"397 0 LINE SMOOTH",
"660 0 OFFCURVE",
"793 157 OFFCURVE",
"793 373 CURVE SMOOTH",
"793 584 OFFCURVE",
"666 731 OFFCURVE",
"398 741 CURVE SMOOTH",
"334 743 OFFCURVE",
"126 742 OFFCURVE",
"105 742 CURVE"
);
},
{
closed = 1;
nodes = (
"352 585 LINE SMOOTH",
"504 585 OFFCURVE",
"555 513 OFFCURVE",
"555 376 CURVE SMOOTH",
"555 215 OFFCURVE",
"479 157 OFFCURVE",
"353 157 CURVE SMOOTH",
"332 157 LINE",
"332 585 LINE"
);
}
);
};
layerId = "258ED206-D907-4350-8EBA-CBDDA1C16BF7";
paths = (
{
closed = 1;
nodes = (
"27 0 LINE",
"285 0 LINE SMOOTH",
"542 0 OFFCURVE",
"682 153 OFFCURVE",
"711 363 CURVE SMOOTH",
"740 569 OFFCURVE",
"647 712 OFFCURVE",
"388 722 CURVE SMOOTH",
"325 724 OFFCURVE",
"149 723 OFFCURVE",
"129 723 CURVE"
);
},
{
closed = 1;
nodes = (
"371 570 LINE SMOOTH",
"471 570 OFFCURVE",
"528 500 OFFCURVE",
"510 366 CURVE SMOOTH",
"487 209 OFFCURVE",
"387 153 OFFCURVE",
"313 153 CURVE SMOOTH",
"244 153 LINE",
"302 570 LINE"
);
}
);
width = 731;
},
{
anchors = (
{
name = center;
position = "{349, 361}";
},
{
name = top;
position = "{394, 723}";
}
);
background = {
anchors = (
{
name = center;
position = "{410, 371}";
},
{
name = top;
position = "{404, 742}";
}
);
paths = (
{
closed = 1;
nodes = (
"182 0 LINE",
"293 0 LINE SMOOTH",
"565 0 OFFCURVE",
"694 115 OFFCURVE",
"694 376 CURVE SMOOTH",
"694 624 OFFCURVE",
"582 739 OFFCURVE",
"307 741 CURVE SMOOTH",
"245 741 OFFCURVE",
"184 742 OFFCURVE",
"182 742 CURVE"
);
},
{
closed = 1;
nodes = (
"230 701 OFFCURVE",
"278 701 OFFCURVE",
"296 701 CURVE SMOOTH",
"540 696 OFFCURVE",
"646 628 OFFCURVE",
"646 372 CURVE SMOOTH",
"646 130 OFFCURVE",
"547 40 OFFCURVE",
"289 40 CURVE SMOOTH",
"228 40 LINE",
"228 701 LINE"
);
}
);
};
layerId = "91AB5BCA-6A50-42DA-B2F7-8181BF189245";
paths = (
{
closed = 1;
nodes = (
"78 0 LINE",
"184 0 LINE SMOOTH",
"449 0 OFFCURVE",
"590 112 OFFCURVE",
"626 366 CURVE SMOOTH",
"660 608 OFFCURVE",
"567 720 OFFCURVE",
"299 722 CURVE SMOOTH",
"239 722 OFFCURVE",
"181 723 OFFCURVE",
"179 723 CURVE"
);
},
{
closed = 1;
nodes = (
"283 681 LINE SMOOTH",
"503 681 OFFCURVE",
"618 612 OFFCURVE",
"583 362 CURVE SMOOTH",
"550 127 OFFCURVE",
"420 41 OFFCURVE",
"186 41 CURVE SMOOTH",
"127 41 LINE",
"216 681 LINE"
);
}
);
width = 667;
}
);
leftMetricsKey = N;
rightKerningGroup = O;
unicode = 0044;
},
{
glyphname = Eth;
lastChange = "2017-12-17 19:32:49 +0000";
layers = (
{
background = {
components = (
{
name = D;
transform = "{1, 0, 0, 1, 9, 0}";
}
);
paths = (
{
closed = 1;
nodes = (
"460 420 OFFCURVE",
"451 434 OFFCURVE",
"440 434 CURVE SMOOTH",
"69 434 LINE SMOOTH",
"57 434 OFFCURVE",
"53 432 OFFCURVE",
"51 417 CURVE SMOOTH",
"38 324 LINE SMOOTH",
"36 307 OFFCURVE",
"44 293 OFFCURVE",
"64 293 CURVE SMOOTH",
"413 293 LINE SMOOTH",
"436 293 OFFCURVE",
"442 295 OFFCURVE",
"445 315 CURVE SMOOTH",
"458 408 LINE SMOOTH"
);
}
);
};
components = (
{
name = D;
transform = "{1, 0, 0, 1, 9, 0}";
}
);
layerId = "258ED206-D907-4350-8EBA-CBDDA1C16BF7";
paths = (
{
closed = 1;
nodes = (
"52 423 LINE",
"33 285 LINE",
"431 285 LINE",
"450 423 LINE"
);
}
);
width = 739;
},
{
background = {
components = (
{
name = D;
transform = "{1, 0, 0, 1, -24, 0}";
}
);
paths = (
{
closed = 1;
nodes = (
"353 391 OFFCURVE",
"350 395 OFFCURVE",
"345 395 CURVE SMOOTH",
"52 395 LINE SMOOTH",
"47 395 OFFCURVE",
"46 393 OFFCURVE",
"45 387 CURVE SMOOTH",
"42 364 LINE SMOOTH",
"41 357 OFFCURVE",
"43 353 OFFCURVE",
"51 353 CURVE SMOOTH",
"335 353 LINE SMOOTH",
"344 353 OFFCURVE",
"348 355 OFFCURVE",
"349 363 CURVE SMOOTH",
"352 386 LINE SMOOTH"
);
}
);
};
components = (
{
name = D;
transform = "{1, 0, 0, 1, -24, 0}";
}
);
layerId = "91AB5BCA-6A50-42DA-B2F7-8181BF189245";
paths = (
{
closed = 1;
nodes = (
"50 385 LINE",
"45 344 LINE",
"344 344 LINE",
"349 385 LINE"
);
}
);
width = 644;
}
);
rightKerningGroup = O;
rightMetricsKey = D;
unicode = 00D0;
},
{
glyphname = E;
lastChange = "2017-12-17 19:32:49 +0000";
layers = (
{
anchors = (
{
name = bottom;
position = "{293, 0}";
},
{
name = ogonek;
position = "{561, 10}";
},
{
name = top;
position = "{395, 723}";
}
);
background = {
anchors = (
{
name = bottom;
position = "{405, 0}";
},
{
name = ogonek;
position = "{679, 10}";
},
{
name = top;
position = "{405, 742}";
}
);
paths = (
{
closed = 1;
nodes = (
"121 25 LINE SMOOTH",
"121 8 OFFCURVE",
"128 0 OFFCURVE",
"148 0 CURVE SMOOTH",
"683 0 LINE SMOOTH",
"700 0 OFFCURVE",
"707 10 OFFCURVE",
"707 22 CURVE SMOOTH",
"707 145 LINE SMOOTH",
"707 159 OFFCURVE",
"699 164 OFFCURVE",
"685 164 CURVE SMOOTH",
"360 164 LINE SMOOTH",
"351 164 OFFCURVE",
"348 167 OFFCURVE",
"348 178 CURVE SMOOTH",
"348 278 LINE SMOOTH",
"348 286 OFFCURVE",
"354 292 OFFCURVE",
"364 292 CURVE SMOOTH",
"549 292 LINE SMOOTH",
"562 292 OFFCURVE",
"567 300 OFFCURVE",
"567 309 CURVE SMOOTH",
"567 433 LINE SMOOTH",
"567 446 OFFCURVE",
"560 453 OFFCURVE",
"546 453 CURVE SMOOTH",
"366 453 LINE SMOOTH",
"356 453 OFFCURVE",
"348 460 OFFCURVE",
"348 474 CURVE SMOOTH",
"348 559 LINE SMOOTH",
"348 572 OFFCURVE",
"356 578 OFFCURVE",
"371 578 CURVE SMOOTH",
"671 578 LINE SMOOTH",
"689 578 OFFCURVE",
"697 589 OFFCURVE",
"697 605 CURVE SMOOTH",
"698 721 LINE SMOOTH",
"698 734 OFFCURVE",
"692 742 OFFCURVE",
"680 742 CURVE SMOOTH",
"140 742 LINE SMOOTH",
"128 742 OFFCURVE",
"121 734 OFFCURVE",
"121 719 CURVE SMOOTH"
);
}
);
};
layerId = "258ED206-D907-4350-8EBA-CBDDA1C16BF7";
paths = (
{
closed = 1;
nodes = (
"561 0 LINE",
"584 162 LINE",
"245 162 LINE",
"262 284 LINE",
"545 284 LINE",
"566 441 LINE",
"284 441 LINE",
"302 561 LINE",
"638 561 LINE",
"662 723 LINE",
"129 723 LINE",
"27 0 LINE"
);
}
);
width = 646;
},
{
anchors = (
{
name = bottom;
position = "{318, 0}";
},
{
name = ogonek;
position = "{499, 10}";
},
{
name = top;
position = "{400, 723}";
}
);
background = {
anchors = (
{
name = bottom;
position = "{430, 0}";
},
{
name = ogonek;
position = "{615, 10}";
},
{
name = top;
position = "{411, 742}";
}
);
paths = (
{
closed = 1;
nodes = (
"180 10 LINE SMOOTH",
"180 2 OFFCURVE",
"182 0 OFFCURVE",
"189 0 CURVE SMOOTH",
"619 0 LINE SMOOTH",
"624 0 OFFCURVE",
"626 2 OFFCURVE",
"626 7 CURVE SMOOTH",
"626 33 LINE SMOOTH",
"626 39 OFFCURVE",
"624 40 OFFCURVE",
"618 40 CURVE SMOOTH",
"235 40 LINE SMOOTH",
"228 40 OFFCURVE",
"226 41 OFFCURVE",
"226 49 CURVE SMOOTH",
"226 346 LINE SMOOTH",
"226 354 OFFCURVE",
"228 355 OFFCURVE",
"235 355 CURVE SMOOTH",
"523 355 LINE SMOOTH",
"529 355 OFFCURVE",
"531 356 OFFCURVE",
"531 362 CURVE SMOOTH",
"531 388 LINE SMOOTH",
"531 393 OFFCURVE",
"529 395 OFFCURVE",
"524 395 CURVE SMOOTH",
"235 395 LINE SMOOTH",
"228 395 OFFCURVE",
"226 396 OFFCURVE",
"226 402 CURVE SMOOTH",
"226 693 LINE SMOOTH",
"226 701 OFFCURVE",
"228 702 OFFCURVE",
"235 702 CURVE SMOOTH",
"603 702 LINE SMOOTH",
"609 702 OFFCURVE",
"611 703 OFFCURVE",
"611 709 CURVE SMOOTH",
"611 735 LINE SMOOTH",
"611 740 OFFCURVE",
"609 742 OFFCURVE",
"604 742 CURVE SMOOTH",
"189 742 LINE SMOOTH",
"182 742 OFFCURVE",
"180 740 OFFCURVE",
"180 732 CURVE SMOOTH"
);
}
);
};
layerId = "91AB5BCA-6A50-42DA-B2F7-8181BF189245";
paths = (
{
closed = 1;
nodes = (
"507 0 LINE",
"512 41 LINE",
"123 42 LINE",
"165 345 LINE",
"514 345 LINE",
"520 386 LINE",
"171 386 LINE",
"212 682 LINE",
"588 682 LINE",
"593 723 LINE",
"179 723 LINE",
"78 0 LINE"
);
}
);
width = 612;
}
);
leftMetricsKey = N;
unicode = 0045;
},
{
glyphname = F;
lastChange = "2017-12-17 19:32:49 +0000";
layers = (
{
background = {
paths = (
{
closed = 1;
nodes = (
"105 25 LINE SMOOTH",
"105 8 OFFCURVE",
"111 0 OFFCURVE",
"132 0 CURVE",
"299 0 LINE SMOOTH",
"322 0 OFFCURVE",
"332 8 OFFCURVE",
"332 29 CURVE SMOOTH",
"332 271 LINE SMOOTH",
"332 280 OFFCURVE",
"338 286 OFFCURVE",
"348 286 CURVE SMOOTH",
"535 286 LINE SMOOTH",
"549 286 OFFCURVE",
"553 293 OFFCURVE",
"553 303 CURVE SMOOTH",
"553 425 LINE SMOOTH",
"553 438 OFFCURVE",
"547 445 OFFCURVE",
"533 445 CURVE SMOOTH",
"350 445 LINE SMOOTH",
"339 445 OFFCURVE",
"332 451 OFFCURVE",
"332 465 CURVE SMOOTH",
"332 559 LINE SMOOTH",
"332 572 OFFCURVE",
"339 578 OFFCURVE",
"355 578 CURVE SMOOTH",
"649 578 LINE SMOOTH",
"667 578 OFFCURVE",
"674 589 OFFCURVE",
"674 605 CURVE SMOOTH",
"675 721 LINE SMOOTH",
"675 734 OFFCURVE",
"669 742 OFFCURVE",
"657 742 CURVE SMOOTH",
"124 742 LINE SMOOTH",
"113 742 OFFCURVE",
"105 734 OFFCURVE",
"105 719 CURVE SMOOTH"
);
}
);
};
layerId = "258ED206-D907-4350-8EBA-CBDDA1C16BF7";
paths = (
{
closed = 1;
nodes = (
"27 0 LINE",
"222 0 LINE",
"261 279 LINE",
"540 279 LINE",
"561 434 LINE",
"283 434 LINE",
"301 563 LINE",
"634 563 LINE",
"658 723 LINE",
"129 723 LINE"
);
}
);
width = 617;
},
{
background = {
paths = (
{
closed = 1;
nodes = (
"184 10 LINE SMOOTH",
"184 2 OFFCURVE",
"186 0 OFFCURVE",
"193 0 CURVE SMOOTH",
"223 0 LINE SMOOTH",
"228 0 OFFCURVE",
"230 2 OFFCURVE",
"230 7 CURVE SMOOTH",
"230 333 LINE SMOOTH",
"230 341 OFFCURVE",
"232 342 OFFCURVE",
"239 342 CURVE SMOOTH",
"537 342 LINE SMOOTH",
"543 342 OFFCURVE",
"545 343 OFFCURVE",
"545 349 CURVE SMOOTH",
"545 375 LINE SMOOTH",
"545 380 OFFCURVE",
"543 382 OFFCURVE",
"538 382 CURVE SMOOTH",
"239 382 LINE SMOOTH",
"232 382 OFFCURVE",
"230 383 OFFCURVE",
"230 389 CURVE SMOOTH",
"230 693 LINE SMOOTH",
"230 701 OFFCURVE",
"232 702 OFFCURVE",
"239 702 CURVE SMOOTH",
"597 702 LINE SMOOTH",
"603 702 OFFCURVE",
"605 703 OFFCURVE",
"605 709 CURVE SMOOTH",
"605 735 LINE SMOOTH",
"605 740 OFFCURVE",
"603 742 OFFCURVE",
"598 742 CURVE SMOOTH",
"193 742 LINE SMOOTH",
"186 742 OFFCURVE",
"184 740 OFFCURVE",
"184 732 CURVE SMOOTH"
);
}
);
};
layerId = "91AB5BCA-6A50-42DA-B2F7-8181BF189245";
paths = (
{
closed = 1;
nodes = (
"78 0 LINE",
"121 0 LINE",
"170 346 LINE",
"510 346 LINE",
"515 387 LINE",
"175 387 LINE",
"216 682 LINE",
"582 682 LINE",
"588 723 LINE",
"179 723 LINE"
);
}
);
width = 567;
}
);
leftMetricsKey = N;
rightKerningGroup = F;
unicode = 0046;
},
{
glyphname = G;
lastChange = "2017-12-17 19:32:49 +0000";
layers = (
{
anchors = (
{
name = bottom;
position = "{331, 0}";
},
{
name = top;
position = "{433, 723}";
}
);
background = {
anchors = (
{
name = bottom;
position = "{444, 0}";
},
{
name = top;
position = "{444, 742}";
}
);
paths = (
{
closed = 1;
nodes = (
"560 -10 OFFCURVE",
"611 40 OFFCURVE",
"647 75 CURVE SMOOTH",
"652 81 OFFCURVE",
"655 81 OFFCURVE",
"658 77 CURVE SMOOTH",
"698 19 LINE SMOOTH",
"708 5 OFFCURVE",
"718 0 OFFCURVE",
"730 0 CURVE SMOOTH",
"768 0 LINE SMOOTH",
"778 0 OFFCURVE",
"785 8 OFFCURVE",
"785 17 CURVE SMOOTH",
"785 344 LINE SMOOTH",
"785 362 OFFCURVE",
"772 375 OFFCURVE",
"747 375 CURVE SMOOTH",
"467 377 LINE SMOOTH",
"452 377 OFFCURVE",
"446 370 OFFCURVE",
"446 360 CURVE SMOOTH",
"446 264 LINE SMOOTH",
"446 247 OFFCURVE",
"452 242 OFFCURVE",
"466 242 CURVE SMOOTH",
"560 242 LINE SMOOTH",
"570 242 OFFCURVE",
"573 236 OFFCURVE",
"569 225 CURVE",
"566 216 LINE",
"548 170 OFFCURVE",
"514 146 OFFCURVE",
"458 146 CURVE SMOOTH",
"382 146 OFFCURVE",
"330 193 OFFCURVE",
"330 374 CURVE SMOOTH",
"330 544 OFFCURVE",
"376 597 OFFCURVE",
"450 597 CURVE SMOOTH",
"522 597 OFFCURVE",
"557 547 OFFCURVE",
"567 492 CURVE SMOOTH",
"570 479 OFFCURVE",
"571 472 OFFCURVE",
"587 472 CURVE SMOOTH",
"758 498 LINE SMOOTH",
"774 500 OFFCURVE",
"778 505 OFFCURVE",
"772 533 CURVE SMOOTH",
"748 640 OFFCURVE",
"635 752 OFFCURVE",
"455 752 CURVE SMOOTH",
"241 752 OFFCURVE",
"92 599 OFFCURVE",
"92 368 CURVE SMOOTH",
"92 145 OFFCURVE",
"231 -10 OFFCURVE",
"442 -10 CURVE SMOOTH"
);
}
);
};
layerId = "258ED206-D907-4350-8EBA-CBDDA1C16BF7";
paths = (
{
closed = 1;
nodes = (
"446 -10 OFFCURVE",
"506 43 OFFCURVE",
"547 80 CURVE",
"536 0 LINE",
"663 0 LINE",
"717 382 LINE",
"387 384 LINE",
"368 252 LINE",
"494 252 LINE",
"481 227 LINE",
"458 182 OFFCURVE",
"422 159 OFFCURVE",
"367 159 CURVE SMOOTH",
"305 159 OFFCURVE",
"226 188 OFFCURVE",
"250 364 CURVE SMOOTH",
"273 520 OFFCURVE",
"345 572 OFFCURVE",
"417 572 CURVE SMOOTH",
"484 572 OFFCURVE",
"510 527 OFFCURVE",
"519 458 CURVE",
"726 488 LINE",
"719 608 OFFCURVE",
"638 733 OFFCURVE",
"444 733 CURVE SMOOTH",
"236 733 OFFCURVE",
"70 584 OFFCURVE",
"38 359 CURVE SMOOTH",
"8 141 OFFCURVE",
"122 -10 OFFCURVE",
"327 -10 CURVE SMOOTH"
);
}
);
width = 753;
},
{
anchors = (
{
name = bottom;
position = "{328, 0}";
},
{
name = top;
position = "{425, 723}";
}
);
background = {
anchors = (
{
name = bottom;
position = "{441, 0}";
},
{
name = top;
position = "{436, 742}";
}
);
paths = (
{
closed = 1;
nodes = (
"546 -10 OFFCURVE",
"619 45 OFFCURVE",
"658 115 CURVE SMOOTH",
"662 122 OFFCURVE",
"666 121 OFFCURVE",
"666 115 CURVE SMOOTH",
"666 9 LINE SMOOTH",
"666 0 OFFCURVE",
"671 0 OFFCURVE",
"679 0 CURVE SMOOTH",
"696 0 LINE SMOOTH",
"703 0 OFFCURVE",
"706 2 OFFCURVE",
"706 11 CURVE SMOOTH",
"706 371 LINE SMOOTH",
"706 375 OFFCURVE",
"704 377 OFFCURVE",
"700 377 CURVE SMOOTH",
"464 377 LINE SMOOTH",
"461 377 OFFCURVE",
"459 375 OFFCURVE",
"459 371 CURVE SMOOTH",
"459 348 LINE SMOOTH",
"459 344 OFFCURVE",
"461 342 OFFCURVE",
"466 342 CURVE SMOOTH",
"655 342 LINE SMOOTH",
"661 342 OFFCURVE",
"666 341 OFFCURVE",
"666 334 CURVE SMOOTH",
"666 255 LINE SMOOTH",
"666 161 OFFCURVE",
"594 32 OFFCURVE",
"436 32 CURVE SMOOTH",
"273 32 OFFCURVE",
"188 153 OFFCURVE",
"188 374 CURVE SMOOTH",
"188 584 OFFCURVE",
"275 710 OFFCURVE",
"436 710 CURVE SMOOTH",
"542 710 OFFCURVE",
"627 640 OFFCURVE",
"643 551 CURVE SMOOTH",
"644 546 OFFCURVE",
"647 544 OFFCURVE",
"650 545 CURVE SMOOTH",
"685 551 LINE SMOOTH",
"690 552 OFFCURVE",
"690 555 OFFCURVE",
"690 559 CURVE SMOOTH",
"678 663 OFFCURVE",
"559 752 OFFCURVE",
"436 752 CURVE SMOOTH",
"255 752 OFFCURVE",
"140 614 OFFCURVE",
"140 368 CURVE SMOOTH",
"140 129 OFFCURVE",
"250 -10 OFFCURVE",
"435 -10 CURVE SMOOTH"
);
}
);
};
layerId = "91AB5BCA-6A50-42DA-B2F7-8181BF189245";
paths = (
{
closed = 1;
nodes = (
"433 -10 OFFCURVE",
"515 50 OFFCURVE",
"565 126 CURVE",
"548 0 LINE",
"587 0 LINE",
"638 367 LINE",
"398 367 LINE",
"393 333 LINE",
"594 333 LINE",
"583 248 LINE SMOOTH",
"569 157 OFFCURVE",
"481 29 OFFCURVE",
"327 29 CURVE SMOOTH",
"169 29 OFFCURVE",
"96 149 OFFCURVE",
"127 364 CURVE SMOOTH",
"156 569 OFFCURVE",
"264 692 OFFCURVE",
"421 692 CURVE SMOOTH",
"525 692 OFFCURVE",
"597 621 OFFCURVE",
"600 530 CURVE",
"647 538 LINE",
"650 643 OFFCURVE",
"546 733 OFFCURVE",
"426 733 CURVE SMOOTH",
"249 733 OFFCURVE",
"119 598 OFFCURVE",
"85 359 CURVE SMOOTH",
"53 126 OFFCURVE",
"140 -10 OFFCURVE",
"321 -10 CURVE SMOOTH"
);
}
);
width = 714;
}
);
leftKerningGroup = O;
rightKerningGroup = G;
unicode = 0047;
},
{
glyphname = H;
lastChange = "2017-12-17 19:32:49 +0000";
layers = (
{
anchors = (
{
name = bottom;
position = "{326, 0}";
},
{
name = top;
position = "{430, 723}";
}
);
background = {
anchors = (
{
name = bottom;
position = "{439, 0}";
},
{
name = top;
position = "{441, 742}";
}
);
paths = (
{
closed = 1;
nodes = (
"538 297 OFFCURVE",
"544 290 OFFCURVE",
"544 282 CURVE SMOOTH",
"544 29 LINE SMOOTH",
"544 8 OFFCURVE",
"554 0 OFFCURVE",
"577 0 CURVE SMOOTH",
"744 0 LINE SMOOTH",
"765 0 OFFCURVE",
"771 8 OFFCURVE",
"771 25 CURVE SMOOTH",
"771 719 LINE SMOOTH",
"771 734 OFFCURVE",
"763 742 OFFCURVE",
"752 742 CURVE SMOOTH",
"562 742 LINE SMOOTH",
"551 742 OFFCURVE",
"544 734 OFFCURVE",
"544 721 CURVE SMOOTH",
"544 489 LINE SMOOTH",
"544 476 OFFCURVE",
"537 469 OFFCURVE",
"526 469 CURVE SMOOTH",
"358 469 LINE SMOOTH",
"347 469 OFFCURVE",
"340 476 OFFCURVE",
"340 489 CURVE SMOOTH",
"340 721 LINE SMOOTH",
"340 734 OFFCURVE",
"333 742 OFFCURVE",
"322 742 CURVE SMOOTH",
"132 742 LINE SMOOTH",
"121 742 OFFCURVE",
"113 734 OFFCURVE",
"113 719 CURVE SMOOTH",
"113 25 LINE SMOOTH",
"113 8 OFFCURVE",
"119 0 OFFCURVE",
"140 0 CURVE SMOOTH",
"307 0 LINE SMOOTH",
"330 0 OFFCURVE",
"340 8 OFFCURVE",
"340 29 CURVE SMOOTH",
"340 282 LINE SMOOTH",
"340 290 OFFCURVE",
"346 297 OFFCURVE",
"356 297 CURVE SMOOTH",
"528 297 LINE SMOOTH"
);
}
);
};
layerId = "258ED206-D907-4350-8EBA-CBDDA1C16BF7";
paths = (
{
closed = 1;
nodes = (
"440 0 LINE",
"635 0 LINE",
"737 723 LINE",
"542 723 LINE",
"504 449 LINE",
"285 449 LINE",
"323 723 LINE",
"129 723 LINE",
"27 0 LINE",
"222 0 LINE",
"262 289 LINE",
"480 289 LINE"
);
}
);
width = 735;
},
{
anchors = (
{
name = bottom;
position = "{317, 0}";
},
{
name = top;
position = "{418, 723}";
}
);
background = {
anchors = (
{
name = bottom;
position = "{429, 0}";
},
{
name = top;
position = "{429, 742}";
}
);
paths = (
{
closed = 1;
nodes = (
"629 366 OFFCURVE",
"631 364 OFFCURVE",
"631 359 CURVE SMOOTH",
"631 9 LINE SMOOTH",
"631 2 OFFCURVE",
"634 0 OFFCURVE",
"641 0 CURVE SMOOTH",
"668 0 LINE SMOOTH",
"674 0 OFFCURVE",
"677 3 OFFCURVE",
"677 10 CURVE SMOOTH",
"677 732 LINE SMOOTH",
"677 740 OFFCURVE",
"675 742 OFFCURVE",
"668 742 CURVE SMOOTH",
"639 742 LINE SMOOTH",
"633 742 OFFCURVE",
"631 739 OFFCURVE",
"631 733 CURVE SMOOTH",
"631 414 LINE SMOOTH",
"631 408 OFFCURVE",
"629 406 OFFCURVE",
"623 406 CURVE SMOOTH",
"235 406 LINE SMOOTH",
"228 406 OFFCURVE",
"226 407 OFFCURVE",
"226 415 CURVE SMOOTH",
"226 732 LINE SMOOTH",
"226 740 OFFCURVE",
"224 742 OFFCURVE",
"217 742 CURVE SMOOTH",
"189 742 LINE SMOOTH",
"182 742 OFFCURVE",
"180 740 OFFCURVE",
"180 732 CURVE SMOOTH",
"180 10 LINE SMOOTH",
"180 3 OFFCURVE",
"182 0 OFFCURVE",
"189 0 CURVE SMOOTH",
"216 0 LINE SMOOTH",
"223 0 OFFCURVE",
"226 3 OFFCURVE",
"226 9 CURVE SMOOTH",
"226 360 LINE SMOOTH",
"226 363 OFFCURVE",
"228 366 OFFCURVE",
"232 366 CURVE SMOOTH",
"624 366 LINE SMOOTH"
);
}
);
};
layerId = "91AB5BCA-6A50-42DA-B2F7-8181BF189245";
paths = (
{
closed = 1;
nodes = (
"515 0 LINE",
"554 0 LINE",
"656 723 LINE",
"617 723 LINE",
"571 397 LINE",
"172 397 LINE",
"218 723 LINE",
"179 723 LINE",
"78 0 LINE",
"117 0 LINE",
"167 356 LINE",
"565 356 LINE"
);
}
);
width = 704;
}
);
leftMetricsKey = N;
rightMetricsKey = N;
unicode = 0048;
},
{
glyphname = Hbar;
lastChange = "2017-12-17 19:32:49 +0000";
layers = (
{
background = {
components = (
{
name = H;
transform = "{1, 0, 0, 1, -7, 0}";
}
);
paths = (
{
closed = 1;
nodes = (
"857 645 OFFCURVE",
"849 658 OFFCURVE",
"839 658 CURVE SMOOTH",
"72 658 LINE SMOOTH",
"62 658 OFFCURVE",
"60 657 OFFCURVE",
"58 644 CURVE SMOOTH",
"50 583 LINE SMOOTH",
"48 568 OFFCURVE",
"55 555 OFFCURVE",
"72 555 CURVE SMOOTH",
"820 555 LINE SMOOTH",
"840 555 OFFCURVE",
"845 556 OFFCURVE",
"847 573 CURVE SMOOTH",
"856 634 LINE SMOOTH"
);
}
);
};
components = (
{
name = H;
transform = "{1, 0, 0, 1, -7, 0}";
}
);
layerId = "258ED206-D907-4350-8EBA-CBDDA1C16BF7";
paths = (
{
closed = 1;
nodes = (
"58 641 LINE",
"45 541 LINE",
"822 541 LINE",
"838 641 LINE"
);
}
);
width = 799;
},
{
background = {
components = (
{
name = H;
transform = "{1, 0, 0, 1, -44, 0}";
}
);
paths = (
{
closed = 1;
nodes = (
"745 614 OFFCURVE",
"743 618 OFFCURVE",
"738 618 CURVE SMOOTH",
"55 618 LINE SMOOTH",
"50 618 OFFCURVE",
"48 616 OFFCURVE",
"47 610 CURVE SMOOTH",
"45 589 LINE SMOOTH",
"44 582 OFFCURVE",
"46 578 OFFCURVE",
"54 578 CURVE SMOOTH",
"728 578 LINE SMOOTH",
"737 578 OFFCURVE",
"740 580 OFFCURVE",
"741 588 CURVE SMOOTH",
"744 609 LINE SMOOTH"
);
}
);
};
components = (
{
name = H;
transform = "{1, 0, 0, 1, -44, 0}";
}
);
layerId = "91AB5BCA-6A50-42DA-B2F7-8181BF189245";
paths = (
{
closed = 1;
nodes = (
"52 602 LINE",
"48 563 LINE",
"726 563 LINE",
"731 602 LINE"
);
}
);
width = 686;
}
);
unicode = 0126;
},
{
glyphname = I;
lastChange = "2017-12-17 19:32:49 +0000";
layers = (
{
anchors = (
{
name = bottom;
position = "{134, 0}";
},
{
name = ogonek;
position = "{198, 3}";
},
{
name = top;
position = "{226, 723}";
}
);
background = {
anchors = (
{
name = bottom;
position = "{245, 0}";
},
{
name = ogonek;
position = "{327, 10}";
},
{
name = top;
position = "{246, 742}";
}
);
paths = (
{
closed = 1;
nodes = (
"140 742 OFFCURVE",
"132 734 OFFCURVE",
"132 719 CURVE SMOOTH",
"132 25 LINE SMOOTH",
"132 8 OFFCURVE",
"138 0 OFFCURVE",
"159 0 CURVE SMOOTH",
"326 0 LINE SMOOTH",
"349 0 OFFCURVE",
"359 8 OFFCURVE",
"359 29 CURVE SMOOTH",
"359 721 LINE SMOOTH",
"359 734 OFFCURVE",
"353 742 OFFCURVE",
"341 742 CURVE SMOOTH",
"151 742 LINE SMOOTH"
);
}
);
};
layerId = "258ED206-D907-4350-8EBA-CBDDA1C16BF7";
paths = (
{
closed = 1;
nodes = (
"27 0 LINE",
"222 0 LINE",
"323 723 LINE",
"129 723 LINE"
);
}
);
width = 322;
},
{
anchors = (
{
name = bottom;
position = "{104, 0}";
},
{
name = ogonek;
position = "{117, 10}";
},
{
name = top;
position = "{209, 723}";
}
);
background = {
anchors = (
{
name = bottom;
position = "{211, 0}";
},
{
name = ogonek;
position = "{223, 10}";
},
{
name = top;
position = "{214, 742}";
}
);
paths = (
{
closed = 1;
nodes = (
"190 742 OFFCURVE",
"188 740 OFFCURVE",
"188 732 CURVE SMOOTH",
"188 10 LINE SMOOTH",
"188 2 OFFCURVE",
"190 0 OFFCURVE",
"199 0 CURVE SMOOTH",
"222 0 LINE SMOOTH",
"232 0 OFFCURVE",
"234 2 OFFCURVE",
"234 12 CURVE SMOOTH",
"234 732 LINE SMOOTH",
"234 740 OFFCURVE",
"232 742 OFFCURVE",
"225 742 CURVE SMOOTH",
"197 742 LINE SMOOTH"
);
}
);
};
layerId = "91AB5BCA-6A50-42DA-B2F7-8181BF189245";
paths = (
{
closed = 1;
nodes = (
"84 0 LINE",
"123 0 LINE",
"224 723 LINE",
"185 723 LINE"
);
}
);
width = 279;
}
);
unicode = 0049;
},
{
glyphname = J;
lastChange = "2017-12-17 19:32:49 +0000";
layers = (
{
anchors = (
{
name = top;
position = "{283, 723}";
}
);
background = {
anchors = (
{
name = top;
position = "{290, 742}";
}
);
paths = (
{
closed = 1;
nodes = (
"467 721 LINE SMOOTH",
"467 734 OFFCURVE",
"461 742 OFFCURVE",
"449 742 CURVE SMOOTH",
"260 742 LINE SMOOTH",
"248 742 OFFCURVE",
"240 734 OFFCURVE",
"240 719 CURVE SMOOTH",
"240 268 LINE SMOOTH",
"240 200 OFFCURVE",
"211 175 OFFCURVE",
"162 175 CURVE SMOOTH",
"140 175 OFFCURVE",
"123 180 OFFCURVE",
"107 182 CURVE SMOOTH",
"91 184 OFFCURVE",
"84 174 OFFCURVE",
"83 159 CURVE SMOOTH",
"74 45 LINE SMOOTH",
"72 17 OFFCURVE",
"82 6 OFFCURVE",
"105 2 CURVE SMOOTH",
"150 -6 OFFCURVE",
"188 -10 OFFCURVE",
"229 -10 CURVE SMOOTH",
"385 -10 OFFCURVE",
"467 48 OFFCURVE",
"467 212 CURVE SMOOTH"
);
}
);
};
layerId = "258ED206-D907-4350-8EBA-CBDDA1C16BF7";
paths = (
{
closed = 1;
nodes = (
"429 723 LINE",
"234 723 LINE",
"171 279 LINE SMOOTH",
"161 204 OFFCURVE",
"139 170 OFFCURVE",
"70 170 CURVE SMOOTH",
"50 170 OFFCURVE",
"25 172 OFFCURVE",
"8 174 CURVE",
"-17 0 LINE",
"12 -6 OFFCURVE",
"71 -10 OFFCURVE",
"112 -10 CURVE SMOOTH",
"286 -10 OFFCURVE",
"337 69 OFFCURVE",
"360 229 CURVE SMOOTH"
);
}
);
width = 427;
},
{
anchors = (
{
name = top;
position = "{302, 723}";
}
);
background = {
anchors = (
{
name = top;
position = "{310, 742}";
}
);
paths = (
{
closed = 1;
nodes = (
"333 732 LINE SMOOTH",
"333 739 OFFCURVE",
"331 742 OFFCURVE",
"325 742 CURVE SMOOTH",
"295 742 LINE SMOOTH",
"289 742 OFFCURVE",
"287 739 OFFCURVE",
"287 733 CURVE SMOOTH",
"287 154 LINE SMOOTH",
"287 61 OFFCURVE",
"265 34 OFFCURVE",
"200 34 CURVE SMOOTH",
"151 34 OFFCURVE",
"129 49 OFFCURVE",
"108 59 CURVE SMOOTH",
"104 61 OFFCURVE",
"101 60 OFFCURVE",
"100 55 CURVE SMOOTH",
"91 24 LINE SMOOTH",
"90 20 OFFCURVE",
"92 17 OFFCURVE",
"95 15 CURVE SMOOTH",
"102 10 OFFCURVE",
"147 -10 OFFCURVE",
"202 -10 CURVE SMOOTH",
"299 -10 OFFCURVE",
"333 49 OFFCURVE",
"333 144 CURVE SMOOTH"
);
}
);
};
layerId = "91AB5BCA-6A50-42DA-B2F7-8181BF189245";
paths = (
{
closed = 1;
nodes = (
"320 723 LINE",
"281 723 LINE",
"201 154 LINE SMOOTH",
"188 63 OFFCURVE",
"161 31 OFFCURVE",
"97 31 CURVE SMOOTH",
"47 31 OFFCURVE",
"24 52 OFFCURVE",
"5 62 CURVE",
"-12 19 LINE",
"-5 13 OFFCURVE",
"37 -10 OFFCURVE",
"94 -10 CURVE SMOOTH",
"188 -10 OFFCURVE",
"225 48 OFFCURVE",
"238 140 CURVE SMOOTH"
);
}
);
width = 355;
}
);
leftKerningGroup = J;
unicode = 004A;
},
{
glyphname = K;
lastChange = "2017-12-17 19:32:49 +0000";
layers = (
{
anchors = (
{
name = bottom;
position = "{319, 0}";
},
{
name = top;
position = "{420, 723}";
}
);
background = {
anchors = (
{
name = bottom;
position = "{431, 0}";
},
{
name = top;
position = "{431, 742}";
}
);
paths = (
{
closed = 1;
nodes = (
"587 480 LINE SMOOTH",
"581 494 OFFCURVE",
"582 501 OFFCURVE",
"590 512 CURVE SMOOTH",
"754 713 LINE SMOOTH",
"767 728 OFFCURVE",
"755 742 OFFCURVE",
"733 742 CURVE SMOOTH",
"581 742 LINE SMOOTH",
"557 742 OFFCURVE",
"549 736 OFFCURVE",
"538 721 CURVE SMOOTH",
"354 463 LINE",
"346 453 OFFCURVE",
"339 452 OFFCURVE",
"339 468 CURVE SMOOTH",
"339 721 LINE SMOOTH",
"339 734 OFFCURVE",
"333 742 OFFCURVE",
"321 742 CURVE SMOOTH",
"131 742 LINE SMOOTH",
"120 742 OFFCURVE",
"112 734 OFFCURVE",
"112 719 CURVE SMOOTH",
"112 25 LINE SMOOTH",
"112 8 OFFCURVE",
"118 0 OFFCURVE",
"139 0 CURVE SMOOTH",
"306 0 LINE SMOOTH",
"329 0 OFFCURVE",
"339 8 OFFCURVE",
"339 29 CURVE SMOOTH",
"339 180 LINE SMOOTH",
"339 190 OFFCURVE",
"340 196 OFFCURVE",
"345 202 CURVE SMOOTH",
"416 293 LINE SMOOTH",
"426 306 OFFCURVE",
"432 308 OFFCURVE",
"438 298 CURVE SMOOTH",
"560 20 LINE SMOOTH",
"567 5 OFFCURVE",
"579 0 OFFCURVE",
"596 0 CURVE SMOOTH",
"791 0 LINE SMOOTH",
"811 0 OFFCURVE",
"813 15 OFFCURVE",
"805 31 CURVE SMOOTH"
);
}
);
};
guideLines = (
{
angle = 54.4985;
position = "{739, 704}";
},
{
angle = -62.8805;
position = "{294, 297}";
}
);
hints = (
{
horizontal = 1;
origin = "{0, 6}";
target = up;
type = BottomGhost;
},
{
horizontal = 1;
origin = "{0, 5}";
target = down;
type = TopGhost;
},
{
place = "{-148, -1}";
}
);
layerId = "258ED206-D907-4350-8EBA-CBDDA1C16BF7";
paths = (
{
closed = 1;
nodes = (
"520 446 LINE",
"758 723 LINE",
"539 723 LINE",
"289 431 LINE",
"330 723 LINE",
"129 723 LINE",
"27 0 LINE",
"229 0 LINE",
"255 189 LINE",
"361 305 LINE",
"479 0 LINE",
"689 0 LINE"
);
}
);
width = 739;
},
{
anchors = (
{
name = bottom;
position = "{299, 0}";
},
{
name = top;
position = "{430, 723}";
}
);
background = {
anchors = (
{
name = bottom;
position = "{413, 0}";
},
{
name = top;
position = "{443, 742}";
}
);
paths = (
{
closed = 1;
nodes = (
"413 445 LINE SMOOTH",
"411 449 OFFCURVE",
"411 449 OFFCURVE",
"413 451 CURVE SMOOTH",
"672 734 LINE SMOOTH",
"676 738 OFFCURVE",
"675 742 OFFCURVE",
"669 742 CURVE SMOOTH",
"631 742 LINE SMOOTH",
"625 742 OFFCURVE",
"623 741 OFFCURVE",
"620 738 CURVE SMOOTH",
"237 322 LINE SMOOTH",
"232 317 OFFCURVE",
"230 317 OFFCURVE",
"230 323 CURVE SMOOTH",
"230 734 LINE SMOOTH",
"230 740 OFFCURVE",
"227 742 OFFCURVE",
"222 742 CURVE SMOOTH",
"192 742 LINE SMOOTH",
"186 742 OFFCURVE",
"184 739 OFFCURVE",
"184 734 CURVE SMOOTH",
"184 9 LINE SMOOTH",
"184 2 OFFCURVE",
"187 0 OFFCURVE",
"194 0 CURVE SMOOTH",
"220 0 LINE SMOOTH",
"227 0 OFFCURVE",
"230 3 OFFCURVE",
"230 9 CURVE SMOOTH",
"230 246 LINE SMOOTH",
"230 254 OFFCURVE",
"232 257 OFFCURVE",
"238 263 CURVE SMOOTH",
"370 409 LINE SMOOTH",
"375 414 OFFCURVE",
"378 415 OFFCURVE",
"382 409 CURVE SMOOTH",
"640 5 LINE SMOOTH",
"642 2 OFFCURVE",
"646 0 OFFCURVE",
"651 0 CURVE SMOOTH",
"690 0 LINE SMOOTH",
"694 0 OFFCURVE",
"696 3 OFFCURVE",
"693 7 CURVE SMOOTH"
);
}
);
};
guideLines = (
{
angle = 116.4117;
position = "{491, 0}";
},
{
angle = 223.3115;
position = "{664, 726}";
}
);
layerId = "91AB5BCA-6A50-42DA-B2F7-8181BF189245";
paths = (
{
closed = 1;
nodes = (
"357 436 LINE",
"661 723 LINE",
"604 723 LINE",
"162 306 LINE",
"220 723 LINE",
"179 723 LINE",
"78 0 LINE",
"119 0 LINE",
"153 244 LINE",
"322 404 LINE",
"523 0 LINE",
"574 0 LINE"
);
}
);
width = 647;
}
);
leftMetricsKey = N;
rightKerningGroup = K;
unicode = 004B;
},
{
glyphname = L;
lastChange = "2017-12-17 19:32:49 +0000";
layers = (
{
anchors = (
{
name = bottom;
position = "{266, 0}";
},
{
name = top;
position = "{215, 723}";
},
{
name = topright;
position = "{549, 723}";
}
);
background = {
anchors = (
{
name = bottom;
position = "{377, 0}";
},
{
name = top;
position = "{231, 742}";
},
{
name = topright;
position = "{573, 742}";
}
);
paths = (
{
closed = 1;
nodes = (
"115 25 LINE SMOOTH",
"115 8 OFFCURVE",
"121 0 OFFCURVE",
"142 0 CURVE SMOOTH",
"653 0 LINE SMOOTH",
"670 0 OFFCURVE",
"678 10 OFFCURVE",
"678 22 CURVE SMOOTH",
"678 145 LINE SMOOTH",
"678 159 OFFCURVE",
"669 164 OFFCURVE",
"655 164 CURVE SMOOTH",
"354 164 LINE SMOOTH",
"345 164 OFFCURVE",
"342 167 OFFCURVE",
"342 178 CURVE SMOOTH",
"342 721 LINE SMOOTH",
"342 734 OFFCURVE",
"336 742 OFFCURVE",
"324 742 CURVE SMOOTH",
"134 742 LINE SMOOTH",
"123 742 OFFCURVE",
"115 734 OFFCURVE",
"115 719 CURVE SMOOTH"
);
}
);
};
layerId = "258ED206-D907-4350-8EBA-CBDDA1C16BF7";
paths = (
{
closed = 1;
nodes = (
"27 0 LINE",
"511 0 LINE",
"533 160 LINE",
"245 160 LINE",
"323 723 LINE",
"129 723 LINE"
);
}
);
width = 566;
},
{
anchors = (
{
name = bottom;
position = "{278, 0}";
},
{
name = top;
position = "{204, 723}";
},
{
name = topright;
position = "{478, 723}";
}
);
background = {
anchors = (
{
name = bottom;
position = "{389, 0}";
},
{
name = top;
position = "{207, 742}";
},
{
name = topright;
position = "{493, 742}";
}
);
paths = (
{
closed = 1;
nodes = (
"184 10 LINE SMOOTH",
"184 3 OFFCURVE",
"186 0 OFFCURVE",
"193 0 CURVE",
"603 0 LINE",
"608 0 OFFCURVE",
"610 2 OFFCURVE",
"610 7 CURVE SMOOTH",
"610 33 LINE SMOOTH",
"610 39 OFFCURVE",
"608 40 OFFCURVE",
"602 40 CURVE SMOOTH",
"239 40 LINE SMOOTH",
"232 40 OFFCURVE",
"230 41 OFFCURVE",
"230 49 CURVE SMOOTH",
"230 732 LINE SMOOTH",
"230 740 OFFCURVE",
"228 742 OFFCURVE",
"221 742 CURVE SMOOTH",
"193 742 LINE SMOOTH",
"186 742 OFFCURVE",
"184 740 OFFCURVE",
"184 732 CURVE SMOOTH"
);
}
);
};
layerId = "91AB5BCA-6A50-42DA-B2F7-8181BF189245";
paths = (
{
closed = 1;
nodes = (
"78 0 LINE",
"489 0 LINE",
"495 43 LINE",
"127 43 LINE",
"222 723 LINE",
"179 723 LINE"
);
}
);
width = 557;
}
);
leftMetricsKey = N;
rightKerningGroup = L;
unicode = 004C;
},
{
glyphname = Lslash;
lastChange = "2017-12-17 19:32:49 +0000";
layers = (
{
background = {
components = (
{
name = L;
transform = "{1, 0, 0, 1, -2, 0}";
}
);
paths = (
{
closed = 1;
nodes = (
"483 544 OFFCURVE",
"474 558 OFFCURVE",
"457 554 CURVE SMOOTH",
"36 445 LINE SMOOTH",
"24 442 OFFCURVE",
"21 442 OFFCURVE",
"19 427 CURVE SMOOTH",
"2 307 LINE SMOOTH",
"0 290 OFFCURVE",
"7 275 OFFCURVE",
"28 281 CURVE SMOOTH",
"446 395 LINE SMOOTH",
"461 399 OFFCURVE",
"463 403 OFFCURVE",
"465 415 CURVE SMOOTH",
"481 528 LINE SMOOTH"
);
}
);
};
components = (
{
name = L;
transform = "{1, 0, 0, 1, -2, 0}";
}
);
layerId = "258ED206-D907-4350-8EBA-CBDDA1C16BF7";
paths = (
{
closed = 1;
nodes = (
"20 430 LINE",
"-3 266 LINE",
"451 390 LINE",
"474 547 LINE"
);
}
);
width = 564;
},
{
background = {
components = (
{
name = L;
transform = "{1, 0, 0, 1, -44, 0}";
}
);
paths = (
{
closed = 1;
nodes = (
"344 435 OFFCURVE",
"341 438 OFFCURVE",
"336 437 CURVE SMOOTH",
"44 365 LINE SMOOTH",
"41 364 OFFCURVE",
"40 362 OFFCURVE",
"39 357 CURVE SMOOTH",
"36 333 LINE SMOOTH",
"35 328 OFFCURVE",
"38 326 OFFCURVE",
"43 327 CURVE SMOOTH",
"334 400 LINE SMOOTH",
"338 401 OFFCURVE",
"339 403 OFFCURVE",
"340 407 CURVE SMOOTH",
"343 431 LINE SMOOTH"
);
}
);
};
components = (
{
name = L;
transform = "{1, 0, 0, 1, -44, 0}";
}
);
layerId = "91AB5BCA-6A50-42DA-B2F7-8181BF189245";
paths = (
{
closed = 1;
nodes = (
"44 355 LINE",
"39 317 LINE",
"335 391 LINE",
"340 428 LINE"
);
}
);
width = 514;
}
);
rightMetricsKey = L;
unicode = 0141;
},
{
glyphname = M;
lastChange = "2017-12-17 19:32:49 +0000";
layers = (
{
background = {
paths = (
{
closed = 1;
nodes = (
"286 0 LINE SMOOTH",
"304 0 OFFCURVE",
"308 4 OFFCURVE",
"308 22 CURVE SMOOTH",
"308 464 LINE SMOOTH",
"308 477 OFFCURVE",
"315 481 OFFCURVE",
"320 465 CURVE SMOOTH",
"464 18 LINE SMOOTH",
"468 6 OFFCURVE",
"476 0 OFFCURVE",
"488 0 CURVE SMOOTH",
"593 0 LINE SMOOTH",
"604 0 OFFCURVE",
"613 7 OFFCURVE",
"617 18 CURVE SMOOTH",
"761 473 LINE SMOOTH",
"765 485 OFFCURVE",
"773 485 OFFCURVE",
"773 474 CURVE SMOOTH",
"773 25 LINE SMOOTH",
"773 8 OFFCURVE",
"779 0 OFFCURVE",
"799 0 CURVE SMOOTH",
"968 0 LINE SMOOTH",
"991 0 OFFCURVE",
"1000 8 OFFCURVE",
"1000 29 CURVE SMOOTH",
"1000 721 LINE SMOOTH",
"1000 734 OFFCURVE",
"994 742 OFFCURVE",
"982 742 CURVE SMOOTH",
"693 742 LINE SMOOTH",
"679 742 OFFCURVE",
"671 731 OFFCURVE",
"666 713 CURVE SMOOTH",
"573 406 LINE SMOOTH",
"570 397 OFFCURVE",
"564 395 OFFCURVE",
"560 406 CURVE SMOOTH",
"456 724 LINE SMOOTH",
"451 738 OFFCURVE",
"445 742 OFFCURVE",
"428 742 CURVE SMOOTH",
"148 742 LINE SMOOTH",
"133 742 OFFCURVE",
"127 735 OFFCURVE",
"127 719 CURVE SMOOTH",
"127 28 LINE SMOOTH",
"127 11 OFFCURVE",
"137 0 OFFCURVE",
"153 0 CURVE SMOOTH"
);
}
);
};
guideLines = (
{
angle = -105;
position = "{400, 274}";
},
{
angle = 105;
position = "{400, 274}";
}
);
layerId = "258ED206-D907-4350-8EBA-CBDDA1C16BF7";
paths = (
{
closed = 1;
nodes = (
"222 0 LINE",
"295 523 LINE",
"362 0 LINE",
"503 0 LINE",
"716 523 LINE",
"643 0 LINE",
"838 0 LINE",
"939 723 LINE",
"652 723 LINE",
"472 282 LINE",
"417 723 LINE",
"129 723 LINE",
"27 0 LINE"
);
}
);
width = 937;
},
{
background = {
guideLines = (
{
position = "{109, 566}";
showMeasurement = 1;
}
);
paths = (
{
closed = 1;
nodes = (
"214 0 LINE SMOOTH",
"221 0 OFFCURVE",
"224 3 OFFCURVE",
"224 9 CURVE SMOOTH",
"224 622 LINE SMOOTH",
"224 626 OFFCURVE",
"226 625 OFFCURVE",
"227 622 CURVE SMOOTH",
"471 10 LINE SMOOTH",
"474 3 OFFCURVE",
"479 0 OFFCURVE",
"490 0 CURVE SMOOTH",
"517 0 LINE SMOOTH",
"526 0 OFFCURVE",
"530 3 OFFCURVE",
"533 11 CURVE SMOOTH",
"782 627 LINE SMOOTH",
"783 630 OFFCURVE",
"785 632 OFFCURVE",
"785 627 CURVE SMOOTH",
"785 9 LINE SMOOTH",
"785 2 OFFCURVE",
"788 0 OFFCURVE",
"795 0 CURVE SMOOTH",
"822 0 LINE SMOOTH",
"828 0 OFFCURVE",
"831 3 OFFCURVE",
"831 10 CURVE SMOOTH",
"831 732 LINE SMOOTH",
"831 740 OFFCURVE",
"829 742 OFFCURVE",
"822 742 CURVE SMOOTH",
"793 742 LINE SMOOTH",
"787 742 OFFCURVE",
"784 740 OFFCURVE",
"782 735 CURVE SMOOTH",
"511 65 LINE SMOOTH",
"505 51 OFFCURVE",
"500 51 OFFCURVE",
"495 64 CURVE SMOOTH",
"228 734 LINE",
"226 740 OFFCURVE",
"223 742 OFFCURVE",
"215 742 CURVE SMOOTH",
"189 742 LINE SMOOTH",
"182 742 OFFCURVE",
"180 740 OFFCURVE",
"180 732 CURVE SMOOTH",
"180 10 LINE SMOOTH",
"180 3 OFFCURVE",
"182 0 OFFCURVE",
"189 0 CURVE SMOOTH"
);
}
);
};
guideLines = (
{
position = "{150, 523}";
showMeasurement = 1;
},
{
angle = 68.255;
position = "{298, 0}";
}
);
layerId = "91AB5BCA-6A50-42DA-B2F7-8181BF189245";
paths = (
{
closed = 1;
nodes = (
"121 0 LINE",
"206 608 LINE",
"363 0 LINE",
"422 0 LINE",
"754 616 LINE",
"667 0 LINE",
"710 0 LINE",
"812 723 LINE",
"769 723 LINE",
"398 44 LINE",
"223 723 LINE",
"179 723 LINE",
"78 0 LINE"
);
}
);
width = 860;
}
);
leftMetricsKey = N;
rightMetricsKey = N;
unicode = 004D;
},
{
glyphname = N;
lastChange = "2017-12-17 19:32:49 +0000";
layers = (
{
anchors = (
{
name = bottom;
position = "{362, 0}";
},
{
name = top;
position = "{464, 723}";
}
);
background = {
anchors = (
{
name = bottom;
position = "{476, 0}";
},
{
name = top;
position = "{476, 742}";
}
);
paths = (
{
closed = 1;
nodes = (
"629 742 OFFCURVE",
"622 734 OFFCURVE",
"622 721 CURVE SMOOTH",
"622 394 LINE SMOOTH",
"622 378 OFFCURVE",
"615 378 OFFCURVE",
"606 390 CURVE SMOOTH",
"366 724 LINE SMOOTH",
"355 739 OFFCURVE",
"349 742 OFFCURVE",
"332 742 CURVE SMOOTH",
"169 742 LINE SMOOTH",
"154 742 OFFCURVE",
"147 735 OFFCURVE",
"147 719 CURVE SMOOTH",
"147 20 LINE SMOOTH",
"147 5 OFFCURVE",
"157 0 OFFCURVE",
"172 0 CURVE SMOOTH",
"308 0 LINE SMOOTH",
"326 0 OFFCURVE",
"333 6 OFFCURVE",
"332 22 CURVE SMOOTH",
"332 386 LINE SMOOTH",
"332 393 OFFCURVE",
"337 395 OFFCURVE",
"342 388 CURVE SMOOTH",
"617 15 LINE SMOOTH",
"627 2 OFFCURVE",
"633 0 OFFCURVE",
"644 0 CURVE SMOOTH",
"781 0 LINE SMOOTH",
"794 0 OFFCURVE",
"804 7 OFFCURVE",
"804 18 CURVE SMOOTH",
"804 725 LINE SMOOTH",
"804 736 OFFCURVE",
"799 742 OFFCURVE",
"789 742 CURVE SMOOTH",
"644 742 LINE SMOOTH"
);
}
);
};
guideLines = (
{
angle = 125.0467;
position = "{480, 311}";
}
);
layerId = "258ED206-D907-4350-8EBA-CBDDA1C16BF7";
paths = (
{
closed = 1;
nodes = (
"550 320 LINE",
"324 723 LINE",
"129 723 LINE",
"27 0 LINE",
"222 0 LINE",
"283 431 LINE",
"523 0 LINE",
"700 0 LINE",
"801 723 LINE",
"606 723 LINE"
);
}
);
width = 799;
},
{
anchors = (
{
name = bottom;
position = "{307, 0}";
},
{
name = top;
position = "{446, 723}";
}
);
background = {
anchors = (
{
name = bottom;
position = "{425, 0}";
},
{
name = top;
position = "{460, 742}";
}
);
guideLines = (
{
position = "{114, 576}";
showMeasurement = 1;
}
);
paths = (
{
closed = 1;
nodes = (
"665 742 OFFCURVE",
"663 739 OFFCURVE",
"663 733 CURVE SMOOTH",
"663 107 LINE SMOOTH",
"663 101 OFFCURVE",
"656 95 OFFCURVE",
"649 105 CURVE SMOOTH",
"222 735 LINE SMOOTH",
"218 741 OFFCURVE",
"215 742 OFFCURVE",
"207 742 CURVE SMOOTH",
"189 742 LINE",
"182 742 OFFCURVE",
"180 740 OFFCURVE",
"180 732 CURVE SMOOTH",
"180 10 LINE SMOOTH",
"180 3 OFFCURVE",
"182 0 OFFCURVE",
"189 0 CURVE SMOOTH",
"214 0 LINE SMOOTH",
"221 0 OFFCURVE",
"224 3 OFFCURVE",
"224 9 CURVE SMOOTH",
"224 637 LINE SMOOTH",
"224 645 OFFCURVE",
"229 647 OFFCURVE",
"236 637 CURVE SMOOTH",
"664 6 LINE SMOOTH",
"669 -1 OFFCURVE",
"675 0 OFFCURVE",
"683 0 CURVE SMOOTH",
"698 0 LINE SMOOTH",
"704 0 OFFCURVE",
"707 3 OFFCURVE",
"707 10 CURVE SMOOTH",
"707 732 LINE SMOOTH",
"707 740 OFFCURVE",
"705 742 OFFCURVE",
"698 742 CURVE SMOOTH",
"671 742 LINE SMOOTH"
);
}
);
};
guideLines = (
{
position = "{156, 533}";
showMeasurement = 1;
},
{
angle = 123.9688;
position = "{180, 609}";
}
);
layerId = "91AB5BCA-6A50-42DA-B2F7-8181BF189245";
paths = (
{
closed = 1;
nodes = (
"555 78 LINE",
"211 723 LINE",
"179 723 LINE",
"78 0 LINE",
"117 0 LINE",
"207 642 LINE",
"550 0 LINE",
"584 0 LINE",
"685 723 LINE",
"646 723 LINE"
);
}
);
width = 734;
}
);
unicode = 004E;
},
{
glyphname = Eng;
lastChange = "2017-12-17 19:32:49 +0000";
layers = (
{
background = {
guideLines = (
{
angle = 82.0656;
position = "{586, 584}";
}
);
paths = (
{
closed = 1;
nodes = (
"626 742 LINE SMOOTH",
"611 742 OFFCURVE",
"608 740 OFFCURVE",
"606 727 CURVE SMOOTH",
"566 440 LINE SMOOTH",
"564 423 OFFCURVE",
"553 415 OFFCURVE",
"546 426 CURVE SMOOTH",
"345 719 LINE SMOOTH",
"337 734 OFFCURVE",
"328 742 OFFCURVE",
"311 742 CURVE SMOOTH",
"151 742 LINE SMOOTH",
"136 742 OFFCURVE",
"133 737 OFFCURVE",
"131 724 CURVE SMOOTH",
"32 26 LINE SMOOTH",
"30 11 OFFCURVE",
"43 0 OFFCURVE",
"58 0 CURVE SMOOTH",
"194 0 LINE SMOOTH",
"212 0 OFFCURVE",
"215 0 OFFCURVE",
"216 16 CURVE",
"267 380 LINE SMOOTH",
"269 395 OFFCURVE",
"277 399 OFFCURVE",
"282 392 CURVE SMOOTH",
"494 73 LINE",
"492 63 LINE SMOOTH",
"481 10 OFFCURVE",
"468 -13 OFFCURVE",
"415 -13 CURVE SMOOTH",
"397 -13 OFFCURVE",
"336 -6 OFFCURVE",
"316 -2 CURVE SMOOTH",
"305 0 OFFCURVE",
"301 -2 OFFCURVE",
"298 -17 CURVE SMOOTH",
"275 -114 LINE SMOOTH",
"270 -142 OFFCURVE",
"282 -158 OFFCURVE",
"308 -161 CURVE SMOOTH",
"348 -170 OFFCURVE",
"391 -175 OFFCURVE",
"436 -175 CURVE SMOOTH",
"584 -175 OFFCURVE",
"669 -120 OFFCURVE",
"692 41 CURVE SMOOTH",
"787 719 LINE SMOOTH",
"789 733 OFFCURVE",
"784 742 OFFCURVE",
"771 742 CURVE SMOOTH"
);
}
);
};
guideLines = (
{
angle = 82.0656;
position = "{556, 554}";
}
);
layerId = "258ED206-D907-4350-8EBA-CBDDA1C16BF7";
paths = (
{
closed = 1;
nodes = (
"592 723 LINE",
"547 394 LINE",
"321 723 LINE",
"131 723 LINE",
"27 0 LINE",
"209 0 LINE",
"264 398 LINE",
"481 71 LINE",
"479 61 LINE SMOOTH",
"469 10 OFFCURVE",
"456 -13 OFFCURVE",
"404 -13 CURVE SMOOTH",
"384 -13 OFFCURVE",
"317 -4 OFFCURVE",
"294 1 CURVE",
"259 -148 LINE",
"311 -163 OFFCURVE",
"366 -171 OFFCURVE",
"425 -171 CURVE SMOOTH",
"569 -171 OFFCURVE",
"652 -117 OFFCURVE",
"674 40 CURVE SMOOTH",
"770 723 LINE"
);
}
);
width = 768;
},
{
background = {
paths = (
{
closed = 1;
nodes = (
"671 742 LINE SMOOTH",
"665 742 OFFCURVE",
"664 740 OFFCURVE",
"663 734 CURVE SMOOTH",
"575 108 LINE SMOOTH",
"574 102 OFFCURVE",
"565 93 OFFCURVE",
"559 103 CURVE SMOOTH",
"222 734 LINE SMOOTH",
"219 740 OFFCURVE",
"216 742 OFFCURVE",
"209 742 CURVE SMOOTH",
"188 742 LINE SMOOTH",
"181 742 OFFCURVE",
"180 741 OFFCURVE",
"179 733 CURVE SMOOTH",
"77 11 LINE SMOOTH",
"76 4 OFFCURVE",
"79 0 OFFCURVE",
"86 0 CURVE SMOOTH",
"111 0 LINE SMOOTH",
"118 0 OFFCURVE",
"120 2 OFFCURVE",
"121 8 CURVE SMOOTH",
"210 639 LINE SMOOTH",
"211 647 OFFCURVE",
"214 651 OFFCURVE",
"220 641 CURVE SMOOTH",
"558 12 LINE",
"551 -40 LINE SMOOTH",
"541 -111 OFFCURVE",
"506 -135 OFFCURVE",
"451 -135 CURVE SMOOTH",
"422 -135 OFFCURVE",
"399 -128 OFFCURVE",
"382 -123 CURVE SMOOTH",
"379 -120 OFFCURVE",
"378 -120 OFFCURVE",
"376 -125 CURVE",
"370 -150 LINE",
"369 -154 OFFCURVE",
"371 -157 OFFCURVE",
"374 -159 CURVE SMOOTH",
"380 -164 OFFCURVE",
"411 -175 OFFCURVE",
"453 -175 CURVE SMOOTH",
"546 -175 OFFCURVE",
"585 -125 OFFCURVE",
"596 -47 CURVE SMOOTH",
"705 731 LINE SMOOTH",
"707 739 OFFCURVE",
"704 742 OFFCURVE",
"697 742 CURVE SMOOTH"
);
}
);
};
layerId = "91AB5BCA-6A50-42DA-B2F7-8181BF189245";
paths = (
{
closed = 1;
nodes = (
"652 723 LINE",
"561 78 LINE",
"217 723 LINE",
"180 723 LINE",
"78 0 LINE",
"122 0 LINE",
"211 638 LINE",
"549 12 LINE",
"542 -39 LINE SMOOTH",
"532 -108 OFFCURVE",
"498 -132 OFFCURVE",
"444 -132 CURVE SMOOTH",
"414 -132 OFFCURVE",
"390 -124 OFFCURVE",
"372 -118 CURVE",
"364 -151 LINE",
"370 -157 OFFCURVE",
"402 -171 OFFCURVE",
"446 -171 CURVE SMOOTH",
"537 -171 OFFCURVE",
"575 -122 OFFCURVE",
"586 -46 CURVE SMOOTH",
"694 723 LINE"
);
}
);
width = 742;
}
);
leftMetricsKey = N;
rightMetricsKey = N;
unicode = 014A;
},
{
glyphname = O;
lastChange = "2017-12-17 19:32:49 +0000";
layers = (
{
anchors = (
{
name = bottom;
position = "{345, 0}";
},
{
name = ogonek;
position = "{435, 10}";
},
{
name = top;
position = "{444, 723}";
}
);
background = {
anchors = (
{
name = bottom;
position = "{458, 0}";
},
{
name = ogonek;
position = "{549, 10}";
},
{
name = top;
position = "{456, 742}";
}
);
paths = (
{
closed = 1;
nodes = (
"675 -10 OFFCURVE",
"815 139 OFFCURVE",
"815 369 CURVE SMOOTH",
"815 601 OFFCURVE",
"672 752 OFFCURVE",
"457 752 CURVE SMOOTH",
"240 752 OFFCURVE",
"97 601 OFFCURVE",
"97 369 CURVE SMOOTH",
"97 138 OFFCURVE",
"236 -10 OFFCURVE",
"457 -10 CURVE SMOOTH"
);
},
{
closed = 1;
nodes = (
"368 146 OFFCURVE",
"335 206 OFFCURVE",
"335 366 CURVE SMOOTH",
"335 531 OFFCURVE",
"370 598 OFFCURVE",
"457 598 CURVE SMOOTH",
"542 598 OFFCURVE",
"577 531 OFFCURVE",
"577 366 CURVE SMOOTH",
"577 206 OFFCURVE",
"544 146 OFFCURVE",
"457 146 CURVE SMOOTH"
);
}
);
};
guideLines = (
{
angle = 90;
position = "{-595, 409}";
}
);
layerId = "258ED206-D907-4350-8EBA-CBDDA1C16BF7";
paths = (
{
closed = 1;
nodes = (
"554 -10 OFFCURVE",
"711 135 OFFCURVE",
"743 360 CURVE SMOOTH",
"775 586 OFFCURVE",
"656 733 OFFCURVE",
"446 733 CURVE SMOOTH",
"235 733 OFFCURVE",
"75 586 OFFCURVE",
"44 360 CURVE SMOOTH",
"12 134 OFFCURVE",
"127 -10 OFFCURVE",
"342 -10 CURVE SMOOTH"
);
},
{
closed = 1;
nodes = (
"284 146 OFFCURVE",
"233 201 OFFCURVE",
"254 357 CURVE SMOOTH",
"277 517 OFFCURVE",
"345 577 OFFCURVE",
"425 577 CURVE SMOOTH",
"505 577 OFFCURVE",
"553 517 OFFCURVE",
"531 357 CURVE SMOOTH",
"510 201 OFFCURVE",
"444 146 OFFCURVE",
"364 146 CURVE SMOOTH"
);
}
);
width = 758;
},
{
anchors = (
{
name = bottom;
position = "{319, 0}";
},
{
name = ogonek;
position = "{388, 9}";
},
{
name = top;
position = "{420, 723}";
}
);
background = {
anchors = (
{
name = bottom;
position = "{431, 0}";
},
{
name = ogonek;
position = "{501, 9}";
},
{
name = top;
position = "{431, 742}";
}
);
paths = (
{
closed = 1;
nodes = (
"617 -10 OFFCURVE",
"730 122 OFFCURVE",
"730 369 CURVE SMOOTH",
"730 618 OFFCURVE",
"617 752 OFFCURVE",
"430 752 CURVE SMOOTH",
"242 752 OFFCURVE",
"128 617 OFFCURVE",
"128 367 CURVE SMOOTH",
"128 121 OFFCURVE",
"240 -10 OFFCURVE",
"429 -10 CURVE SMOOTH"
);
},
{
closed = 1;
nodes = (
"265 32 OFFCURVE",
"176 143 OFFCURVE",
"176 369 CURVE SMOOTH",
"176 597 OFFCURVE",
"265 710 OFFCURVE",
"430 710 CURVE SMOOTH",
"594 710 OFFCURVE",
"682 598 OFFCURVE",
"682 369 CURVE SMOOTH",
"682 142 OFFCURVE",
"596 32 OFFCURVE",
"431 32 CURVE SMOOTH"
);
}
);
};
guideLines = (
{
angle = 90;
position = "{-473, 399}";
},
{
angle = 90;
position = "{466, 592}";
}
);
layerId = "91AB5BCA-6A50-42DA-B2F7-8181BF189245";
paths = (
{
closed = 1;
nodes = (
"498 -10 OFFCURVE",
"626 119 OFFCURVE",
"661 360 CURVE SMOOTH",
"695 602 OFFCURVE",
"602 733 OFFCURVE",
"420 733 CURVE SMOOTH",
"237 733 OFFCURVE",
"107 601 OFFCURVE",
"73 358 CURVE SMOOTH",
"40 118 OFFCURVE",
"131 -10 OFFCURVE",
"315 -10 CURVE SMOOTH"
);
},
{
closed = 1;
nodes = (
"161 31 OFFCURVE",
"87 139 OFFCURVE",
"118 360 CURVE SMOOTH",
"149 582 OFFCURVE",
"254 692 OFFCURVE",
"415 692 CURVE SMOOTH",
"575 692 OFFCURVE",
"648 583 OFFCURVE",
"617 360 CURVE SMOOTH",
"586 138 OFFCURVE",
"483 31 OFFCURVE",
"322 31 CURVE SMOOTH"
);
}
);
width = 705;
}
);
leftKerningGroup = O;
rightKerningGroup = O;
unicode = 004F;
},
{
glyphname = Oslash;
lastChange = "2017-12-17 19:32:49 +0000";
layers = (
{
anchors = (
{
name = top;
position = "{462, 723}";
}
);
background = {
anchors = (
{
name = top;
position = "{474, 742}";
}
);
paths = (
{
closed = 1;
nodes = (
"798 738 LINE SMOOTH",
"793 746 OFFCURVE",
"781 752 OFFCURVE",
"769 741 CURVE SMOOTH",
"693 670 LINE",
"641 720 OFFCURVE",
"565 752 OFFCURVE",
"468 752 CURVE SMOOTH",
"255 752 OFFCURVE",
"96 607 OFFCURVE",
"64 380 CURVE SMOOTH",
"51 289 OFFCURVE",
"62 214 OFFCURVE",
"88 154 CURVE",
"6 88 LINE SMOOTH",
"-7 76 OFFCURVE",
"-1 66 OFFCURVE",
"12 51 CURVE SMOOTH",
"46 11 LINE SMOOTH",
"59 -5 OFFCURVE",
"70 -12 OFFCURVE",
"87 3 CURVE SMOOTH",
"155 66 LINE",
"206 19 OFFCURVE",
"281 -10 OFFCURVE",
"377 -10 CURVE SMOOTH",
"591 -10 OFFCURVE",
"747 133 OFFCURVE",
"779 358 CURVE SMOOTH",
"792 447 OFFCURVE",
"781 521 OFFCURVE",
"756 580 CURVE",
"848 655 LINE",
"858 664 OFFCURVE",
"852 674 OFFCURVE",
"846 682 CURVE SMOOTH"
);
},
{
closed = 1;
nodes = (
"323 525 OFFCURVE",
"372 598 OFFCURVE",
"463 598 CURVE SMOOTH",
"503 598 OFFCURVE",
"530 585 OFFCURVE",
"543 544 CURVE",
"294 324 LINE",
"296 336 OFFCURVE",
"298 348 OFFCURVE",
"299 355 CURVE"
);
},
{
closed = 1;
nodes = (
"521 212 OFFCURVE",
"474 146 OFFCURVE",
"383 146 CURVE SMOOTH",
"343 146 OFFCURVE",
"316 156 OFFCURVE",
"301 190 CURVE",
"548 409 LINE",
"547 397 OFFCURVE",
"545 385 OFFCURVE",
"544 377 CURVE SMOOTH"
);
}
);
};
layerId = "258ED206-D907-4350-8EBA-CBDDA1C16BF7";
paths = (
{
closed = 1;
nodes = (
"151 64 LINE",
"201 19 OFFCURVE",
"274 -10 OFFCURVE",
"367 -10 CURVE SMOOTH",
"576 -10 OFFCURVE",
"728 130 OFFCURVE",
"759 349 CURVE SMOOTH",
"772 436 OFFCURVE",
"761 508 OFFCURVE",
"737 565 CURVE",
"838 648 LINE",
"764 736 LINE",
"675 653 LINE",
"625 701 OFFCURVE",
"550 733 OFFCURVE",
"456 733 CURVE SMOOTH",
"248 733 OFFCURVE",
"94 591 OFFCURVE",
"62 370 CURVE SMOOTH",
"50 282 OFFCURVE",
"60 209 OFFCURVE",
"86 150 CURVE",
"-9 74 LINE",
"66 -15 LINE"
);
},
{
closed = 1;
nodes = (
"334 142 OFFCURVE",
"308 152 OFFCURVE",
"293 185 CURVE",
"535 398 LINE",
"533 380 OFFCURVE",
"530 362 OFFCURVE",
"527 346 CURVE SMOOTH",
"502 202 OFFCURVE",
"455 142 OFFCURVE",
"373 142 CURVE SMOOTH"
);
},
{
closed = 1;
nodes = (
"290 343 OFFCURVE",
"294 367 OFFCURVE",
"299 390 CURVE SMOOTH",
"325 524 OFFCURVE",
"373 583 OFFCURVE",
"451 583 CURVE SMOOTH",
"490 583 OFFCURVE",
"516 570 OFFCURVE",
"529 530 CURVE",
"287 317 LINE"
);
}
);
width = 802;
},
{
anchors = (
{
name = top;
position = "{413, 723}";
}
);
background = {
anchors = (
{
name = top;
position = "{419, 742}";
}
);
paths = (
{
closed = 1;
nodes = (
"723 748 LINE",
"718 752 OFFCURVE",
"714 752 OFFCURVE",
"710 747 CURVE",
"622 658 LINE",
"579 719 OFFCURVE",
"510 752 OFFCURVE",
"418 752 CURVE SMOOTH",
"231 752 OFFCURVE",
"100 618 OFFCURVE",
"65 369 CURVE SMOOTH",
"50 267 OFFCURVE",
"59 185 OFFCURVE",
"86 124 CURVE",
"-13 27 LINE",
"-18 22 OFFCURVE",
"-16 19 OFFCURVE",
"-10 12 CURVE SMOOTH",
"5 -4 LINE",
"12 -10 OFFCURVE",
"17 -12 OFFCURVE",
"24 -4 CURVE",
"109 82 LINE",
"152 22 OFFCURVE",
"221 -10 OFFCURVE",
"314 -10 CURVE SMOOTH",
"501 -10 OFFCURVE",
"632 121 OFFCURVE",
"666 367 CURVE SMOOTH",
"681 471 OFFCURVE",
"673 554 OFFCURVE",
"645 616 CURVE",
"746 715 LINE",
"750 719 OFFCURVE",
"747 723 OFFCURVE",
"745 726 CURVE"
);
},
{
closed = 1;
nodes = (
"148 596 OFFCURVE",
"250 709 OFFCURVE",
"416 709 CURVE SMOOTH",
"497 709 OFFCURVE",
"556 682 OFFCURVE",
"590 626 CURVE",
"122 160 LINE",
"106 213 OFFCURVE",
"103 282 OFFCURVE",
"115 367 CURVE SMOOTH"
);
},
{
closed = 1;
nodes = (
"584 143 OFFCURVE",
"484 33 OFFCURVE",
"318 33 CURVE SMOOTH",
"236 33 OFFCURVE",
"177 60 OFFCURVE",
"142 116 CURVE",
"609 581 LINE",
"626 527 OFFCURVE",
"628 457 OFFCURVE",
"616 371 CURVE SMOOTH"
);
}
);
};
layerId = "91AB5BCA-6A50-42DA-B2F7-8181BF189245";
paths = (
{
closed = 1;
nodes = (
"111 80 LINE",
"153 21 OFFCURVE",
"220 -10 OFFCURVE",
"311 -10 CURVE SMOOTH",
"493 -10 OFFCURVE",
"621 118 OFFCURVE",
"654 358 CURVE SMOOTH",
"668 459 OFFCURVE",
"661 540 OFFCURVE",
"633 600 CURVE",
"737 701 LINE",
"703 735 LINE",
"611 641 LINE",
"569 701 OFFCURVE",
"502 733 OFFCURVE",
"412 733 CURVE SMOOTH",
"230 733 OFFCURVE",
"102 602 OFFCURVE",
"68 360 CURVE SMOOTH",
"54 260 OFFCURVE",
"62 180 OFFCURVE",
"89 121 CURVE",
"-14 20 LINE",
"19 -14 LINE"
);
},
{
closed = 1;
nodes = (
"235 32 OFFCURVE",
"177 58 OFFCURVE",
"143 113 CURVE",
"598 566 LINE",
"615 513 OFFCURVE",
"617 445 OFFCURVE",
"605 361 CURVE SMOOTH",
"574 139 OFFCURVE",
"476 32 OFFCURVE",
"315 32 CURVE SMOOTH"
);
},
{
closed = 1;
nodes = (
"108 208 OFFCURVE",
"105 275 OFFCURVE",
"117 358 CURVE SMOOTH",
"149 581 OFFCURVE",
"248 691 OFFCURVE",
"410 691 CURVE SMOOTH",
"489 691 OFFCURVE",
"547 664 OFFCURVE",
"580 610 CURVE",
"124 156 LINE"
);
}
);
width = 693;
}
);
unicode = 00D8;
},
{
glyphname = OE;
lastChange = "2017-12-17 19:32:49 +0000";
layers = (
{
background = {
paths = (
{
closed = 1;
nodes = (
"731 164 LINE SMOOTH",
"722 164 OFFCURVE",
"722 161 OFFCURVE",
"724 172 CURVE SMOOTH",
"738 272 LINE SMOOTH",
"739 280 OFFCURVE",
"751 292 OFFCURVE",
"761 292 CURVE SMOOTH",
"946 292 LINE SMOOTH",
"959 292 OFFCURVE",
"960 294 OFFCURVE",
"961 303 CURVE SMOOTH",
"979 427 LINE SMOOTH",
"981 440 OFFCURVE",
"971 453 OFFCURVE",
"957 453 CURVE SMOOTH",
"777 453 LINE SMOOTH",
"767 453 OFFCURVE",
"764 454 OFFCURVE",
"766 468 CURVE SMOOTH",
"777 553 LINE SMOOTH",
"779 566 OFFCURVE",
"793 578 OFFCURVE",
"808 578 CURVE SMOOTH",
"1108 578 LINE SMOOTH",
"1126 578 OFFCURVE",
"1131 583 OFFCURVE",
"1133 599 CURVE SMOOTH",
"1150 715 LINE SMOOTH",
"1152 728 OFFCURVE",
"1144 742 OFFCURVE",
"1132 742 CURVE SMOOTH",
"668 742 LINE",
"661 742 OFFCURVE",
"654 742 OFFCURVE",
"647 742 CURVE",
"606 741 LINE",
"572 748 OFFCURVE",
"529 752 OFFCURVE",
"474 752 CURVE SMOOTH",
"237 752 OFFCURVE",
"78 607 OFFCURVE",
"46 380 CURVE SMOOTH",
"13 144 OFFCURVE",
"134 -10 OFFCURVE",
"371 -10 CURVE SMOOTH",
"423 -10 OFFCURVE",
"471 -8 OFFCURVE",
"510 -1 CURVE",
"560 0 LINE",
"567 0 OFFCURVE",
"574 0 OFFCURVE",
"581 0 CURVE",
"1039 0 LINE SMOOTH",
"1056 0 OFFCURVE",
"1059 4 OFFCURVE",
"1061 16 CURVE SMOOTH",
"1078 139 LINE SMOOTH",
"1080 153 OFFCURVE",
"1070 164 OFFCURVE",
"1056 164 CURVE SMOOTH"
);
},
{
closed = 1;
nodes = (
"280 146 OFFCURVE",
"259 200 OFFCURVE",
"281 355 CURVE SMOOTH",
"305 525 OFFCURVE",
"354 598 OFFCURVE",
"445 598 CURVE SMOOTH",
"526 598 OFFCURVE",
"548 537 OFFCURVE",
"526 377 CURVE SMOOTH",
"503 212 OFFCURVE",
"456 146 OFFCURVE",
"365 146 CURVE SMOOTH"
);
}
);
};
layerId = "258ED206-D907-4350-8EBA-CBDDA1C16BF7";
paths = (
{
closed = 1;
nodes = (
"704 160 LINE",
"722 284 LINE",
"934 284 LINE",
"958 441 LINE",
"744 441 LINE",
"760 563 LINE",
"1101 563 LINE",
"1124 723 LINE",
"630 723 LINE",
"590 722 LINE",
"557 729 OFFCURVE",
"515 733 OFFCURVE",
"462 733 CURVE SMOOTH",
"231 733 OFFCURVE",
"76 591 OFFCURVE",
"45 370 CURVE SMOOTH",
"13 140 OFFCURVE",
"131 -10 OFFCURVE",
"361 -10 CURVE SMOOTH",
"412 -10 OFFCURVE",
"459 -8 OFFCURVE",
"497 -1 CURVE",
"546 0 LINE",
"1032 0 LINE",
"1053 160 LINE"
);
},
{
closed = 1;
nodes = (
"273 142 OFFCURVE",
"252 195 OFFCURVE",
"274 346 CURVE SMOOTH",
"297 512 OFFCURVE",
"345 583 OFFCURVE",
"434 583 CURVE SMOOTH",
"512 583 OFFCURVE",
"534 523 OFFCURVE",
"512 367 CURVE SMOOTH",
"490 207 OFFCURVE",
"444 142 OFFCURVE",
"356 142 CURVE SMOOTH"
);
}
);
width = 1117;
},
{
background = {
paths = (
{
closed = 1;
nodes = (
"634 40 LINE SMOOTH",
"627 40 OFFCURVE",
"626 40 OFFCURVE",
"628 48 CURVE SMOOTH",
"669 345 LINE SMOOTH",
"670 353 OFFCURVE",
"674 355 OFFCURVE",
"681 355 CURVE SMOOTH",
"958 355 LINE SMOOTH",
"964 355 OFFCURVE",
"965 355 OFFCURVE",
"965 361 CURVE SMOOTH",
"969 387 LINE SMOOTH",
"970 392 OFFCURVE",
"967 395 OFFCURVE",
"962 395 CURVE SMOOTH",
"684 395 LINE SMOOTH",
"677 395 OFFCURVE",
"676 395 OFFCURVE",
"677 401 CURVE SMOOTH",
"718 692 LINE SMOOTH",
"719 700 OFFCURVE",
"722 702 OFFCURVE",
"729 702 CURVE SMOOTH",
"1087 702 LINE SMOOTH",
"1093 702 OFFCURVE",
"1094 702 OFFCURVE",
"1095 708 CURVE SMOOTH",
"1099 734 LINE SMOOTH",
"1100 739 OFFCURVE",
"1097 742 OFFCURVE",
"1092 742 CURVE SMOOTH",
"687 742 LINE SMOOTH",
"680 742 OFFCURVE",
"679 741 OFFCURVE",
"678 733 CURVE SMOOTH",
"659 599 LINE",
"623 699 OFFCURVE",
"542 752 OFFCURVE",
"424 752 CURVE SMOOTH",
"237 752 OFFCURVE",
"106 618 OFFCURVE",
"71 369 CURVE SMOOTH",
"36 122 OFFCURVE",
"130 -10 OFFCURVE",
"320 -10 CURVE SMOOTH",
"436 -10 OFFCURVE",
"531 40 OFFCURVE",
"595 139 CURVE",
"576 11 LINE SMOOTH",
"575 3 OFFCURVE",
"578 0 OFFCURVE",
"585 0 CURVE SMOOTH",
"1005 0 LINE SMOOTH",
"1010 0 OFFCURVE",
"1011 1 OFFCURVE",
"1012 6 CURVE SMOOTH",
"1015 32 LINE SMOOTH",
"1016 38 OFFCURVE",
"1013 40 OFFCURVE",
"1007 40 CURVE SMOOTH"
);
},
{
closed = 1;
nodes = (
"159 32 OFFCURVE",
"87 142 OFFCURVE",
"118 367 CURVE SMOOTH",
"151 596 OFFCURVE",
"257 710 OFFCURVE",
"423 710 CURVE SMOOTH",
"586 710 OFFCURVE",
"654 599 OFFCURVE",
"622 371 CURVE SMOOTH",
"590 143 OFFCURVE",
"490 32 OFFCURVE",
"324 32 CURVE SMOOTH"
);
}
);
};
layerId = "91AB5BCA-6A50-42DA-B2F7-8181BF189245";
paths = (
{
closed = 1;
nodes = (
"616 39 LINE",
"658 346 LINE",
"944 346 LINE",
"950 385 LINE",
"663 385 LINE",
"705 684 LINE",
"1071 684 LINE",
"1077 723 LINE",
"666 723 LINE",
"647 584 LINE",
"612 681 OFFCURVE",
"533 733 OFFCURVE",
"418 733 CURVE SMOOTH",
"236 733 OFFCURVE",
"108 602 OFFCURVE",
"74 360 CURVE SMOOTH",
"40 119 OFFCURVE",
"132 -10 OFFCURVE",
"317 -10 CURVE SMOOTH",
"430 -10 OFFCURVE",
"522 39 OFFCURVE",
"585 135 CURVE",
"564 0 LINE",
"990 0 LINE",
"995 39 LINE"
);
},
{
closed = 1;
nodes = (
"160 31 OFFCURVE",
"90 138 OFFCURVE",
"120 358 CURVE SMOOTH",
"152 581 OFFCURVE",
"255 692 OFFCURVE",
"417 692 CURVE SMOOTH",
"576 692 OFFCURVE",
"642 584 OFFCURVE",
"611 361 CURVE SMOOTH",
"580 139 OFFCURVE",
"482 31 OFFCURVE",
"321 31 CURVE SMOOTH"
);
}
);
width = 1095;
}
);
leftKerningGroup = O;
leftMetricsKey = O;
rightMetricsKey = E;
unicode = 0152;
},
{
glyphname = P;
lastChange = "2017-12-17 19:32:49 +0000";
layers = (
{
background = {
paths = (
{
closed = 1;
nodes = (
"766 662 OFFCURVE",
"629 742 OFFCURVE",
"465 742 CURVE SMOOTH",
"134 742 LINE SMOOTH",
"122 742 OFFCURVE",
"115 734 OFFCURVE",
"115 719 CURVE SMOOTH",
"115 25 LINE SMOOTH",
"115 8 OFFCURVE",
"121 0 OFFCURVE",
"141 0 CURVE SMOOTH",
"309 0 LINE SMOOTH",
"332 0 OFFCURVE",
"342 8 OFFCURVE",
"342 29 CURVE SMOOTH",
"342 255 LINE SMOOTH",
"342 262 OFFCURVE",
"345 266 OFFCURVE",
"354 266 CURVE SMOOTH",
"491 266 LINE SMOOTH",
"654 266 OFFCURVE",
"766 355 OFFCURVE",
"766 501 CURVE SMOOTH"
);
},
{
closed = 1;
nodes = (
"534 461 OFFCURVE",
"505 426 OFFCURVE",
"457 426 CURVE SMOOTH",
"359 426 LINE SMOOTH",
"346 426 OFFCURVE",
"342 433 OFFCURVE",
"342 448 CURVE SMOOTH",
"342 561 LINE SMOOTH",
"342 576 OFFCURVE",
"348 582 OFFCURVE",
"365 582 CURVE SMOOTH",
"451 582 LINE SMOOTH",
"497 582 OFFCURVE",
"534 552 OFFCURVE",
"534 504 CURVE SMOOTH"
);
}
);
};
layerId = "258ED206-D907-4350-8EBA-CBDDA1C16BF7";
paths = (
{
closed = 1;
nodes = (
"222 0 LINE",
"257 248 LINE",
"373 248 LINE SMOOTH",
"532 248 OFFCURVE",
"643 335 OFFCURVE",
"663 477 CURVE SMOOTH",
"685 634 OFFCURVE",
"574 723 OFFCURVE",
"414 723 CURVE SMOOTH",
"129 723 LINE",
"27 0 LINE"
);
},
{
closed = 1;
nodes = (
"301 579 LINE",
"412 579 LINE SMOOTH",
"456 579 OFFCURVE",
"493 538 OFFCURVE",
"486 487 CURVE SMOOTH",
"479 440 OFFCURVE",
"436 394 OFFCURVE",
"386 394 CURVE SMOOTH",
"275 394 LINE"
);
}
);
width = 647;
},
{
background = {
paths = (
{
closed = 1;
nodes = (
"681 684 OFFCURVE",
"570 742 OFFCURVE",
"415 742 CURVE SMOOTH",
"193 742 LINE SMOOTH",
"186 742 OFFCURVE",
"184 740 OFFCURVE",
"184 732 CURVE SMOOTH",
"184 8 LINE SMOOTH",
"184 3 OFFCURVE",
"187 0 OFFCURVE",
"192 0 CURVE SMOOTH",
"222 0 LINE SMOOTH",
"227 0 OFFCURVE",
"230 3 OFFCURVE",
"230 9 CURVE SMOOTH",
"230 318 LINE SMOOTH",
"230 324 OFFCURVE",
"232 327 OFFCURVE",
"238 327 CURVE SMOOTH",
"421 327 LINE SMOOTH",
"572 327 OFFCURVE",
"681 387 OFFCURVE",
"681 535 CURVE SMOOTH"
);
},
{
closed = 1;
nodes = (
"633 415 OFFCURVE",
"549 367 OFFCURVE",
"421 367 CURVE SMOOTH",
"237 367 LINE SMOOTH",
"232 367 OFFCURVE",
"230 370 OFFCURVE",
"230 377 CURVE SMOOTH",
"230 694 LINE SMOOTH",
"230 700 OFFCURVE",
"233 702 OFFCURVE",
"239 702 CURVE SMOOTH",
"414 702 LINE SMOOTH",
"549 702 OFFCURVE",
"633 662 OFFCURVE",
"633 538 CURVE SMOOTH"
);
}
);
};
layerId = "91AB5BCA-6A50-42DA-B2F7-8181BF189245";
paths = (
{
closed = 1;
nodes = (
"121 0 LINE",
"165 317 LINE",
"351 317 LINE SMOOTH",
"498 317 OFFCURVE",
"613 378 OFFCURVE",
"633 522 CURVE SMOOTH",
"654 667 OFFCURVE",
"553 723 OFFCURVE",
"402 723 CURVE SMOOTH",
"179 723 LINE",
"78 0 LINE"
);
},
{
closed = 1;
nodes = (
"216 680 LINE",
"396 680 LINE SMOOTH",
"527 680 OFFCURVE",
"607 646 OFFCURVE",
"589 525 CURVE SMOOTH",
"573 405 OFFCURVE",
"482 360 OFFCURVE",
"358 360 CURVE SMOOTH",
"171 360 LINE"
);
}
);
width = 624;
}
);
rightKerningGroup = P;
unicode = 0050;
},
{
glyphname = Thorn;
lastChange = "2017-12-17 19:32:49 +0000";
layers = (
{
background = {
paths = (
{
closed = 1;
nodes = (
"765 524 OFFCURVE",
"636 608 OFFCURVE",
"472 608 CURVE SMOOTH",
"346 608 LINE SMOOTH",
"339 608 OFFCURVE",
"340 606 OFFCURVE",
"341 614 CURVE SMOOTH",
"355 715 LINE SMOOTH",
"357 728 OFFCURVE",
"349 742 OFFCURVE",
"337 742 CURVE SMOOTH",
"147 742 LINE SMOOTH",
"136 742 OFFCURVE",
"132 740 OFFCURVE",
"130 725 CURVE SMOOTH",
"32 31 LINE SMOOTH",
"30 14 OFFCURVE",
"38 0 OFFCURVE",
"58 0 CURVE SMOOTH",
"226 0 LINE SMOOTH",
"249 0 OFFCURVE",
"255 2 OFFCURVE",
"258 23 CURVE SMOOTH",
"272 125 LINE SMOOTH",
"273 132 OFFCURVE",
"282 142 OFFCURVE",
"291 142 CURVE SMOOTH",
"441 142 LINE SMOOTH",
"604 142 OFFCURVE",
"723 223 OFFCURVE",
"742 361 CURVE SMOOTH"
);
},
{
closed = 1;
nodes = (
"508 341 OFFCURVE",
"469 302 OFFCURVE",
"421 302 CURVE SMOOTH",
"310 302 LINE SMOOTH",
"297 302 OFFCURVE",
"297 303 OFFCURVE",
"299 318 CURVE SMOOTH",
"314 421 LINE SMOOTH",
"316 436 OFFCURVE",
"328 448 OFFCURVE",
"345 448 CURVE SMOOTH",
"444 448 LINE SMOOTH",
"490 448 OFFCURVE",
"520 426 OFFCURVE",
"514 386 CURVE SMOOTH"
);
}
);
};
layerId = "258ED206-D907-4350-8EBA-CBDDA1C16BF7";
paths = (
{
closed = 1;
nodes = (
"745 511 OFFCURVE",
"620 592 OFFCURVE",
"460 592 CURVE SMOOTH",
"331 592 LINE",
"350 723 LINE",
"129 723 LINE",
"27 0 LINE",
"248 0 LINE",
"267 138 LINE",
"430 138 LINE SMOOTH",
"588 138 OFFCURVE",
"704 217 OFFCURVE",
"723 352 CURVE SMOOTH"
);
},
{
closed = 1;
nodes = (
"495 332 OFFCURVE",
"457 294 OFFCURVE",
"410 294 CURVE SMOOTH",
"289 294 LINE",
"310 436 LINE",
"433 436 LINE SMOOTH",
"477 436 OFFCURVE",
"507 415 OFFCURVE",
"501 376 CURVE SMOOTH"
);
}
);
width = 725;
},
{
background = {
paths = (
{
closed = 1;
nodes = (
"645 521 OFFCURVE",
"542 579 OFFCURVE",
"386 579 CURVE SMOOTH",
"207 579 LINE SMOOTH",
"203 579 OFFCURVE",
"202 580 OFFCURVE",
"203 583 CURVE SMOOTH",
"223 731 LINE SMOOTH",
"225 739 OFFCURVE",
"222 742 OFFCURVE",
"215 742 CURVE SMOOTH",
"187 742 LINE SMOOTH",
"180 742 OFFCURVE",
"179 741 OFFCURVE",
"178 733 CURVE SMOOTH",
"76 9 LINE SMOOTH",
"75 4 OFFCURVE",
"79 0 OFFCURVE",
"84 0 CURVE SMOOTH",
"114 0 LINE SMOOTH",
"119 0 OFFCURVE",
"121 2 OFFCURVE",
"122 8 CURVE SMOOTH",
"145 172 LINE SMOOTH",
"146 178 OFFCURVE",
"149 182 OFFCURVE",
"155 182 CURVE SMOOTH",
"338 182 LINE SMOOTH",
"488 182 OFFCURVE",
"605 238 OFFCURVE",
"626 388 CURVE SMOOTH"
);
},
{
closed = 1;
nodes = (
"562 269 OFFCURVE",
"470 222 OFFCURVE",
"342 222 CURVE SMOOTH",
"158 222 LINE SMOOTH",
"153 222 OFFCURVE",
"152 224 OFFCURVE",
"153 231 CURVE SMOOTH",
"195 530 LINE SMOOTH",
"196 536 OFFCURVE",
"201 539 OFFCURVE",
"207 539 CURVE SMOOTH",
"382 539 LINE SMOOTH",
"517 539 OFFCURVE",
"594 502 OFFCURVE",
"579 392 CURVE SMOOTH"
);
}
);
};
layerId = "91AB5BCA-6A50-42DA-B2F7-8181BF189245";
paths = (
{
closed = 1;
nodes = (
"633 508 OFFCURVE",
"533 564 OFFCURVE",
"381 564 CURVE SMOOTH",
"202 564 LINE",
"224 723 LINE",
"179 723 LINE",
"78 0 LINE",
"123 0 LINE",
"147 177 LINE",
"334 177 LINE SMOOTH",
"480 177 OFFCURVE",
"594 232 OFFCURVE",
"615 378 CURVE SMOOTH"
);
},
{
closed = 1;
nodes = (
"552 262 OFFCURVE",
"463 216 OFFCURVE",
"338 216 CURVE SMOOTH",
"153 216 LINE",
"196 525 LINE",
"377 525 LINE SMOOTH",
"509 525 OFFCURVE",
"584 489 OFFCURVE",
"569 382 CURVE SMOOTH"
);
}
);
width = 626;
}
);
leftMetricsKey = P;
rightMetricsKey = P;
unicode = 00DE;
},
{
glyphname = Q;
lastChange = "2017-12-17 19:32:49 +0000";
layers = (
{
background = {
paths = (
{
closed = 1;
nodes = (
"92 138 OFFCURVE",
"231 -10 OFFCURVE",
"452 -10 CURVE SMOOTH",
"478 -10 OFFCURVE",
"499 -9 OFFCURVE",
"523 -6 CURVE SMOOTH",
"530 -5 OFFCURVE",
"535 -6 OFFCURVE",
"538 -10 CURVE SMOOTH",
"595 -84 OFFCURVE",
"667 -128 OFFCURVE",
"767 -128 CURVE SMOOTH",
"799 -128 OFFCURVE",
"811 -122 OFFCURVE",
"811 -97 CURVE SMOOTH",
"811 13 LINE SMOOTH",
"811 20 OFFCURVE",
"808 28 OFFCURVE",
"794 30 CURVE SMOOTH",
"751 36 OFFCURVE",
"704 61 OFFCURVE",
"704 78 CURVE SMOOTH",
"704 82 OFFCURVE",
"704 84 OFFCURVE",
"706 86 CURVE",
"773 152 OFFCURVE",
"811 249 OFFCURVE",
"811 369 CURVE SMOOTH",
"811 601 OFFCURVE",
"668 752 OFFCURVE",
"452 752 CURVE SMOOTH",
"235 752 OFFCURVE",
"92 601 OFFCURVE",
"92 369 CURVE SMOOTH"
);
},
{
closed = 1;
nodes = (
"330 532 OFFCURVE",
"365 598 OFFCURVE",
"452 598 CURVE SMOOTH",
"538 598 OFFCURVE",
"573 532 OFFCURVE",
"573 367 CURVE SMOOTH",
"573 206 OFFCURVE",
"540 146 OFFCURVE",
"452 146 CURVE SMOOTH",
"363 146 OFFCURVE",
"330 206 OFFCURVE",
"330 367 CURVE SMOOTH"
);
}
);
};
layerId = "258ED206-D907-4350-8EBA-CBDDA1C16BF7";
paths = (
{
closed = 1;
nodes = (
"7 134 OFFCURVE",
"122 -10 OFFCURVE",
"337 -10 CURVE SMOOTH",
"361 -10 OFFCURVE",
"382 -9 OFFCURVE",
"418 -5 CURVE",
"488 -113 OFFCURVE",
"555 -125 OFFCURVE",
"671 -125 CURVE",
"693 27 LINE",
"643 27 OFFCURVE",
"601 52 OFFCURVE",
"597 80 CURVE",
"672 150 OFFCURVE",
"723 243 OFFCURVE",
"739 360 CURVE SMOOTH",
"771 586 OFFCURVE",
"652 733 OFFCURVE",
"441 733 CURVE SMOOTH",
"230 733 OFFCURVE",
"70 586 OFFCURVE",
"39 360 CURVE SMOOTH"
);
},
{
closed = 1;
nodes = (
"273 518 OFFCURVE",
"335 577 OFFCURVE",
"420 577 CURVE SMOOTH",
"504 577 OFFCURVE",
"549 518 OFFCURVE",
"526 358 CURVE SMOOTH",
"505 201 OFFCURVE",
"445 146 OFFCURVE",
"360 146 CURVE SMOOTH",
"273 146 OFFCURVE",
"229 201 OFFCURVE",
"250 358 CURVE SMOOTH"
);
}
);
width = 749;
},
{
background = {
paths = (
{
closed = 1;
nodes = (
"125 116 OFFCURVE",
"242 -10 OFFCURVE",
"426 -10 CURVE SMOOTH",
"452 -10 OFFCURVE",
"482 -7 OFFCURVE",
"507 -1 CURVE SMOOTH",
"514 1 OFFCURVE",
"519 -1 OFFCURVE",
"522 -5 CURVE SMOOTH",
"587 -96 OFFCURVE",
"653 -122 OFFCURVE",
"697 -122 CURVE SMOOTH",
"711 -122 OFFCURVE",
"717 -120 OFFCURVE",
"717 -109 CURVE SMOOTH",
"717 -87 LINE SMOOTH",
"717 -84 OFFCURVE",
"716 -81 OFFCURVE",
"710 -80 CURVE SMOOTH",
"635 -70 OFFCURVE",
"568 -11 OFFCURVE",
"568 16 CURVE SMOOTH",
"568 20 OFFCURVE",
"569 22 OFFCURVE",
"574 25 CURVE SMOOTH",
"671 83 OFFCURVE",
"727 189 OFFCURVE",
"727 369 CURVE SMOOTH",
"727 620 OFFCURVE",
"614 752 OFFCURVE",
"426 752 CURVE SMOOTH",
"238 752 OFFCURVE",
"125 620 OFFCURVE",
"125 369 CURVE SMOOTH"
);
},
{
closed = 1;
nodes = (
"173 592 OFFCURVE",
"259 710 OFFCURVE",
"426 710 CURVE SMOOTH",
"593 710 OFFCURVE",
"679 592 OFFCURVE",
"679 369 CURVE SMOOTH",
"679 141 OFFCURVE",
"590 32 OFFCURVE",
"426 32 CURVE SMOOTH",
"262 32 OFFCURVE",
"173 141 OFFCURVE",
"173 367 CURVE SMOOTH"
);
}
);
};
layerId = "91AB5BCA-6A50-42DA-B2F7-8181BF189245";
paths = (
{
closed = 1;
nodes = (
"36 113 OFFCURVE",
"133 -10 OFFCURVE",
"312 -10 CURVE SMOOTH",
"340 -10 OFFCURVE",
"369 -6 OFFCURVE",
"401 1 CURVE",
"439 -98 OFFCURVE",
"533 -119 OFFCURVE",
"581 -119 CURVE",
"586 -79 LINE",
"523 -76 OFFCURVE",
"471 -50 OFFCURVE",
"446 18 CURVE",
"572 79 OFFCURVE",
"634 194 OFFCURVE",
"658 360 CURVE SMOOTH",
"692 604 OFFCURVE",
"599 733 OFFCURVE",
"416 733 CURVE SMOOTH",
"233 733 OFFCURVE",
"105 604 OFFCURVE",
"71 360 CURVE SMOOTH"
);
},
{
closed = 1;
nodes = (
"145 577 OFFCURVE",
"248 692 OFFCURVE",
"411 692 CURVE SMOOTH",
"574 692 OFFCURVE",
"644 577 OFFCURVE",
"614 360 CURVE SMOOTH",
"583 137 OFFCURVE",
"477 31 OFFCURVE",
"318 31 CURVE SMOOTH",
"158 31 OFFCURVE",
"84 137 OFFCURVE",
"114 358 CURVE SMOOTH"
);
}
);
width = 700;
}
);
leftKerningGroup = O;
rightKerningGroup = O;
unicode = 0051;
},
{
glyphname = R;
lastChange = "2017-12-17 19:32:49 +0000";
layers = (
{
anchors = (
{
name = bottom;
position = "{319, 0}";
},
{
name = top;
position = "{410, 723}";
}
);
background = {
anchors = (
{
name = bottom;
position = "{431, 0}";
},
{
name = top;
position = "{421, 742}";
}
);
paths = (
{
closed = 1;
nodes = (
"638 312 LINE SMOOTH",
"635 320 OFFCURVE",
"635 328 OFFCURVE",
"642 331 CURVE SMOOTH",
"718 360 OFFCURVE",
"773 436 OFFCURVE",
"773 530 CURVE SMOOTH",
"773 664 OFFCURVE",
"661 742 OFFCURVE",
"468 742 CURVE SMOOTH",
"134 742 LINE SMOOTH",
"122 742 OFFCURVE",
"115 734 OFFCURVE",
"115 719 CURVE SMOOTH",
"115 25 LINE SMOOTH",
"115 8 OFFCURVE",
"121 0 OFFCURVE",
"141 0 CURVE SMOOTH",
"309 0 LINE SMOOTH",
"332 0 OFFCURVE",
"342 8 OFFCURVE",
"342 29 CURVE SMOOTH",
"342 284 LINE SMOOTH",
"342 287 OFFCURVE",
"345 295 OFFCURVE",
"354 295 CURVE SMOOTH",
"400 295 LINE SMOOTH",
"419 295 OFFCURVE",
"427 290 OFFCURVE",
"431 279 CURVE SMOOTH",
"525 21 LINE SMOOTH",
"529 7 OFFCURVE",
"538 0 OFFCURVE",
"552 0 CURVE SMOOTH",
"746 0 LINE SMOOTH",
"762 0 OFFCURVE",
"771 15 OFFCURVE",
"764 32 CURVE SMOOTH"
);
},
{
closed = 1;
nodes = (
"359 444 LINE SMOOTH",
"346 444 OFFCURVE",
"342 450 OFFCURVE",
"342 465 CURVE SMOOTH",
"342 574 LINE SMOOTH",
"342 589 OFFCURVE",
"348 594 OFFCURVE",
"365 594 CURVE SMOOTH",
"453 594 LINE SMOOTH",
"498 594 OFFCURVE",
"538 567 OFFCURVE",
"538 516 CURVE SMOOTH",
"538 473 OFFCURVE",
"510 444 OFFCURVE",
"459 444 CURVE SMOOTH"
);
}
);
};
layerId = "258ED206-D907-4350-8EBA-CBDDA1C16BF7";
paths = (
{
closed = 1;
nodes = (
"540 280 LINE",
"613 321 OFFCURVE",
"668 379 OFFCURVE",
"684 490 CURVE SMOOTH",
"702 621 OFFCURVE",
"644 723 OFFCURVE",
"456 723 CURVE SMOOTH",
"129 723 LINE",
"27 0 LINE",
"222 0 LINE",
"257 248 LINE",
"359 248 LINE",
"429 0 LINE",
"627 0 LINE"
);
},
{
closed = 1;
nodes = (
"277 394 LINE",
"303 579 LINE",
"414 579 LINE SMOOTH",
"458 579 OFFCURVE",
"495 538 OFFCURVE",
"488 487 CURVE SMOOTH",
"481 440 OFFCURVE",
"437 394 OFFCURVE",
"388 394 CURVE SMOOTH"
);
}
);
width = 704;
},
{
anchors = (
{
name = bottom;
position = "{293, 0}";
},
{
name = top;
position = "{388, 723}";
}
);
background = {
anchors = (
{
name = bottom;
position = "{405, 0}";
},
{
name = top;
position = "{398, 742}";
}
);
paths = (
{
closed = 1;
nodes = (
"517 359 LINE",
"516 362 OFFCURVE",
"517 365 OFFCURVE",
"521 366 CURVE SMOOTH",
"590 384 OFFCURVE",
"673 435 OFFCURVE",
"673 558 CURVE SMOOTH",
"673 680 OFFCURVE",
"589 742 OFFCURVE",
"445 742 CURVE SMOOTH",
"187 742 LINE SMOOTH",
"180 742 OFFCURVE",
"178 740 OFFCURVE",
"178 732 CURVE SMOOTH",
"178 9 LINE SMOOTH",
"178 3 OFFCURVE",
"180 0 OFFCURVE",
"188 0 CURVE SMOOTH",
"214 0 LINE SMOOTH",
"222 0 OFFCURVE",
"224 3 OFFCURVE",
"224 11 CURVE SMOOTH",
"224 344 LINE SMOOTH",
"224 351 OFFCURVE",
"227 355 OFFCURVE",
"236 355 CURVE SMOOTH",
"452 355 LINE SMOOTH",
"465 355 OFFCURVE",
"470 352 OFFCURVE",
"473 345 CURVE SMOOTH",
"615 9 LINE SMOOTH",
"618 3 OFFCURVE",
"620 0 OFFCURVE",
"627 0 CURVE SMOOTH",
"655 0 LINE SMOOTH",
"662 0 OFFCURVE",
"666 7 OFFCURVE",
"663 14 CURVE SMOOTH"
);
},
{
closed = 1;
nodes = (
"231 395 LINE SMOOTH",
"226 395 OFFCURVE",
"224 398 OFFCURVE",
"224 404 CURVE SMOOTH",
"224 694 LINE SMOOTH",
"224 700 OFFCURVE",
"227 702 OFFCURVE",
"235 702 CURVE SMOOTH",
"444 702 LINE SMOOTH",
"565 702 OFFCURVE",
"625 653 OFFCURVE",
"625 551 CURVE SMOOTH",
"625 439 OFFCURVE",
"553 395 OFFCURVE",
"410 395 CURVE SMOOTH"
);
}
);
};
layerId = "91AB5BCA-6A50-42DA-B2F7-8181BF189245";
paths = (
{
closed = 1;
nodes = (
"450 353 LINE",
"522 371 OFFCURVE",
"614 423 OFFCURVE",
"630 544 CURVE SMOOTH",
"647 663 OFFCURVE",
"574 723 OFFCURVE",
"434 723 CURVE SMOOTH",
"179 723 LINE",
"78 0 LINE",
"117 0 LINE",
"165 344 LINE",
"407 344 LINE",
"506 0 LINE",
"550 0 LINE"
);
},
{
closed = 1;
nodes = (
"171 385 LINE",
"212 682 LINE",
"427 682 LINE SMOOTH",
"545 682 OFFCURVE",
"602 639 OFFCURVE",
"588 537 CURVE SMOOTH",
"572 428 OFFCURVE",
"491 385 OFFCURVE",
"352 385 CURVE SMOOTH"
);
}
);
width = 663;
}
);
leftMetricsKey = N;
rightKerningGroup = R;
unicode = 0052;
},
{
glyphname = S;
lastChange = "2017-12-17 19:32:49 +0000";
layers = (
{
anchors = (
{
name = bottom;
position = "{280, 0}";
},
{
name = top;
position = "{381, 723}";
}
);
background = {
anchors = (
{
name = bottom;
position = "{391, 0}";
},
{
name = top;
position = "{391, 742}";
}
);
paths = (
{
closed = 1;
nodes = (
"544 529 OFFCURVE",
"550 528 OFFCURVE",
"560 535 CURVE SMOOTH",
"669 614 LINE SMOOTH",
"682 624 OFFCURVE",
"675 635 OFFCURVE",
"669 644 CURVE SMOOTH",
"623 709 OFFCURVE",
"510 752 OFFCURVE",
"391 752 CURVE SMOOTH",
"202 752 OFFCURVE",
"83 645 OFFCURVE",
"83 515 CURVE SMOOTH",
"83 410 OFFCURVE",
"159 323 OFFCURVE",
"279 293 CURVE SMOOTH",
"431 256 LINE SMOOTH",
"474 246 OFFCURVE",
"494 226 OFFCURVE",
"494 202 CURVE SMOOTH",
"494 165 OFFCURVE",
"446 144 OFFCURVE",
"373 144 CURVE SMOOTH",
"294 144 OFFCURVE",
"255 167 OFFCURVE",
"211 224 CURVE SMOOTH",
"203 234 OFFCURVE",
"191 238 OFFCURVE",
"173 226 CURVE SMOOTH",
"70 155 LINE SMOOTH",
"56 144 OFFCURVE",
"56 136 OFFCURVE",
"64 122 CURVE SMOOTH",
"111 43 OFFCURVE",
"244 -10 OFFCURVE",
"390 -10 CURVE SMOOTH",
"587 -10 OFFCURVE",
"710 86 OFFCURVE",
"710 234 CURVE SMOOTH",
"710 337 OFFCURVE",
"652 421 OFFCURVE",
"527 452 CURVE SMOOTH",
"361 495 LINE SMOOTH",
"311 507 OFFCURVE",
"297 528 OFFCURVE",
"297 546 CURVE SMOOTH",
"297 571 OFFCURVE",
"324 597 OFFCURVE",
"399 597 CURVE SMOOTH",
"477 597 OFFCURVE",
"506 569 OFFCURVE",
"530 543 CURVE SMOOTH"
);
}
);
};
guideLines = (
{
angle = 214.3236;
position = "{552, 404}";
}
);
layerId = "258ED206-D907-4350-8EBA-CBDDA1C16BF7";
paths = (
{
closed = 1;
nodes = (
"469 -10 OFFCURVE",
"602 84 OFFCURVE",
"623 228 CURVE SMOOTH",
"636 328 OFFCURVE",
"589 399 OFFCURVE",
"473 431 CURVE SMOOTH",
"317 473 LINE SMOOTH",
"256 489 OFFCURVE",
"260 514 OFFCURVE",
"262 532 CURVE SMOOTH",
"266 556 OFFCURVE",
"296 582 OFFCURVE",
"369 582 CURVE SMOOTH",
"455 582 OFFCURVE",
"476 548 OFFCURVE",
"503 512 CURVE",
"649 603 LINE",
"614 689 OFFCURVE",
"504 733 OFFCURVE",
"382 733 CURVE SMOOTH",
"198 733 OFFCURVE",
"67 628 OFFCURVE",
"50 502 CURVE SMOOTH",
"35 399 OFFCURVE",
"103 324 OFFCURVE",
"211 295 CURVE SMOOTH",
"366 254 LINE SMOOTH",
"410 243 OFFCURVE",
"412 221 OFFCURVE",
"409 201 CURVE SMOOTH",
"403 161 OFFCURVE",
"344 150 OFFCURVE",
"283 150 CURVE SMOOTH",
"187 150 OFFCURVE",
"152 177 OFFCURVE",
"115 231 CURVE",
"-31 139 LINE",
"4 50 OFFCURVE",
"130 -10 OFFCURVE",
"277 -10 CURVE SMOOTH"
);
}
);
width = 656;
},
{
anchors = (
{
name = bottom;
position = "{269, 0}";
},
{
name = top;
position = "{376, 723}";
}
);
background = {
anchors = (
{
name = bottom;
position = "{390, 0}";
},
{
name = top;
position = "{386, 742}";
}
);
paths = (
{
closed = 1;
nodes = (
"573 620 OFFCURVE",
"575 618 OFFCURVE",
"580 622 CURVE SMOOTH",
"602 642 LINE SMOOTH",
"608 647 OFFCURVE",
"606 652 OFFCURVE",
"602 656 CURVE SMOOTH",
"545 716 OFFCURVE",
"478 752 OFFCURVE",
"385 752 CURVE SMOOTH",
"248 752 OFFCURVE",
"153 681 OFFCURVE",
"153 556 CURVE SMOOTH",
"153 492 OFFCURVE",
"183 421 OFFCURVE",
"291 380 CURVE SMOOTH",
"442 322 LINE SMOOTH",
"551 280 OFFCURVE",
"574 239 OFFCURVE",
"574 180 CURVE SMOOTH",
"574 73 OFFCURVE",
"495 32 OFFCURVE",
"376 32 CURVE SMOOTH",
"269 32 OFFCURVE",
"221 69 OFFCURVE",
"165 141 CURVE SMOOTH",
"160 147 OFFCURVE",
"155 148 OFFCURVE",
"145 141 CURVE SMOOTH",
"134 133 LINE SMOOTH",
"124 126 OFFCURVE",
"123 120 OFFCURVE",
"128 113 CURVE SMOOTH",
"187 29 OFFCURVE",
"265 -10 OFFCURVE",
"376 -10 CURVE SMOOTH",
"527 -10 OFFCURVE",
"620 60 OFFCURVE",
"620 182 CURVE SMOOTH",
"620 266 OFFCURVE",
"577 326 OFFCURVE",
"459 369 CURVE SMOOTH",
"321 419 LINE SMOOTH",
"214 458 OFFCURVE",
"199 518 OFFCURVE",
"199 557 CURVE SMOOTH",
"199 656 OFFCURVE",
"273 710 OFFCURVE",
"382 710 CURVE SMOOTH",
"466 710 OFFCURVE",
"527 674 OFFCURVE",
"567 627 CURVE SMOOTH"
);
}
);
};
layerId = "91AB5BCA-6A50-42DA-B2F7-8181BF189245";
paths = (
{
closed = 1;
nodes = (
"410 -10 OFFCURVE",
"511 58 OFFCURVE",
"527 177 CURVE SMOOTH",
"539 259 OFFCURVE",
"506 318 OFFCURVE",
"397 360 CURVE SMOOTH",
"269 408 LINE SMOOTH",
"170 446 OFFCURVE",
"160 505 OFFCURVE",
"165 543 CURVE SMOOTH",
"178 639 OFFCURVE",
"261 690 OFFCURVE",
"367 690 CURVE SMOOTH",
"453 690 OFFCURVE",
"510 653 OFFCURVE",
"544 602 CURVE",
"581 631 LINE",
"532 695 OFFCURVE",
"470 733 OFFCURVE",
"376 733 CURVE SMOOTH",
"243 733 OFFCURVE",
"140 663 OFFCURVE",
"124 542 CURVE SMOOTH",
"115 479 OFFCURVE",
"135 417 OFFCURVE",
"235 377 CURVE SMOOTH",
"374 321 LINE SMOOTH",
"474 280 OFFCURVE",
"493 233 OFFCURVE",
"485 175 CURVE SMOOTH",
"471 71 OFFCURVE",
"385 33 OFFCURVE",
"269 33 CURVE SMOOTH",
"161 33 OFFCURVE",
"119 70 OFFCURVE",
"73 146 CURVE",
"33 121 LINE",
"79 31 OFFCURVE",
"152 -10 OFFCURVE",
"263 -10 CURVE SMOOTH"
);
}
);
width = 601;
}
);
leftKerningGroup = S;
rightKerningGroup = S;
unicode = 0053;
},
{
glyphname = Schwa;
lastChange = "2017-12-17 19:32:49 +0000";
layers = (
{
background = {
paths = (
{
closed = 1;
nodes = (
"530 437 OFFCURVE",
"517 425 OFFCURVE",
"504 425 CURVE SMOOTH",
"71 425 LINE SMOOTH",
"49 425 OFFCURVE",
"52 420 OFFCURVE",
"49 403 CURVE SMOOTH",
"13 142 OFFCURVE",
"116 -10 OFFCURVE",
"353 -10 CURVE SMOOTH",
"542 -10 OFFCURVE",
"730 152 OFFCURVE",
"761 369 CURVE SMOOTH",
"792 593 OFFCURVE",
"673 752 OFFCURVE",
"447 752 CURVE SMOOTH",
"305 752 OFFCURVE",
"193 694 OFFCURVE",
"114 577 CURVE SMOOTH",
"105 556 OFFCURVE",
"108 544 OFFCURVE",
"119 538 CURVE SMOOTH",
"249 471 LINE SMOOTH",
"264 462 OFFCURVE",
"268 457 OFFCURVE",
"274 459 CURVE SMOOTH",
"330 539 OFFCURVE",
"375 578 OFFCURVE",
"441 578 CURVE SMOOTH",
"535 578 OFFCURVE",
"541 512 OFFCURVE",
"533 458 CURVE SMOOTH"
);
},
{
closed = 1;
nodes = (
"482 198 OFFCURVE",
"442 146 OFFCURVE",
"357 146 CURVE SMOOTH",
"293 146 OFFCURVE",
"263 195 OFFCURVE",
"272 256 CURVE SMOOTH",
"275 276 OFFCURVE",
"285 285 OFFCURVE",
"302 285 CURVE SMOOTH",
"507 290 LINE"
);
}
);
};
layerId = "258ED206-D907-4350-8EBA-CBDDA1C16BF7";
paths = (
{
closed = 1;
nodes = (
"51 414 LINE",
"16 146 OFFCURVE",
"115 -10 OFFCURVE",
"344 -10 CURVE SMOOTH",
"528 -10 OFFCURVE",
"711 148 OFFCURVE",
"741 360 CURVE SMOOTH",
"772 578 OFFCURVE",
"656 733 OFFCURVE",
"436 733 CURVE SMOOTH",
"289 733 OFFCURVE",
"174 667 OFFCURVE",
"94 536 CURVE",
"267 446 LINE",
"322 525 OFFCURVE",
"365 563 OFFCURVE",
"430 563 CURVE SMOOTH",
"516 563 OFFCURVE",
"522 481 OFFCURVE",
"514 414 CURVE"
);
},
{
closed = 1;
nodes = (
"470 193 OFFCURVE",
"431 142 OFFCURVE",
"348 142 CURVE SMOOTH",
"288 142 OFFCURVE",
"261 203 OFFCURVE",
"269 277 CURVE",
"494 283 LINE"
);
}
);
width = 756;
},
{
background = {
paths = (
{
closed = 1;
nodes = (
"621 382 OFFCURVE",
"619 380 OFFCURVE",
"614 380 CURVE SMOOTH",
"79 380 LINE SMOOTH",
"71 380 OFFCURVE",
"72 376 OFFCURVE",
"71 371 CURVE SMOOTH",
"43 175 OFFCURVE",
"84 -10 OFFCURVE",
"320 -10 CURVE SMOOTH",
"548 -10 OFFCURVE",
"645 179 OFFCURVE",
"671 364 CURVE SMOOTH",
"694 530 OFFCURVE",
"674 752 OFFCURVE",
"423 752 CURVE SMOOTH",
"196 752 OFFCURVE",
"127 561 OFFCURVE",
"105 524 CURVE SMOOTH",
"104 518 OFFCURVE",
"103 514 OFFCURVE",
"107 513 CURVE SMOOTH",
"143 500 LINE SMOOTH",
"147 499 OFFCURVE",
"148 497 OFFCURVE",
"150 498 CURVE SMOOTH",
"167 530 OFFCURVE",
"211 709 OFFCURVE",
"421 709 CURVE SMOOTH",
"638 709 OFFCURVE",
"639 505 OFFCURVE",
"622 388 CURVE SMOOTH"
);
},
{
closed = 1;
nodes = (
"592 192 OFFCURVE",
"519 33 OFFCURVE",
"322 33 CURVE SMOOTH",
"126 33 OFFCURVE",
"98 191 OFFCURVE",
"117 330 CURVE SMOOTH",
"118 335 OFFCURVE",
"121 338 OFFCURVE",
"127 338 CURVE SMOOTH",
"615 339 LINE"
);
}
);
};
layerId = "91AB5BCA-6A50-42DA-B2F7-8181BF189245";
paths = (
{
closed = 1;
nodes = (
"75 370 LINE",
"48 174 OFFCURVE",
"88 -10 OFFCURVE",
"317 -10 CURVE SMOOTH",
"539 -10 OFFCURVE",
"633 174 OFFCURVE",
"659 355 CURVE SMOOTH",
"681 516 OFFCURVE",
"662 733 OFFCURVE",
"417 733 CURVE SMOOTH",
"192 733 OFFCURVE",
"124 540 OFFCURVE",
"102 503 CURVE",
"151 484 LINE",
"168 516 OFFCURVE",
"210 691 OFFCURVE",
"415 691 CURVE SMOOTH",
"626 691 OFFCURVE",
"626 487 OFFCURVE",
"610 370 CURVE"
);
},
{
closed = 1;
nodes = (
"582 187 OFFCURVE",
"511 32 OFFCURVE",
"319 32 CURVE SMOOTH",
"129 32 OFFCURVE",
"101 190 OFFCURVE",
"120 329 CURVE",
"604 330 LINE"
);
}
);
width = 704;
}
);
leftMetricsKey = O;
rightMetricsKey = O;
unicode = 018F;
},
{
glyphname = T;
lastChange = "2017-12-17 19:32:49 +0000";
layers = (
{
anchors = (
{
name = bottom;
position = "{285, 0}";
},
{
name = top;
position = "{387, 723}";
}
);
background = {
anchors = (
{
name = bottom;
position = "{401, 0}";
},
{
name = top;
position = "{401, 742}";
}
);
paths = (
{
closed = 1;
nodes = (
"77 586 OFFCURVE",
"86 581 OFFCURVE",
"100 581 CURVE SMOOTH",
"276 581 LINE SMOOTH",
"284 581 OFFCURVE",
"287 577 OFFCURVE",
"287 567 CURVE SMOOTH",
"287 20 LINE SMOOTH",
"287 7 OFFCURVE",
"294 0 OFFCURVE",
"305 0 CURVE SMOOTH",
"495 0 LINE SMOOTH",
"506 0 OFFCURVE",
"514 7 OFFCURVE",
"514 22 CURVE SMOOTH",
"514 571 LINE SMOOTH",
"514 578 OFFCURVE",
"518 581 OFFCURVE",
"526 581 CURVE SMOOTH",
"703 581 LINE SMOOTH",
"716 581 OFFCURVE",
"725 586 OFFCURVE",
"725 600 CURVE SMOOTH",
"725 719 LINE SMOOTH",
"725 732 OFFCURVE",
"717 742 OFFCURVE",
"700 742 CURVE SMOOTH",
"102 742 LINE SMOOTH",
"85 742 OFFCURVE",
"77 732 OFFCURVE",
"77 719 CURVE SMOOTH",
"77 600 LINE SMOOTH"
);
}
);
};
layerId = "258ED206-D907-4350-8EBA-CBDDA1C16BF7";
paths = (
{
closed = 1;
nodes = (
"256 551 LINE",
"179 0 LINE",
"374 0 LINE",
"451 551 LINE",
"658 551 LINE",
"682 723 LINE",
"75 723 LINE",
"51 551 LINE"
);
}
);
width = 626;
},
{
anchors = (
{
name = bottom;
position = "{246, 0}";
},
{
name = top;
position = "{347, 723}";
}
);
background = {
anchors = (
{
name = bottom;
position = "{356, 0}";
},
{
name = top;
position = "{356, 742}";
}
);
paths = (
{
closed = 1;
nodes = (
"80 703 OFFCURVE",
"82 702 OFFCURVE",
"88 702 CURVE SMOOTH",
"322 702 LINE SMOOTH",
"330 702 OFFCURVE",
"332 701 OFFCURVE",
"332 693 CURVE SMOOTH",
"332 10 LINE SMOOTH",
"332 2 OFFCURVE",
"334 0 OFFCURVE",
"342 0 CURVE SMOOTH",
"369 0 LINE SMOOTH",
"376 0 OFFCURVE",
"378 2 OFFCURVE",
"378 10 CURVE SMOOTH",
"378 693 LINE SMOOTH",
"378 701 OFFCURVE",
"380 702 OFFCURVE",
"388 702 CURVE SMOOTH",
"601 702 LINE SMOOTH",
"607 702 OFFCURVE",
"609 703 OFFCURVE",
"609 709 CURVE SMOOTH",
"609 735 LINE SMOOTH",
"609 740 OFFCURVE",
"607 742 OFFCURVE",
"602 742 CURVE SMOOTH",
"87 742 LINE SMOOTH",
"82 742 OFFCURVE",
"80 740 OFFCURVE",
"80 735 CURVE SMOOTH",
"80 709 LINE SMOOTH"
);
}
);
};
layerId = "91AB5BCA-6A50-42DA-B2F7-8181BF189245";
paths = (
{
closed = 1;
nodes = (
"321 682 LINE",
"225 0 LINE",
"264 0 LINE",
"360 682 LINE",
"588 682 LINE",
"593 723 LINE",
"78 723 LINE",
"72 682 LINE"
);
}
);
width = 541;
}
);
leftKerningGroup = T;
rightKerningGroup = T;
unicode = 0054;
},
{
glyphname = Tbar;
lastChange = "2017-12-17 19:32:49 +0000";
layers = (
{
background = {
components = (
{
name = T;
}
);
paths = (
{
closed = 1;
nodes = (
"591 408 OFFCURVE",
"582 422 OFFCURVE",
"571 422 CURVE SMOOTH",
"170 422 LINE SMOOTH",
"158 422 OFFCURVE",
"155 420 OFFCURVE",
"153 405 CURVE SMOOTH",
"140 312 LINE SMOOTH",
"138 295 OFFCURVE",
"145 281 OFFCURVE",
"165 281 CURVE SMOOTH",
"544 281 LINE SMOOTH",
"567 281 OFFCURVE",
"573 283 OFFCURVE",
"576 303 CURVE SMOOTH",
"589 396 LINE SMOOTH"
);
}
);
};
components = (
{
name = T;
}
);
layerId = "258ED206-D907-4350-8EBA-CBDDA1C16BF7";
paths = (
{
closed = 1;
nodes = (
"151 411 LINE",
"133 274 LINE",
"558 274 LINE",
"578 411 LINE"
);
}
);
width = 626;
},
{
background = {
components = (
{
name = T;
}
);
guideLines = (
{
angle = 90;
position = "{212, 188}";
showMeasurement = 1;
}
);
paths = (
{
closed = 1;
nodes = (
"528 398 OFFCURVE",
"525 402 OFFCURVE",
"520 402 CURVE SMOOTH",
"168 402 LINE SMOOTH",
"163 402 OFFCURVE",
"162 400 OFFCURVE",
"161 394 CURVE SMOOTH",
"158 371 LINE SMOOTH",
"157 364 OFFCURVE",
"159 360 OFFCURVE",
"167 360 CURVE SMOOTH",
"510 360 LINE SMOOTH",
"519 360 OFFCURVE",
"523 362 OFFCURVE",
"524 370 CURVE SMOOTH",
"527 393 LINE SMOOTH"
);
}
);
};
components = (
{
name = T;
}
);
guideLines = (
{
angle = 90;
position = "{212, 174}";
showMeasurement = 1;
}
);
layerId = "91AB5BCA-6A50-42DA-B2F7-8181BF189245";
paths = (
{
closed = 1;
nodes = (
"163 392 LINE",
"158 351 LINE",
"514 351 LINE",
"519 392 LINE"
);
}
);
width = 541;
}
);
leftMetricsKey = T;
rightMetricsKey = T;
unicode = 0166;
},
{
glyphname = U;
lastChange = "2017-12-17 19:32:49 +0000";
layers = (
{
anchors = (
{
name = ogonek;
position = "{419, 12}";
},
{
name = top;
position = "{423, 723}";
}
);
background = {
anchors = (
{
name = ogonek;
position = "{549, 10}";
},
{
name = top;
position = "{454, 742}";
}
);
paths = (
{
closed = 1;
nodes = (
"757 721 LINE SMOOTH",
"757 734 OFFCURVE",
"751 742 OFFCURVE",
"739 742 CURVE SMOOTH",
"589 742 LINE SMOOTH",
"577 742 OFFCURVE",
"570 734 OFFCURVE",
"570 719 CURVE SMOOTH",
"570 292 LINE SMOOTH",
"570 181 OFFCURVE",
"516 149 OFFCURVE",
"454 149 CURVE SMOOTH",
"386 149 OFFCURVE",
"344 187 OFFCURVE",
"344 289 CURVE SMOOTH",
"344 721 LINE SMOOTH",
"344 734 OFFCURVE",
"338 742 OFFCURVE",
"326 742 CURVE SMOOTH",
"136 742 LINE SMOOTH",
"125 742 OFFCURVE",
"117 734 OFFCURVE",
"117 719 CURVE SMOOTH",
"117 313 LINE SMOOTH",
"117 104 OFFCURVE",
"198 -10 OFFCURVE",
"437 -10 CURVE SMOOTH",
"628 -10 OFFCURVE",
"757 62 OFFCURVE",
"757 293 CURVE SMOOTH"
);
}
);
};
layerId = "258ED206-D907-4350-8EBA-CBDDA1C16BF7";
paths = (
{
closed = 1;
nodes = (
"752 723 LINE",
"555 723 LINE",
"495 290 LINE SMOOTH",
"480 191 OFFCURVE",
"421 153 OFFCURVE",
"360 153 CURVE SMOOTH",
"300 153 OFFCURVE",
"250 191 OFFCURVE",
"265 290 CURVE SMOOTH",
"325 723 LINE",
"129 723 LINE",
"69 299 LINE SMOOTH",
"43 115 OFFCURVE",
"104 -10 OFFCURVE",
"337 -10 CURVE SMOOTH",
"570 -10 OFFCURVE",
"666 115 OFFCURVE",
"693 299 CURVE SMOOTH"
);
}
);
width = 750;
},
{
anchors = (
{
name = ogonek;
position = "{388, 9}";
},
{
name = top;
position = "{422, 723}";
}
);
background = {
anchors = (
{
name = ogonek;
position = "{501, 9}";
},
{
name = top;
position = "{433, 742}";
}
);
paths = (
{
closed = 1;
nodes = (
"676 733 LINE SMOOTH",
"676 739 OFFCURVE",
"674 742 OFFCURVE",
"668 742 CURVE SMOOTH",
"644 742 LINE SMOOTH",
"638 742 OFFCURVE",
"636 739 OFFCURVE",
"636 733 CURVE SMOOTH",
"636 229 LINE SMOOTH",
"636 97 OFFCURVE",
"569 32 OFFCURVE",
"431 32 CURVE SMOOTH",
"295 32 OFFCURVE",
"228 96 OFFCURVE",
"228 226 CURVE SMOOTH",
"228 732 LINE SMOOTH",
"228 740 OFFCURVE",
"226 742 OFFCURVE",
"218 742 CURVE SMOOTH",
"190 742 LINE SMOOTH",
"184 742 OFFCURVE",
"182 739 OFFCURVE",
"182 731 CURVE SMOOTH",
"182 245 LINE SMOOTH",
"182 71 OFFCURVE",
"261 -10 OFFCURVE",
"429 -10 CURVE SMOOTH",
"595 -10 OFFCURVE",
"676 69 OFFCURVE",
"676 230 CURVE SMOOTH"
);
}
);
};
layerId = "91AB5BCA-6A50-42DA-B2F7-8181BF189245";
paths = (
{
closed = 1;
nodes = (
"659 723 LINE",
"620 723 LINE",
"550 222 LINE SMOOTH",
"531 94 OFFCURVE",
"455 28 OFFCURVE",
"321 28 CURVE SMOOTH",
"188 28 OFFCURVE",
"133 95 OFFCURVE",
"152 222 CURVE SMOOTH",
"222 723 LINE",
"179 723 LINE",
"111 239 LINE SMOOTH",
"88 69 OFFCURVE",
"151 -10 OFFCURVE",
"315 -10 CURVE SMOOTH",
"476 -10 OFFCURVE",
"566 67 OFFCURVE",
"588 224 CURVE SMOOTH"
);
}
);
width = 707;
}
);
leftKerningGroup = U;
rightKerningGroup = U;
unicode = 0055;
},
{
glyphname = V;
lastChange = "2017-12-17 19:32:49 +0000";
layers = (
{
background = {
paths = (
{
closed = 1;
nodes = (
"614 742 LINE SMOOTH",
"602 742 OFFCURVE",
"591 734 OFFCURVE",
"588 721 CURVE SMOOTH",
"463 283 LINE SMOOTH",
"460 273 OFFCURVE",
"456 273 OFFCURVE",
"453 282 CURVE SMOOTH",
"319 721 LINE SMOOTH",
"315 734 OFFCURVE",
"306 742 OFFCURVE",
"294 742 CURVE SMOOTH",
"101 742 LINE SMOOTH",
"85 742 OFFCURVE",
"76 728 OFFCURVE",
"82 713 CURVE SMOOTH",
"314 25 LINE SMOOTH",
"319 8 OFFCURVE",
"331 0 OFFCURVE",
"351 0 CURVE SMOOTH",
"513 0 LINE SMOOTH",
"533 0 OFFCURVE",
"545 8 OFFCURVE",
"550 25 CURVE SMOOTH",
"782 713 LINE SMOOTH",
"787 728 OFFCURVE",
"779 742 OFFCURVE",
"763 742 CURVE SMOOTH"
);
}
);
};
guideLines = (
{
angle = -108.62;
position = "{274, 222}";
}
);
layerId = "258ED206-D907-4350-8EBA-CBDDA1C16BF7";
paths = (
{
closed = 1;
nodes = (
"588 723 LINE",
"352 228 LINE",
"253 723 LINE",
"70 723 LINE",
"212 0 LINE",
"427 0 LINE",
"772 723 LINE"
);
}
);
width = 711;
},
{
background = {
paths = (
{
closed = 1;
nodes = (
"636 742 LINE SMOOTH",
"630 742 OFFCURVE",
"627 740 OFFCURVE",
"625 735 CURVE SMOOTH",
"381 65 LINE SMOOTH",
"376 51 OFFCURVE",
"370 51 OFFCURVE",
"365 64 CURVE SMOOTH",
"128 734 LINE SMOOTH",
"126 740 OFFCURVE",
"123 742 OFFCURVE",
"115 742 CURVE SMOOTH",
"92 742 LINE SMOOTH",
"85 742 OFFCURVE",
"82 738 OFFCURVE",
"84 732 CURVE SMOOTH",
"339 10 LINE SMOOTH",
"341 3 OFFCURVE",
"347 0 OFFCURVE",
"358 0 CURVE SMOOTH",
"390 0 LINE SMOOTH",
"399 0 OFFCURVE",
"403 3 OFFCURVE",
"406 11 CURVE SMOOTH",
"668 733 LINE SMOOTH",
"670 738 OFFCURVE",
"667 742 OFFCURVE",
"661 742 CURVE SMOOTH"
);
}
);
};
layerId = "91AB5BCA-6A50-42DA-B2F7-8181BF189245";
paths = (
{
closed = 1;
nodes = (
"612 723 LINE",
"268 41 LINE",
"122 723 LINE",
"78 723 LINE",
"233 0 LINE",
"290 0 LINE",
"654 723 LINE"
);
}
);
width = 601;
}
);
leftKerningGroup = V;
rightKerningGroup = V;
unicode = 0056;
},
{
glyphname = W;
lastChange = "2017-12-17 19:32:49 +0000";
layers = (
{
anchors = (
{
name = top;
position = "{550, 723}";
}
);
background = {
anchors = (
{
name = top;
position = "{588, 742}";
}
);
paths = (
{
closed = 1;
nodes = (
"968 742 LINE SMOOTH",
"947 742 OFFCURVE",
"939 734 OFFCURVE",
"936 721 CURVE SMOOTH",
"834 339 LINE SMOOTH",
"832 331 OFFCURVE",
"825 333 OFFCURVE",
"823 341 CURVE SMOOTH",
"713 721 LINE SMOOTH",
"709 734 OFFCURVE",
"702 742 OFFCURVE",
"681 742 CURVE SMOOTH",
"541 742 LINE SMOOTH",
"520 742 OFFCURVE",
"512 734 OFFCURVE",
"509 721 CURVE SMOOTH",
"404 346 LINE SMOOTH",
"401 335 OFFCURVE",
"396 335 OFFCURVE",
"392 350 CURVE SMOOTH",
"286 721 LINE SMOOTH",
"282 734 OFFCURVE",
"275 742 OFFCURVE",
"254 742 CURVE SMOOTH",
"89 742 LINE SMOOTH",
"63 742 OFFCURVE",
"53 725 OFFCURVE",
"59 702 CURVE SMOOTH",
"263 25 LINE SMOOTH",
"269 8 OFFCURVE",
"279 0 OFFCURVE",
"299 0 CURVE SMOOTH",
"442 0 LINE SMOOTH",
"463 0 OFFCURVE",
"473 8 OFFCURVE",
"478 25 CURVE SMOOTH",
"581 375 LINE SMOOTH",
"588 395 OFFCURVE",
"593 393 OFFCURVE",
"597 377 CURVE SMOOTH",
"701 25 LINE SMOOTH",
"706 8 OFFCURVE",
"717 0 OFFCURVE",
"737 0 CURVE SMOOTH",
"875 0 LINE SMOOTH",
"895 0 OFFCURVE",
"905 8 OFFCURVE",
"911 25 CURVE SMOOTH",
"1114 702 LINE SMOOTH",
"1120 725 OFFCURVE",
"1110 742 OFFCURVE",
"1084 742 CURVE SMOOTH"
);
}
);
};
guideLines = (
{
angle = -73.94;
position = "{256, 704}";
},
{
angle = 74.3834;
position = "{471, 704}";
}
);
layerId = "258ED206-D907-4350-8EBA-CBDDA1C16BF7";
paths = (
{
closed = 1;
nodes = (
"839 723 LINE",
"676 335 LINE",
"619 723 LINE",
"483 723 LINE",
"321 335 LINE",
"263 723 LINE",
"75 723 LINE",
"192 0 LINE",
"335 0 LINE",
"505 393 LINE",
"564 0 LINE",
"709 0 LINE",
"1027 723 LINE"
);
}
);
width = 971;
},
{
anchors = (
{
name = top;
position = "{539, 723}";
}
);
background = {
anchors = (
{
name = top;
position = "{553, 742}";
}
);
guideLines = (
{
position = "{87, 125}";
showMeasurement = 1;
}
);
paths = (
{
closed = 1;
nodes = (
"975 742 LINE SMOOTH",
"969 742 OFFCURVE",
"964 740 OFFCURVE",
"963 735 CURVE SMOOTH",
"774 72 LINE SMOOTH",
"770 58 OFFCURVE",
"766 58 OFFCURVE",
"762 71 CURVE SMOOTH",
"577 734 LINE SMOOTH",
"575 740 OFFCURVE",
"573 742 OFFCURVE",
"565 742 CURVE SMOOTH",
"540 742 LINE SMOOTH",
"531 742 OFFCURVE",
"528 738 OFFCURVE",
"527 735 CURVE SMOOTH",
"338 72 LINE SMOOTH",
"334 58 OFFCURVE",
"330 58 OFFCURVE",
"326 71 CURVE SMOOTH",
"141 734 LINE SMOOTH",
"139 740 OFFCURVE",
"137 742 OFFCURVE",
"129 742 CURVE SMOOTH",
"104 742 LINE SMOOTH",
"97 742 OFFCURVE",
"94 738 OFFCURVE",
"96 732 CURVE SMOOTH",
"298 10 LINE SMOOTH",
"300 3 OFFCURVE",
"306 0 OFFCURVE",
"316 0 CURVE SMOOTH",
"348 0 LINE SMOOTH",
"358 0 OFFCURVE",
"362 3 OFFCURVE",
"364 11 CURVE SMOOTH",
"549 658 LINE SMOOTH",
"550 662 OFFCURVE",
"552 662 OFFCURVE",
"553 658 CURVE SMOOTH",
"734 10 LINE SMOOTH",
"736 3 OFFCURVE",
"742 0 OFFCURVE",
"752 0 CURVE SMOOTH",
"784 0 LINE SMOOTH",
"794 0 OFFCURVE",
"798 3 OFFCURVE",
"800 11 CURVE SMOOTH",
"1007 733 LINE SMOOTH",
"1008 738 OFFCURVE",
"1006 742 OFFCURVE",
"1000 742 CURVE SMOOTH"
);
}
);
};
guideLines = (
{
position = "{15, 116}";
showMeasurement = 1;
}
);
layerId = "91AB5BCA-6A50-42DA-B2F7-8181BF189245";
paths = (
{
closed = 1;
nodes = (
"932 723 LINE",
"646 49 LINE",
"552 723 LINE",
"513 723 LINE",
"227 49 LINE",
"136 723 LINE",
"93 723 LINE",
"194 0 LINE",
"246 0 LINE",
"521 648 LINE",
"612 0 LINE",
"666 0 LINE",
"975 723 LINE"
);
}
);
width = 937;
}
);
leftKerningGroup = W;
rightKerningGroup = W;
unicode = 0057;
},
{
glyphname = X;
lastChange = "2017-12-17 19:32:49 +0000";
layers = (
{
background = {
paths = (
{
closed = 1;
nodes = (
"561 403 LINE",
"783 742 LINE",
"566 742 LINE",
"452 541 LINE",
"338 742 LINE",
"83 742 LINE",
"319 374 LINE",
"110 51 LINE SMOOTH",
"84 11 OFFCURVE",
"95 0 OFFCURVE",
"123 0 CURVE SMOOTH",
"297 0 LINE",
"430 233 LINE",
"566 0 LINE",
"776 0 LINE SMOOTH",
"804 0 OFFCURVE",
"815 12 OFFCURVE",
"790 51 CURVE SMOOTH"
);
}
);
};
layerId = "258ED206-D907-4350-8EBA-CBDDA1C16BF7";
paths = (
{
closed = 1;
nodes = (
"486 393 LINE",
"749 723 LINE",
"545 723 LINE",
"406 527 LINE",
"322 723 LINE",
"81 723 LINE",
"260 364 LINE",
"-26 0 LINE",
"181 0 LINE",
"342 227 LINE",
"443 0 LINE",
"687 0 LINE"
);
}
);
width = 733;
},
{
background = {
guideLines = (
{
angle = 90;
position = "{107, 437}";
},
{
angle = 90;
position = "{618, 372}";
},
{
position = "{73, 716}";
showMeasurement = 1;
},
{
position = "{67, 32}";
showMeasurement = 1;
},
{
position = "{137, 454}";
showMeasurement = 1;
},
{
position = "{135, 290}";
showMeasurement = 1;
},
{
angle = 236.602;
position = "{350, 374}";
},
{
angle = 123.344;
position = "{407, 374}";
},
{
angle = 56.5817;
position = "{395, 370}";
},
{
angle = 123.4;
position = "{360, 370}";
}
);
paths = (
{
closed = 1;
nodes = (
"409 374 LINE SMOOTH",
"405 380 OFFCURVE",
"406 384 OFFCURVE",
"410 390 CURVE SMOOTH",
"644 736 LINE SMOOTH",
"646 739 OFFCURVE",
"646 742 OFFCURVE",
"642 742 CURVE SMOOTH",
"601 742 LINE SMOOTH",
"597 742 OFFCURVE",
"595 741 OFFCURVE",
"593 738 CURVE SMOOTH",
"386 431 LINE SMOOTH",
"379 421 OFFCURVE",
"375 422 OFFCURVE",
"369 430 CURVE SMOOTH",
"162 738 LINE SMOOTH",
"160 741 OFFCURVE",
"159 742 OFFCURVE",
"153 742 CURVE SMOOTH",
"114 742 LINE SMOOTH",
"110 742 OFFCURVE",
"109 737 OFFCURVE",
"111 734 CURVE SMOOTH",
"343 391 LINE SMOOTH",
"348 383 OFFCURVE",
"349 377 OFFCURVE",
"344 370 CURVE SMOOTH",
"102 10 LINE SMOOTH",
"97 2 OFFCURVE",
"99 0 OFFCURVE",
"105 0 CURVE SMOOTH",
"141 0 LINE SMOOTH",
"144 0 OFFCURVE",
"147 1 OFFCURVE",
"149 4 CURVE SMOOTH",
"366 324 LINE SMOOTH",
"376 339 OFFCURVE",
"380 338 OFFCURVE",
"387 327 CURVE SMOOTH",
"607 4 LINE SMOOTH",
"609 1 OFFCURVE",
"610 0 OFFCURVE",
"614 0 CURVE SMOOTH",
"650 0 LINE SMOOTH",
"656 0 OFFCURVE",
"660 2 OFFCURVE",
"654 10 CURVE SMOOTH"
);
}
);
};
guideLines = (
{
angle = 90;
position = "{114, 404}";
},
{
angle = 90;
position = "{570, 344}";
},
{
position = "{155, 662}";
showMeasurement = 1;
},
{
position = "{-29, 30}";
showMeasurement = 1;
},
{
position = "{146, 420}";
showMeasurement = 1;
},
{
position = "{102, 268}";
showMeasurement = 1;
},
{
angle = 236.602;
position = "{323, 346}";
},
{
angle = 123.344;
position = "{375, 346}";
},
{
angle = 56.5817;
position = "{362, 342}";
},
{
angle = 123.4;
position = "{330, 342}";
}
);
layerId = "91AB5BCA-6A50-42DA-B2F7-8181BF189245";
paths = (
{
closed = 1;
nodes = (
"344 371 LINE",
"631 723 LINE",
"581 723 LINE",
"322 407 LINE",
"155 723 LINE",
"103 723 LINE",
"292 370 LINE",
"-9 0 LINE",
"41 0 LINE",
"314 332 LINE",
"493 0 LINE",
"543 0 LINE"
);
}
);
width = 606;
}
);
leftKerningGroup = X;
rightKerningGroup = X;
unicode = 0058;
},
{
glyphname = Y;
lastChange = "2017-12-17 19:32:49 +0000";
layers = (
{
anchors = (
{
name = top;
position = "{442, 723}";
}
);
background = {
anchors = (
{
name = top;
position = "{454, 742}";
}
);
paths = (
{
closed = 1;
nodes = (
"627 742 LINE SMOOTH",
"608 742 OFFCURVE",
"601 738 OFFCURVE",
"593 721 CURVE SMOOTH",
"472 498 LINE SMOOTH",
"465 486 OFFCURVE",
"461 487 OFFCURVE",
"455 499 CURVE SMOOTH",
"332 721 LINE SMOOTH",
"323 737 OFFCURVE",
"318 742 OFFCURVE",
"298 742 CURVE SMOOTH",
"97 742 LINE SMOOTH",
"76 742 OFFCURVE",
"69 730 OFFCURVE",
"79 714 CURVE SMOOTH",
"313 332 LINE SMOOTH",
"322 317 OFFCURVE",
"327 309 OFFCURVE",
"327 288 CURVE SMOOTH",
"327 25 LINE SMOOTH",
"327 8 OFFCURVE",
"333 0 OFFCURVE",
"353 0 CURVE SMOOTH",
"521 0 LINE SMOOTH",
"544 0 OFFCURVE",
"554 8 OFFCURVE",
"554 29 CURVE SMOOTH",
"554 275 LINE SMOOTH",
"554 317 OFFCURVE",
"555 327 OFFCURVE",
"564 341 CURVE SMOOTH",
"798 719 LINE SMOOTH",
"806 732 OFFCURVE",
"801 742 OFFCURVE",
"784 742 CURVE SMOOTH"
);
}
);
};
guideLines = (
{
angle = 58.823;
position = "{545, 704}";
}
);
layerId = "258ED206-D907-4350-8EBA-CBDDA1C16BF7";
paths = (
{
closed = 1;
nodes = (
"559 723 LINE",
"381 466 LINE",
"274 723 LINE",
"64 723 LINE",
"260 301 LINE",
"218 0 LINE",
"413 0 LINE",
"455 301 LINE",
"771 723 LINE"
);
}
);
width = 705;
},
{
anchors = (
{
name = top;
position = "{329, 723}";
}
);
background = {
anchors = (
{
name = top;
position = "{338, 742}";
}
);
paths = (
{
closed = 1;
nodes = (
"580 742 LINE SMOOTH",
"571 742 OFFCURVE",
"569 741 OFFCURVE",
"564 733 CURVE SMOOTH",
"355 374 LINE SMOOTH",
"347 361 OFFCURVE",
"340 360 OFFCURVE",
"331 376 CURVE SMOOTH",
"121 733 LINE SMOOTH",
"117 740 OFFCURVE",
"114 742 OFFCURVE",
"105 742 CURVE SMOOTH",
"82 742 LINE SMOOTH",
"72 742 OFFCURVE",
"70 737 OFFCURVE",
"74 730 CURVE SMOOTH",
"318 315 LINE SMOOTH",
"322 308 OFFCURVE",
"323 305 OFFCURVE",
"323 295 CURVE SMOOTH",
"323 11 LINE SMOOTH",
"323 4 OFFCURVE",
"326 0 OFFCURVE",
"335 0 CURVE SMOOTH",
"354 0 LINE SMOOTH",
"365 0 OFFCURVE",
"369 4 OFFCURVE",
"369 13 CURVE SMOOTH",
"369 306 LINE SMOOTH",
"369 316 OFFCURVE",
"369 320 OFFCURVE",
"373 326 CURVE SMOOTH",
"612 731 LINE SMOOTH",
"616 737 OFFCURVE",
"613 742 OFFCURVE",
"606 742 CURVE SMOOTH"
);
}
);
};
guideLines = (
{
angle = 239.8907;
position = "{220, 295}";
},
{
angle = -59.5603;
position = "{132, 465}";
},
{
angle = 54.2961;
position = "{516, 686}";
}
);
layerId = "91AB5BCA-6A50-42DA-B2F7-8181BF189245";
paths = (
{
closed = 1;
nodes = (
"550 723 LINE",
"281 349 LINE",
"113 723 LINE",
"73 723 LINE",
"257 312 LINE",
"213 0 LINE",
"252 0 LINE",
"296 311 LINE",
"592 723 LINE"
);
}
);
width = 535;
}
);
leftKerningGroup = Y;
rightKerningGroup = Y;
unicode = 0059;
},
{
glyphname = Z;
lastChange = "2017-12-17 19:32:49 +0000";
layers = (
{
anchors = (
{
name = bottom;
position = "{316, 0}";
},
{
name = top;
position = "{440, 723}";
}
);
background = {
anchors = (
{
name = bottom;
position = "{428, 0}";
},
{
name = top;
position = "{452, 742}";
}
);
paths = (
{
closed = 1;
nodes = (
"758 0 LINE",
"758 166 LINE",
"417 166 LINE",
"764 654 LINE",
"764 742 LINE",
"140 742 LINE",
"140 577 LINE",
"447 577 LINE",
"107 91 LINE",
"107 0 LINE"
);
}
);
};
layerId = "258ED206-D907-4350-8EBA-CBDDA1C16BF7";
paths = (
{
closed = 1;
nodes = (
"618 0 LINE",
"640 162 LINE",
"298 162 LINE",
"713 637 LINE",
"725 723 LINE",
"136 723 LINE",
"114 562 LINE",
"423 562 LINE",
"16 89 LINE",
"3 0 LINE"
);
}
);
width = 689;
},
{
anchors = (
{
name = bottom;
position = "{261, 0}";
},
{
name = top;
position = "{356, 723}";
}
);
background = {
anchors = (
{
name = bottom;
position = "{372, 0}";
},
{
name = top;
position = "{365, 742}";
}
);
paths = (
{
closed = 1;
nodes = (
"604 0 LINE",
"604 40 LINE",
"170 40 LINE",
"604 715 LINE",
"604 742 LINE",
"125 742 LINE",
"125 702 LINE",
"546 702 LINE",
"115 28 LINE",
"115 0 LINE"
);
}
);
};
guideLines = (
{
angle = 237.1304;
position = "{545, 658}";
}
);
layerId = "91AB5BCA-6A50-42DA-B2F7-8181BF189245";
paths = (
{
closed = 1;
nodes = (
"487 0 LINE",
"492 39 LINE",
"65 39 LINE",
"585 693 LINE",
"588 723 LINE",
"122 723 LINE",
"116 684 LINE",
"531 684 LINE",
"15 31 LINE",
"11 0 LINE"
);
}
);
width = 570;
}
);
leftKerningGroup = Z;
rightKerningGroup = Z;
unicode = 005A;
},
{
glyphname = a;
lastChange = "2017-12-17 19:32:49 +0000";
layers = (
{
anchors = (
{
name = ogonek;
position = "{467, 10}";
},
{
name = top;
position = "{331, 516}";
}
);
background = {
anchors = (
{
name = ogonek;
position = "{582, 10}";
},
{
name = top;
position = "{370, 530}";
}
);
guideLines = (
{
angle = 90;
position = "{420, 102}";
}
);
paths = (
{
closed = 1;
nodes = (
"413 56 OFFCURVE",
"421 55 OFFCURVE",
"423 42 CURVE SMOOTH",
"424 35 LINE SMOOTH",
"427 16 OFFCURVE",
"432 0 OFFCURVE",
"450 0 CURVE SMOOTH",
"587 0 LINE SMOOTH",
"606 0 OFFCURVE",
"610 7 OFFCURVE",
"610 27 CURVE SMOOTH",
"610 375 LINE SMOOTH",
"610 473 OFFCURVE",
"555 540 OFFCURVE",
"370 540 CURVE SMOOTH",
"239 540 OFFCURVE",
"148 506 OFFCURVE",
"118 421 CURVE SMOOTH",
"109 396 OFFCURVE",
"115 391 OFFCURVE",
"125 389 CURVE SMOOTH",
"256 363 LINE SMOOTH",
"274 360 OFFCURVE",
"278 363 OFFCURVE",
"283 374 CURVE SMOOTH",
"300 411 OFFCURVE",
"333 421 OFFCURVE",
"361 421 CURVE SMOOTH",
"401 421 OFFCURVE",
"420 400 OFFCURVE",
"420 363 CURVE SMOOTH",
"420 346 LINE SMOOTH",
"420 334 OFFCURVE",
"410 332 OFFCURVE",
"405 332 CURVE SMOOTH",
"398 332 LINE SMOOTH",
"209 332 OFFCURVE",
"91 253 OFFCURVE",
"91 136 CURVE SMOOTH",
"91 53 OFFCURVE",
"151 -10 OFFCURVE",
"251 -10 CURVE SMOOTH",
"313 -10 OFFCURVE",
"360 12 OFFCURVE",
"396 42 CURVE SMOOTH"
);
},
{
closed = 1;
nodes = (
"420 171 LINE SMOOTH",
"420 156 OFFCURVE",
"409 145 OFFCURVE",
"397 135 CURVE SMOOTH",
"386 126 OFFCURVE",
"368 116 OFFCURVE",
"342 116 CURVE SMOOTH",
"306 116 OFFCURVE",
"285 135 OFFCURVE",
"285 163 CURVE SMOOTH",
"285 219 OFFCURVE",
"369 242 OFFCURVE",
"401 242 CURVE SMOOTH",
"405 242 LINE SMOOTH",
"417 242 OFFCURVE",
"420 236 OFFCURVE",
"420 224 CURVE SMOOTH"
);
}
);
};
guideLines = (
{
angle = 270;
position = "{138, 97}";
}
);
layerId = "258ED206-D907-4350-8EBA-CBDDA1C16BF7";
paths = (
{
closed = 1;
nodes = (
"240 -10 OFFCURVE",
"299 20 OFFCURVE",
"328 80 CURVE",
"332 0 LINE",
"493 0 LINE",
"544 365 LINE SMOOTH",
"557 461 OFFCURVE",
"513 526 OFFCURVE",
"333 526 CURVE SMOOTH",
"201 526 OFFCURVE",
"101 464 OFFCURVE",
"63 361 CURVE",
"216 350 LINE",
"242 398 OFFCURVE",
"279 410 OFFCURVE",
"308 410 CURVE SMOOTH",
"347 410 OFFCURVE",
"362 390 OFFCURVE",
"358 354 CURVE SMOOTH",
"355 332 LINE",
"315 332 LINE SMOOTH",
"127 332 OFFCURVE",
"30 267 OFFCURVE",
"15 155 CURVE SMOOTH",
"0 48 OFFCURVE",
"72 -10 OFFCURVE",
"170 -10 CURVE SMOOTH"
);
},
{
closed = 1;
nodes = (
"222 113 OFFCURVE",
"194 135 OFFCURVE",
"200 174 CURVE SMOOTH",
"208 230 OFFCURVE",
"279 241 OFFCURVE",
"310 241 CURVE SMOOTH",
"341 241 LINE",
"332 174 LINE",
"326 142 OFFCURVE",
"293 113 OFFCURVE",
"255 113 CURVE SMOOTH"
);
}
);
width = 583;
},
{
anchors = (
{
name = ogonek;
position = "{415, 14}";
},
{
name = top;
position = "{305, 516}";
}
);
background = {
anchors = (
{
name = ogonek;
position = "{528, 14}";
},
{
name = top;
position = "{343, 530}";
}
);
paths = (
{
closed = 1;
nodes = (
"490 78 OFFCURVE",
"494 77 OFFCURVE",
"495 70 CURVE SMOOTH",
"497 9 LINE SMOOTH",
"497 2 OFFCURVE",
"500 0 OFFCURVE",
"506 0 CURVE SMOOTH",
"524 0 LINE SMOOTH",
"530 0 OFFCURVE",
"534 2 OFFCURVE",
"534 10 CURVE SMOOTH",
"534 367 LINE SMOOTH",
"534 475 OFFCURVE",
"460 540 OFFCURVE",
"347 540 CURVE SMOOTH",
"252 540 OFFCURVE",
"185 493 OFFCURVE",
"143 431 CURVE SMOOTH",
"139 426 OFFCURVE",
"140 423 OFFCURVE",
"143 421 CURVE SMOOTH",
"167 406 LINE SMOOTH",
"171 403 OFFCURVE",
"173 405 OFFCURVE",
"177 410 CURVE SMOOTH",
"222 470 OFFCURVE",
"276 502 OFFCURVE",
"345 502 CURVE SMOOTH",
"435 502 OFFCURVE",
"494 448 OFFCURVE",
"494 363 CURVE SMOOTH",
"494 332 LINE SMOOTH",
"494 323 OFFCURVE",
"488 318 OFFCURVE",
"477 317 CURVE SMOOTH",
"372 308 LINE SMOOTH",
"208 294 OFFCURVE",
"125 236 OFFCURVE",
"125 135 CURVE SMOOTH",
"125 45 OFFCURVE",
"190 -10 OFFCURVE",
"295 -10 CURVE SMOOTH",
"369 -10 OFFCURVE",
"430 17 OFFCURVE",
"485 72 CURVE SMOOTH"
);
},
{
closed = 1;
nodes = (
"494 171 LINE SMOOTH",
"494 141 OFFCURVE",
"474 107 OFFCURVE",
"437 77 CURVE SMOOTH",
"399 47 OFFCURVE",
"350 28 OFFCURVE",
"301 28 CURVE SMOOTH",
"220 28 OFFCURVE",
"167 69 OFFCURVE",
"167 138 CURVE SMOOTH",
"167 215 OFFCURVE",
"234 261 OFFCURVE",
"391 273 CURVE SMOOTH",
"480 280 LINE SMOOTH",
"489 281 OFFCURVE",
"494 277 OFFCURVE",
"494 266 CURVE SMOOTH"
);
}
);
};
hints = (
{
horizontal = 1;
place = "{3636, -6}";
}
);
layerId = "91AB5BCA-6A50-42DA-B2F7-8181BF189245";
paths = (
{
closed = 1;
nodes = (
"260 -10 OFFCURVE",
"327 19 OFFCURVE",
"392 80 CURVE",
"383 0 LINE",
"419 0 LINE",
"469 358 LINE SMOOTH",
"483 463 OFFCURVE",
"421 526 OFFCURVE",
"311 526 CURVE SMOOTH",
"216 526 OFFCURVE",
"142 477 OFFCURVE",
"91 413 CURVE",
"121 393 LINE",
"174 456 OFFCURVE",
"234 489 OFFCURVE",
"303 489 CURVE SMOOTH",
"391 489 OFFCURVE",
"441 436 OFFCURVE",
"430 354 CURVE SMOOTH",
"423 310 LINE",
"303 300 LINE SMOOTH",
"129 285 OFFCURVE",
"55 247 OFFCURVE",
"39 132 CURVE SMOOTH",
"26 44 OFFCURVE",
"82 -10 OFFCURVE",
"184 -10 CURVE SMOOTH"
);
},
{
closed = 1;
nodes = (
"117 27 OFFCURVE",
"70 67 OFFCURVE",
"80 134 CURVE SMOOTH",
"93 225 OFFCURVE",
"150 253 OFFCURVE",
"317 266 CURVE SMOOTH",
"418 274 LINE",
"403 167 LINE SMOOTH",
"394 96 OFFCURVE",
"282 27 OFFCURVE",
"196 27 CURVE SMOOTH"
);
}
);
width = 539;
}
);
leftKerningGroup = a;
unicode = 0061;
},
{
glyphname = ae;
lastChange = "2017-12-17 19:32:49 +0000";
layers = (
{
anchors = (
{
name = top;
position = "{492, 516}";
}
);
background = {
anchors = (
{
name = top;
position = "{505, 530}";
}
);
paths = (
{
closed = 1;
nodes = (
"889 229 LINE SMOOTH",
"906 230 OFFCURVE",
"903 231 OFFCURVE",
"905 243 CURVE SMOOTH",
"931 429 OFFCURVE",
"828 540 OFFCURVE",
"667 540 CURVE SMOOTH",
"619 540 OFFCURVE",
"568 529 OFFCURVE",
"517 500 CURVE",
"486 522 OFFCURVE",
"429 539 OFFCURVE",
"336 540 CURVE SMOOTH",
"187 540 OFFCURVE",
"127 504 OFFCURVE",
"78 432 CURVE SMOOTH",
"72 415 OFFCURVE",
"77 392 OFFCURVE",
"86 390 CURVE SMOOTH",
"213 364 LINE SMOOTH",
"230 361 OFFCURVE",
"231 356 OFFCURVE",
"239 364 CURVE",
"260 406 OFFCURVE",
"298 421 OFFCURVE",
"330 421 CURVE SMOOTH",
"366 421 OFFCURVE",
"379 406 OFFCURVE",
"374 369 CURVE SMOOTH",
"371 352 LINE SMOOTH",
"370 340 OFFCURVE",
"354 332 OFFCURVE",
"346 332 CURVE",
"323 331 LINE SMOOTH",
"130 322 OFFCURVE",
"29 256 OFFCURVE",
"14 154 CURVE SMOOTH",
"1 58 OFFCURVE",
"55 -10 OFFCURVE",
"172 -10 CURVE SMOOTH",
"260 -10 OFFCURVE",
"327 8 OFFCURVE",
"395 62 CURVE SMOOTH",
"397 69 OFFCURVE",
"405 79 OFFCURVE",
"411 79 CURVE SMOOTH",
"451 24 OFFCURVE",
"521 -10 OFFCURVE",
"609 -10 CURVE SMOOTH",
"717 -10 OFFCURVE",
"786 12 OFFCURVE",
"874 108 CURVE",
"883 124 OFFCURVE",
"876 136 OFFCURVE",
"866 140 CURVE SMOOTH",
"781 177 LINE SMOOTH",
"768 182 OFFCURVE",
"767 187 OFFCURVE",
"760 186 CURVE SMOOTH",
"711 139 OFFCURVE",
"677 122 OFFCURVE",
"639 122 CURVE SMOOTH",
"585 122 OFFCURVE",
"547 145 OFFCURVE",
"555 201 CURVE SMOOTH",
"557 218 OFFCURVE",
"568 229 OFFCURVE",
"578 229 CURVE SMOOTH"
);
},
{
closed = 1;
nodes = (
"721 423 OFFCURVE",
"730 378 OFFCURVE",
"727 357 CURVE SMOOTH",
"725 340 OFFCURVE",
"715 332 OFFCURVE",
"702 332 CURVE SMOOTH",
"576 327 LINE",
"583 389 OFFCURVE",
"630 423 OFFCURVE",
"675 423 CURVE SMOOTH"
);
},
{
closed = 1;
nodes = (
"345 166 LINE SMOOTH",
"340 133 OFFCURVE",
"296 108 OFFCURVE",
"254 108 CURVE SMOOTH",
"219 108 OFFCURVE",
"204 121 OFFCURVE",
"207 145 CURVE SMOOTH",
"215 199 OFFCURVE",
"288 230 OFFCURVE",
"327 233 CURVE SMOOTH",
"341 234 LINE SMOOTH",
"353 234 OFFCURVE",
"355 234 OFFCURVE",
"353 222 CURVE SMOOTH"
);
}
);
};
layerId = "258ED206-D907-4350-8EBA-CBDDA1C16BF7";
paths = (
{
closed = 1;
nodes = (
"880 223 LINE",
"914 418 OFFCURVE",
"806 526 OFFCURVE",
"650 526 CURVE SMOOTH",
"603 526 OFFCURVE",
"553 515 OFFCURVE",
"504 487 CURVE",
"474 509 OFFCURVE",
"418 525 OFFCURVE",
"327 526 CURVE SMOOTH",
"169 526 OFFCURVE",
"104 479 OFFCURVE",
"53 387 CURVE",
"231 350 LINE",
"248 382 OFFCURVE",
"278 409 OFFCURVE",
"315 409 CURVE SMOOTH",
"337 409 OFFCURVE",
"376 404 OFFCURVE",
"365 355 CURVE SMOOTH",
"359 324 LINE",
"315 322 LINE SMOOTH",
"127 314 OFFCURVE",
"28 249 OFFCURVE",
"14 150 CURVE SMOOTH",
"1 57 OFFCURVE",
"54 -10 OFFCURVE",
"168 -10 CURVE SMOOTH",
"253 -10 OFFCURVE",
"319 8 OFFCURVE",
"385 60 CURVE SMOOTH",
"387 67 OFFCURVE",
"395 77 OFFCURVE",
"400 77 CURVE SMOOTH",
"439 23 OFFCURVE",
"508 -10 OFFCURVE",
"593 -10 CURVE SMOOTH",
"706 -10 OFFCURVE",
"777 16 OFFCURVE",
"870 125 CURVE",
"740 181 LINE",
"693 135 OFFCURVE",
"660 119 OFFCURVE",
"623 119 CURVE SMOOTH",
"573 119 OFFCURVE",
"537 149 OFFCURVE",
"545 223 CURVE"
);
},
{
closed = 1;
nodes = (
"695 411 OFFCURVE",
"726 363 OFFCURVE",
"724 319 CURVE",
"561 319 LINE",
"568 379 OFFCURVE",
"609 411 OFFCURVE",
"653 411 CURVE SMOOTH"
);
},
{
closed = 1;
nodes = (
"336 162 LINE SMOOTH",
"331 130 OFFCURVE",
"288 105 OFFCURVE",
"247 105 CURVE SMOOTH",
"213 105 OFFCURVE",
"199 118 OFFCURVE",
"202 141 CURVE SMOOTH",
"209 194 OFFCURVE",
"281 224 OFFCURVE",
"319 227 CURVE SMOOTH",
"346 229 LINE"
);
}
);
width = 911;
},
{
anchors = (
{
name = top;
position = "{487, 516}";
}
);
background = {
anchors = (
{
name = top;
position = "{495, 530}";
}
);
paths = (
{
closed = 1;
nodes = (
"867 254 LINE SMOOTH",
"881 254 OFFCURVE",
"885 260 OFFCURVE",
"887 272 CURVE SMOOTH",
"911 443 OFFCURVE",
"832 540 OFFCURVE",
"694 540 CURVE SMOOTH",
"601 540 OFFCURVE",
"523 501 OFFCURVE",
"472 421 CURVE",
"464 500 OFFCURVE",
"413 540 OFFCURVE",
"313 540 CURVE SMOOTH",
"229 540 OFFCURVE",
"146 501 OFFCURVE",
"94 433 CURVE SMOOTH",
"91 427 OFFCURVE",
"91 424 OFFCURVE",
"94 422 CURVE SMOOTH",
"114 407 LINE SMOOTH",
"118 404 OFFCURVE",
"119 403 OFFCURVE",
"125 408 CURVE SMOOTH",
"180 469 OFFCURVE",
"238 502 OFFCURVE",
"303 502 CURVE SMOOTH",
"402 502 OFFCURVE",
"448 449 OFFCURVE",
"436 364 CURVE SMOOTH",
"432 333 LINE SMOOTH",
"430 324 OFFCURVE",
"422 318 OFFCURVE",
"410 317 CURVE SMOOTH",
"297 308 LINE SMOOTH",
"132 294 OFFCURVE",
"49 235 OFFCURVE",
"35 138 CURVE SMOOTH",
"22 46 OFFCURVE",
"77 -10 OFFCURVE",
"182 -10 CURVE SMOOTH",
"312 -10 OFFCURVE",
"380 61 OFFCURVE",
"423 106 CURVE SMOOTH",
"424 110 OFFCURVE",
"426 112 OFFCURVE",
"428 110 CURVE SMOOTH",
"451 66 OFFCURVE",
"494 -10 OFFCURVE",
"617 -10 CURVE SMOOTH",
"713 -10 OFFCURVE",
"801 36 OFFCURVE",
"844 98 CURVE SMOOTH",
"847 105 OFFCURVE",
"845 107 OFFCURVE",
"842 109 CURVE SMOOTH",
"822 124 LINE SMOOTH",
"818 127 OFFCURVE",
"817 128 OFFCURVE",
"811 123 CURVE SMOOTH",
"776 82 OFFCURVE",
"726 28 OFFCURVE",
"621 28 CURVE SMOOTH",
"510 28 OFFCURVE",
"437 133 OFFCURVE",
"451 226 CURVE SMOOTH",
"454 248 OFFCURVE",
"458 253 OFFCURVE",
"475 253 CURVE SMOOTH"
);
},
{
closed = 1;
nodes = (
"798 502 OFFCURVE",
"864 415 OFFCURVE",
"849 308 CURVE SMOOTH",
"847 295 OFFCURVE",
"845 290 OFFCURVE",
"829 290 CURVE SMOOTH",
"462 290 LINE",
"480 417 OFFCURVE",
"578 502 OFFCURVE",
"689 502 CURVE SMOOTH"
);
},
{
closed = 1;
nodes = (
"410 178 LINE",
"399 100 OFFCURVE",
"303 34 OFFCURVE",
"194 29 CURVE SMOOTH",
"110 25 OFFCURVE",
"69 70 OFFCURVE",
"78 136 CURVE SMOOTH",
"89 214 OFFCURVE",
"162 260 OFFCURVE",
"314 272 CURVE SMOOTH",
"410 279 LINE SMOOTH",
"423 280 OFFCURVE",
"424 276 OFFCURVE",
"422 266 CURVE SMOOTH"
);
}
);
};
hints = (
{
horizontal = 1;
place = "{3749, 108}";
}
);
layerId = "91AB5BCA-6A50-42DA-B2F7-8181BF189245";
paths = (
{
closed = 1;
nodes = (
"866 247 LINE",
"890 426 OFFCURVE",
"814 526 OFFCURVE",
"681 526 CURVE SMOOTH",
"590 526 OFFCURVE",
"514 488 OFFCURVE",
"465 410 CURVE",
"457 487 OFFCURVE",
"407 526 OFFCURVE",
"310 526 CURVE SMOOTH",
"226 526 OFFCURVE",
"143 485 OFFCURVE",
"92 415 CURVE",
"122 392 LINE",
"177 455 OFFCURVE",
"235 489 OFFCURVE",
"300 489 CURVE SMOOTH",
"397 489 OFFCURVE",
"441 437 OFFCURVE",
"430 355 CURVE SMOOTH",
"424 311 LINE",
"294 300 LINE SMOOTH",
"133 286 OFFCURVE",
"53 229 OFFCURVE",
"39 134 CURVE SMOOTH",
"26 45 OFFCURVE",
"80 -10 OFFCURVE",
"182 -10 CURVE SMOOTH",
"309 -10 OFFCURVE",
"375 59 OFFCURVE",
"417 103 CURVE SMOOTH",
"418 107 OFFCURVE",
"420 109 OFFCURVE",
"422 107 CURVE SMOOTH",
"444 64 OFFCURVE",
"486 -10 OFFCURVE",
"606 -10 CURVE SMOOTH",
"701 -10 OFFCURVE",
"789 38 OFFCURVE",
"831 101 CURVE",
"800 126 LINE",
"765 83 OFFCURVE",
"715 27 OFFCURVE",
"610 27 CURVE SMOOTH",
"505 27 OFFCURVE",
"435 143 OFFCURVE",
"448 246 CURVE"
);
},
{
closed = 1;
nodes = (
"780 489 OFFCURVE",
"844 397 OFFCURVE",
"829 283 CURVE",
"455 283 LINE",
"473 406 OFFCURVE",
"568 489 OFFCURVE",
"676 489 CURVE SMOOTH"
);
},
{
closed = 1;
nodes = (
"404 173 LINE",
"394 97 OFFCURVE",
"300 33 OFFCURVE",
"194 28 CURVE SMOOTH",
"112 24 OFFCURVE",
"72 68 OFFCURVE",
"81 133 CURVE SMOOTH",
"92 209 OFFCURVE",
"163 253 OFFCURVE",
"311 265 CURVE SMOOTH",
"418 273 LINE"
);
}
);
width = 917;
}
);
leftMetricsKey = a;
rightMetricsKey = e;
unicode = 00E6;
},
{
glyphname = b;
lastChange = "2017-12-17 19:32:49 +0000";
layers = (
{
background = {
paths = (
{
closed = 1;
nodes = (
"249 0 OFFCURVE",
"257 7 OFFCURVE",
"262 23 CURVE SMOOTH",
"278 70 LINE SMOOTH",
"281 78 OFFCURVE",
"285 79 OFFCURVE",
"291 73 CURVE SMOOTH",
"330 22 OFFCURVE",
"384 -10 OFFCURVE",
"447 -10 CURVE SMOOTH",
"593 -10 OFFCURVE",
"674 99 OFFCURVE",
"674 269 CURVE SMOOTH",
"674 436 OFFCURVE",
"598 540 OFFCURVE",
"468 540 CURVE SMOOTH",
"423 540 OFFCURVE",
"382 527 OFFCURVE",
"341 488 CURVE SMOOTH",
"331 480 OFFCURVE",
"322 480 OFFCURVE",
"322 496 CURVE SMOOTH",
"322 721 LINE SMOOTH",
"322 734 OFFCURVE",
"316 742 OFFCURVE",
"304 742 CURVE SMOOTH",
"141 742 LINE SMOOTH",
"130 742 OFFCURVE",
"122 734 OFFCURVE",
"122 719 CURVE SMOOTH",
"122 25 LINE SMOOTH",
"122 8 OFFCURVE",
"128 0 OFFCURVE",
"149 0 CURVE SMOOTH",
"236 0 LINE SMOOTH"
);
},
{
closed = 1;
nodes = (
"342 403 OFFCURVE",
"365 418 OFFCURVE",
"396 418 CURVE SMOOTH",
"445 418 OFFCURVE",
"472 381 OFFCURVE",
"472 265 CURVE SMOOTH",
"472 148 OFFCURVE",
"445 107 OFFCURVE",
"393 107 CURVE SMOOTH",
"351 107 OFFCURVE",
"322 135 OFFCURVE",
"322 185 CURVE SMOOTH",
"322 378 LINE"
);
}
);
};
layerId = "258ED206-D907-4350-8EBA-CBDDA1C16BF7";
paths = (
{
closed = 1;
nodes = (
"474 -10 OFFCURVE",
"569 96 OFFCURVE",
"592 262 CURVE SMOOTH",
"615 425 OFFCURVE",
"555 526 OFFCURVE",
"429 526 CURVE SMOOTH",
"378 526 OFFCURVE",
"318 502 OFFCURVE",
"274 438 CURVE",
"317 742 LINE",
"122 742 LINE",
"18 0 LINE",
"155 0 LINE",
"197 92 LINE",
"217 35 OFFCURVE",
"268 -10 OFFCURVE",
"332 -10 CURVE SMOOTH"
);
},
{
closed = 1;
nodes = (
"254 116 OFFCURVE",
"234 152 OFFCURVE",
"246 239 CURVE",
"252 284 LINE",
"265 373 OFFCURVE",
"296 399 OFFCURVE",
"340 399 CURVE SMOOTH",
"380 399 OFFCURVE",
"411 377 OFFCURVE",
"396 264 CURVE SMOOTH",
"379 150 OFFCURVE",
"343 116 OFFCURVE",
"297 116 CURVE"
);
}
);
width = 614;
},
{
background = {
paths = (
{
closed = 1;
nodes = (
"195 0 OFFCURVE",
"198 3 OFFCURVE",
"198 13 CURVE SMOOTH",
"200 64 LINE SMOOTH",
"200 73 OFFCURVE",
"205 74 OFFCURVE",
"210 67 CURVE SMOOTH",
"222 50 OFFCURVE",
"272 -10 OFFCURVE",
"375 -10 CURVE SMOOTH",
"519 -10 OFFCURVE",
"603 96 OFFCURVE",
"603 267 CURVE SMOOTH",
"603 416 OFFCURVE",
"539 540 OFFCURVE",
"386 540 CURVE SMOOTH",
"280 540 OFFCURVE",
"224 482 OFFCURVE",
"214 473 CURVE SMOOTH",
"205 465 OFFCURVE",
"201 465 OFFCURVE",
"201 478 CURVE SMOOTH",
"201 731 LINE SMOOTH",
"201 739 OFFCURVE",
"199 742 OFFCURVE",
"193 742 CURVE SMOOTH",
"170 742 LINE SMOOTH",
"164 742 OFFCURVE",
"161 739 OFFCURVE",
"161 732 CURVE SMOOTH",
"161 13 LINE SMOOTH",
"161 3 OFFCURVE",
"164 0 OFFCURVE",
"172 0 CURVE SMOOTH",
"183 0 LINE SMOOTH"
);
},
{
closed = 1;
nodes = (
"241 463 OFFCURVE",
"305 502 OFFCURVE",
"379 502 CURVE SMOOTH",
"497 502 OFFCURVE",
"560 409 OFFCURVE",
"560 267 CURVE SMOOTH",
"560 103 OFFCURVE",
"475 28 OFFCURVE",
"371 28 CURVE SMOOTH",
"287 28 OFFCURVE",
"201 96 OFFCURVE",
"201 177 CURVE SMOOTH",
"201 415 LINE"
);
}
);
};
layerId = "91AB5BCA-6A50-42DA-B2F7-8181BF189245";
paths = (
{
closed = 1;
nodes = (
"402 -10 OFFCURVE",
"499 94 OFFCURVE",
"522 260 CURVE SMOOTH",
"543 405 OFFCURVE",
"498 526 OFFCURVE",
"349 526 CURVE SMOOTH",
"238 526 OFFCURVE",
"170 460 OFFCURVE",
"158 449 CURVE",
"199 742 LINE",
"160 742 LINE",
"56 0 LINE",
"91 0 LINE",
"105 78 LINE",
"114 58 OFFCURVE",
"156 -10 OFFCURVE",
"262 -10 CURVE SMOOTH"
);
},
{
closed = 1;
nodes = (
"182 27 OFFCURVE",
"107 94 OFFCURVE",
"119 172 CURVE SMOOTH",
"151 404 LINE",
"197 451 OFFCURVE",
"264 489 OFFCURVE",
"336 489 CURVE SMOOTH",
"451 489 OFFCURVE",
"500 398 OFFCURVE",
"480 260 CURVE SMOOTH",
"458 100 OFFCURVE",
"365 27 OFFCURVE",
"264 27 CURVE SMOOTH"
);
}
);
width = 571;
}
);
leftMetricsKey = h;
unicode = 0062;
},
{
glyphname = c;
lastChange = "2017-12-17 19:32:49 +0000";
layers = (
{
anchors = (
{
name = bottom;
position = "{255, 0}";
},
{
name = top;
position = "{328, 516}";
}
);
background = {
anchors = (
{
name = bottom;
position = "{366, 0}";
},
{
name = top;
position = "{367, 530}";
}
);
paths = (
{
closed = 1;
nodes = (
"209 540 OFFCURVE",
"90 428 OFFCURVE",
"90 263 CURVE SMOOTH",
"90 101 OFFCURVE",
"207 -10 OFFCURVE",
"367 -10 CURVE SMOOTH",
"529 -10 OFFCURVE",
"595 105 OFFCURVE",
"605 157 CURVE SMOOTH",
"609 172 OFFCURVE",
"607 178 OFFCURVE",
"596 180 CURVE SMOOTH",
"502 198 LINE SMOOTH",
"489 200 OFFCURVE",
"485 198 OFFCURVE",
"482 193 CURVE SMOOTH",
"457 148 OFFCURVE",
"438 114 OFFCURVE",
"383 114 CURVE SMOOTH",
"326 114 OFFCURVE",
"292 154 OFFCURVE",
"292 265 CURVE SMOOTH",
"292 372 OFFCURVE",
"323 414 OFFCURVE",
"372 414 CURVE SMOOTH",
"420 414 OFFCURVE",
"429 376 OFFCURVE",
"433 351 CURVE SMOOTH",
"435 340 OFFCURVE",
"439 336 OFFCURVE",
"450 337 CURVE SMOOTH",
"587 344 LINE SMOOTH",
"604 345 OFFCURVE",
"610 353 OFFCURVE",
"605 370 CURVE SMOOTH",
"589 447 OFFCURVE",
"510 540 OFFCURVE",
"367 540 CURVE SMOOTH"
);
}
);
};
guideLines = (
{
angle = -0.5577;
position = "{-720, 176}";
},
{
position = "{370, 129}";
},
{
angle = 3.769;
position = "{337, 323}";
}
);
layerId = "258ED206-D907-4350-8EBA-CBDDA1C16BF7";
paths = (
{
closed = 1;
nodes = (
"180 526 OFFCURVE",
"45 416 OFFCURVE",
"22 256 CURVE SMOOTH",
"0 97 OFFCURVE",
"106 -10 OFFCURVE",
"254 -10 CURVE SMOOTH",
"396 -10 OFFCURVE",
"498 89 OFFCURVE",
"515 179 CURVE",
"356 200 LINE",
"346 170 OFFCURVE",
"326 114 OFFCURVE",
"277 114 CURVE SMOOTH",
"227 114 OFFCURVE",
"199 172 OFFCURVE",
"210 258 CURVE SMOOTH",
"222 341 OFFCURVE",
"264 402 OFFCURVE",
"314 402 CURVE SMOOTH",
"364 402 OFFCURVE",
"367 343 OFFCURVE",
"368 306 CURVE",
"539 326 LINE",
"550 423 OFFCURVE",
"476 526 OFFCURVE",
"330 526 CURVE SMOOTH"
);
}
);
width = 551;
},
{
anchors = (
{
name = bottom;
position = "{238, 0}";
},
{
name = top;
position = "{308, 516}";
}
);
background = {
anchors = (
{
name = bottom;
position = "{348, 0}";
},
{
name = top;
position = "{346, 530}";
}
);
paths = (
{
closed = 1;
nodes = (
"206 540 OFFCURVE",
"107 425 OFFCURVE",
"107 263 CURVE SMOOTH",
"107 100 OFFCURVE",
"204 -10 OFFCURVE",
"347 -10 CURVE SMOOTH",
"432 -10 OFFCURVE",
"504 29 OFFCURVE",
"552 107 CURVE SMOOTH",
"554 111 OFFCURVE",
"553 115 OFFCURVE",
"550 117 CURVE SMOOTH",
"527 132 LINE SMOOTH",
"523 135 OFFCURVE",
"521 134 OFFCURVE",
"517 128 CURVE SMOOTH",
"473 60 OFFCURVE",
"419 28 OFFCURVE",
"351 28 CURVE SMOOTH",
"229 28 OFFCURVE",
"149 123 OFFCURVE",
"149 265 CURVE SMOOTH",
"149 407 OFFCURVE",
"229 502 OFFCURVE",
"352 502 CURVE SMOOTH",
"408 502 OFFCURVE",
"453 478 OFFCURVE",
"508 411 CURVE SMOOTH",
"512 406 OFFCURVE",
"516 405 OFFCURVE",
"519 407 CURVE SMOOTH",
"543 423 LINE SMOOTH",
"546 425 OFFCURVE",
"547 427 OFFCURVE",
"543 433 CURVE SMOOTH",
"497 499 OFFCURVE",
"436 540 OFFCURVE",
"347 540 CURVE SMOOTH"
);
}
);
};
layerId = "91AB5BCA-6A50-42DA-B2F7-8181BF189245";
paths = (
{
closed = 1;
nodes = (
"171 526 OFFCURVE",
"71 415 OFFCURVE",
"49 256 CURVE SMOOTH",
"26 98 OFFCURVE",
"95 -10 OFFCURVE",
"235 -10 CURVE SMOOTH",
"320 -10 OFFCURVE",
"387 30 OFFCURVE",
"446 110 CURVE",
"416 132 LINE",
"361 60 OFFCURVE",
"315 27 OFFCURVE",
"245 27 CURVE SMOOTH",
"128 27 OFFCURVE",
"70 119 OFFCURVE",
"90 258 CURVE SMOOTH",
"109 396 OFFCURVE",
"194 489 OFFCURVE",
"310 489 CURVE SMOOTH",
"370 489 OFFCURVE",
"399 464 OFFCURVE",
"444 394 CURVE",
"481 415 LINE",
"444 483 OFFCURVE",
"398 526 OFFCURVE",
"311 526 CURVE SMOOTH"
);
}
);
width = 515;
}
);
leftKerningGroup = o;
leftMetricsKey = e;
unicode = 0063;
},
{
glyphname = d;
lastChange = "2017-12-17 19:32:49 +0000";
layers = (
{
anchors = (
{
name = bottom;
position = "{259, 0}";
},
{
name = center;
position = "{295, 258}";
},
{
name = topright;
position = "{610, 516}";
}
);
background = {
anchors = (
{
name = bottom;
position = "{370, 0}";
},
{
name = center;
position = "{370, 265}";
},
{
name = topright;
position = "{656, 530}";
}
);
paths = (
{
closed = 1;
nodes = (
"611 0 LINE SMOOTH",
"632 0 OFFCURVE",
"638 8 OFFCURVE",
"638 25 CURVE SMOOTH",
"638 719 LINE SMOOTH",
"638 734 OFFCURVE",
"630 742 OFFCURVE",
"619 742 CURVE SMOOTH",
"457 742 LINE SMOOTH",
"445 742 OFFCURVE",
"439 734 OFFCURVE",
"439 721 CURVE SMOOTH",
"439 496 LINE SMOOTH",
"439 480 OFFCURVE",
"430 480 OFFCURVE",
"420 488 CURVE SMOOTH",
"379 528 OFFCURVE",
"341 540 OFFCURVE",
"296 540 CURVE SMOOTH",
"186 540 OFFCURVE",
"86 431 OFFCURVE",
"86 263 CURVE SMOOTH",
"86 82 OFFCURVE",
"168 -10 OFFCURVE",
"286 -10 CURVE SMOOTH",
"348 -10 OFFCURVE",
"387 10 OFFCURVE",
"426 46 CURVE SMOOTH",
"433 52 OFFCURVE",
"441 51 OFFCURVE",
"441 42 CURVE SMOOTH",
"441 23 LINE SMOOTH",
"441 6 OFFCURVE",
"453 0 OFFCURVE",
"466 0 CURVE SMOOTH"
);
},
{
closed = 1;
nodes = (
"438 176 LINE SMOOTH",
"438 137 OFFCURVE",
"407 110 OFFCURVE",
"368 110 CURVE SMOOTH",
"317 110 OFFCURVE",
"288 149 OFFCURVE",
"288 264 CURVE SMOOTH",
"288 380 OFFCURVE",
"321 416 OFFCURVE",
"368 416 CURVE SMOOTH",
"399 416 OFFCURVE",
"417 403 OFFCURVE",
"438 378 CURVE"
);
}
);
};
layerId = "258ED206-D907-4350-8EBA-CBDDA1C16BF7";
paths = (
{
closed = 1;
nodes = (
"289 -10 OFFCURVE",
"344 40 OFFCURVE",
"374 88 CURVE",
"387 0 LINE",
"524 0 LINE",
"628 742 LINE",
"434 742 LINE",
"391 438 LINE",
"369 511 OFFCURVE",
"312 526 OFFCURVE",
"261 526 CURVE SMOOTH",
"134 526 OFFCURVE",
"46 425 OFFCURVE",
"23 262 CURVE SMOOTH",
"0 96 OFFCURVE",
"63 -10 OFFCURVE",
"206 -10 CURVE SMOOTH"
);
},
{
closed = 1;
nodes = (
"230 116 OFFCURVE",
"204 150 OFFCURVE",
"220 264 CURVE SMOOTH",
"236 377 OFFCURVE",
"273 399 OFFCURVE",
"313 399 CURVE SMOOTH",
"357 399 OFFCURVE",
"382 373 OFFCURVE",
"369 284 CURVE",
"362 239 LINE",
"351 152 OFFCURVE",
"319 116 OFFCURVE",
"276 116 CURVE"
);
}
);
width = 614;
},
{
anchors = (
{
name = bottom;
position = "{237, 0}";
},
{
name = center;
position = "{284, 258}";
},
{
name = topright;
position = "{655, 723}";
}
);
background = {
anchors = (
{
name = bottom;
position = "{347, 0}";
},
{
name = center;
position = "{359, 265}";
},
{
name = topright;
position = "{672, 742}";
}
);
paths = (
{
closed = 1;
nodes = (
"534 0 LINE SMOOTH",
"543 0 OFFCURVE",
"546 3 OFFCURVE",
"546 12 CURVE SMOOTH",
"546 733 LINE SMOOTH",
"546 739 OFFCURVE",
"543 742 OFFCURVE",
"538 742 CURVE SMOOTH",
"515 742 LINE SMOOTH",
"508 742 OFFCURVE",
"506 739 OFFCURVE",
"506 732 CURVE SMOOTH",
"506 493 LINE SMOOTH",
"506 480 OFFCURVE",
"504 476 OFFCURVE",
"492 486 CURVE SMOOTH",
"461 510 OFFCURVE",
"418 540 OFFCURVE",
"345 540 CURVE SMOOTH",
"198 540 OFFCURVE",
"102 425 OFFCURVE",
"102 255 CURVE SMOOTH",
"102 78 OFFCURVE",
"205 -10 OFFCURVE",
"333 -10 CURVE SMOOTH",
"429 -10 OFFCURVE",
"480 49 OFFCURVE",
"496 66 CURVE SMOOTH",
"504 74 OFFCURVE",
"508 73 OFFCURVE",
"508 62 CURVE SMOOTH",
"508 11 LINE SMOOTH",
"508 4 OFFCURVE",
"511 0 OFFCURVE",
"518 0 CURVE SMOOTH"
);
},
{
closed = 1;
nodes = (
"506 170 LINE SMOOTH",
"506 110 OFFCURVE",
"434 28 OFFCURVE",
"338 28 CURVE SMOOTH",
"236 28 OFFCURVE",
"144 100 OFFCURVE",
"144 259 CURVE SMOOTH",
"144 411 OFFCURVE",
"229 502 OFFCURVE",
"346 502 CURVE SMOOTH",
"407 502 OFFCURVE",
"457 474 OFFCURVE",
"506 426 CURVE"
);
}
);
};
layerId = "91AB5BCA-6A50-42DA-B2F7-8181BF189245";
paths = (
{
closed = 1;
nodes = (
"322 -10 OFFCURVE",
"385 57 OFFCURVE",
"404 77 CURVE",
"394 0 LINE",
"431 0 LINE",
"535 742 LINE",
"496 742 LINE",
"456 463 LINE",
"411 504 OFFCURVE",
"371 526 OFFCURVE",
"309 526 CURVE SMOOTH",
"166 526 OFFCURVE",
"70 414 OFFCURVE",
"48 248 CURVE SMOOTH",
"23 76 OFFCURVE",
"96 -10 OFFCURVE",
"221 -10 CURVE SMOOTH"
);
},
{
closed = 1;
nodes = (
"133 27 OFFCURVE",
"67 97 OFFCURVE",
"89 252 CURVE SMOOTH",
"109 400 OFFCURVE",
"190 489 OFFCURVE",
"304 489 CURVE SMOOTH",
"363 489 OFFCURVE",
"408 462 OFFCURVE",
"450 415 CURVE",
"415 166 LINE",
"406 107 OFFCURVE",
"325 27 OFFCURVE",
"232 27 CURVE SMOOTH"
);
}
);
width = 558;
}
);
leftKerningGroup = o;
unicode = 0064;
},
{
glyphname = eth;
lastChange = "2017-12-17 19:32:49 +0000";
layers = (
{
background = {
paths = (
{
closed = 1;
nodes = (
"605 434 OFFCURVE",
"547 579 OFFCURVE",
"435 666 CURVE",
"492 692 LINE SMOOTH",
"498 696 OFFCURVE",
"494 699 OFFCURVE",
"492 704 CURVE SMOOTH",
"475 742 LINE SMOOTH",
"473 747 OFFCURVE",
"466 757 OFFCURVE",
"458 752 CURVE SMOOTH",
"376 704 LINE",
"342 723 OFFCURVE",
"303 739 OFFCURVE",
"258 746 CURVE SMOOTH",
"250 751 OFFCURVE",
"249 756 OFFCURVE",
"241 750 CURVE SMOOTH",
"146 681 LINE SMOOTH",
"140 675 OFFCURVE",
"148 667 OFFCURVE",
"157 667 CURVE SMOOTH",
"183 655 OFFCURVE",
"207 644 OFFCURVE",
"230 631 CURVE",
"147 591 LINE SMOOTH",
"140 588 OFFCURVE",
"142 583 OFFCURVE",
"148 572 CURVE SMOOTH",
"161 548 LINE SMOOTH",
"165 537 OFFCURVE",
"171 527 OFFCURVE",
"183 533 CURVE SMOOTH",
"288 593 LINE",
"312 572 OFFCURVE",
"328 556 OFFCURVE",
"344 535 CURVE SMOOTH",
"343 528 OFFCURVE",
"338 520 OFFCURVE",
"330 520 CURVE SMOOTH",
"176 520 OFFCURVE",
"44 415 OFFCURVE",
"23 263 CURVE SMOOTH",
"1 109 OFFCURVE",
"102 -10 OFFCURVE",
"270 -10 CURVE SMOOTH",
"433 -10 OFFCURVE",
"557 96 OFFCURVE",
"582 271 CURVE SMOOTH"
);
},
{
closed = 1;
nodes = (
"224 118 OFFCURVE",
"210 156 OFFCURVE",
"222 245 CURVE SMOOTH",
"236 345 OFFCURVE",
"271 396 OFFCURVE",
"328 396 CURVE SMOOTH",
"378 396 OFFCURVE",
"392 357 OFFCURVE",
"379 267 CURVE SMOOTH",
"366 169 OFFCURVE",
"331 118 OFFCURVE",
"273 118 CURVE SMOOTH"
);
}
);
};
layerId = "258ED206-D907-4350-8EBA-CBDDA1C16BF7";
paths = (
{
closed = 1;
nodes = (
"589 423 OFFCURVE",
"533 564 OFFCURVE",
"424 649 CURVE",
"483 676 LINE",
"456 739 LINE",
"366 686 LINE",
"328 705 OFFCURVE",
"284 722 OFFCURVE",
"233 730 CURVE",
"135 659 LINE",
"167 644 OFFCURVE",
"196 630 OFFCURVE",
"224 615 CURVE",
"136 572 LINE",
"168 513 LINE",
"281 578 LINE",
"304 557 OFFCURVE",
"320 542 OFFCURVE",
"335 521 CURVE SMOOTH",
"334 514 OFFCURVE",
"329 507 OFFCURVE",
"322 507 CURVE SMOOTH",
"171 507 OFFCURVE",
"43 404 OFFCURVE",
"22 256 CURVE SMOOTH",
"1 106 OFFCURVE",
"99 -10 OFFCURVE",
"263 -10 CURVE SMOOTH",
"422 -10 OFFCURVE",
"543 94 OFFCURVE",
"567 264 CURVE SMOOTH"
);
},
{
closed = 1;
nodes = (
"218 115 OFFCURVE",
"205 152 OFFCURVE",
"216 239 CURVE SMOOTH",
"230 336 OFFCURVE",
"264 386 OFFCURVE",
"320 386 CURVE SMOOTH",
"368 386 OFFCURVE",
"382 348 OFFCURVE",
"369 260 CURVE SMOOTH",
"357 165 OFFCURVE",
"322 115 OFFCURVE",
"266 115 CURVE SMOOTH"
);
}
);
width = 588;
},
{
background = {
paths = (
{
closed = 1;
nodes = (
"553 421 OFFCURVE",
"517 562 OFFCURVE",
"376 668 CURVE",
"475 718 LINE SMOOTH",
"478 720 OFFCURVE",
"476 723 OFFCURVE",
"475 726 CURVE SMOOTH",
"466 748 LINE SMOOTH",
"466 750 OFFCURVE",
"461 753 OFFCURVE",
"457 751 CURVE SMOOTH",
"345 691 LINE",
"313 712 OFFCURVE",
"278 731 OFFCURVE",
"236 748 CURVE SMOOTH",
"229 753 OFFCURVE",
"225 752 OFFCURVE",
"219 748 CURVE SMOOTH",
"199 736 LINE SMOOTH",
"194 732 OFFCURVE",
"196 726 OFFCURVE",
"202 725 CURVE SMOOTH",
"240 707 OFFCURVE",
"275 690 OFFCURVE",
"306 671 CURVE",
"137 584 LINE SMOOTH",
"134 582 OFFCURVE",
"133 579 OFFCURVE",
"136 573 CURVE SMOOTH",
"143 559 LINE SMOOTH",
"146 553 OFFCURVE",
"149 550 OFFCURVE",
"155 553 CURVE SMOOTH",
"337 649 LINE",
"415 591 OFFCURVE",
"457 524 OFFCURVE",
"478 451 CURVE",
"440 493 OFFCURVE",
"385 520 OFFCURVE",
"313 520 CURVE SMOOTH",
"178 520 OFFCURVE",
"65 409 OFFCURVE",
"43 254 CURVE SMOOTH",
"22 99 OFFCURVE",
"104 -10 OFFCURVE",
"249 -10 CURVE SMOOTH",
"402 -10 OFFCURVE",
"508 100 OFFCURVE",
"529 253 CURVE SMOOTH"
);
},
{
closed = 1;
nodes = (
"140 28 OFFCURVE",
"68 127 OFFCURVE",
"85 252 CURVE SMOOTH",
"103 379 OFFCURVE",
"205 482 OFFCURVE",
"321 482 CURVE SMOOTH",
"434 482 OFFCURVE",
"505 382 OFFCURVE",
"488 256 CURVE SMOOTH",
"470 128 OFFCURVE",
"371 28 OFFCURVE",
"255 28 CURVE SMOOTH"
);
}
);
};
layerId = "91AB5BCA-6A50-42DA-B2F7-8181BF189245";
paths = (
{
closed = 1;
nodes = (
"544 410 OFFCURVE",
"509 548 OFFCURVE",
"371 651 CURVE",
"471 701 LINE",
"456 735 LINE",
"341 673 LINE",
"307 696 OFFCURVE",
"270 715 OFFCURVE",
"225 733 CURVE",
"190 712 LINE",
"231 693 OFFCURVE",
"269 674 OFFCURVE",
"303 654 CURVE",
"133 566 LINE",
"149 535 LINE",
"333 632 LINE",
"409 576 OFFCURVE",
"450 511 OFFCURVE",
"471 439 CURVE",
"434 480 OFFCURVE",
"380 507 OFFCURVE",
"310 507 CURVE SMOOTH",
"178 507 OFFCURVE",
"68 398 OFFCURVE",
"47 247 CURVE SMOOTH",
"26 96 OFFCURVE",
"106 -10 OFFCURVE",
"247 -10 CURVE SMOOTH",
"397 -10 OFFCURVE",
"500 97 OFFCURVE",
"520 246 CURVE SMOOTH"
);
},
{
closed = 1;
nodes = (
"141 27 OFFCURVE",
"71 124 OFFCURVE",
"88 246 CURVE SMOOTH",
"105 369 OFFCURVE",
"205 470 OFFCURVE",
"318 470 CURVE SMOOTH",
"428 470 OFFCURVE",
"497 372 OFFCURVE",
"480 249 CURVE SMOOTH",
"463 125 OFFCURVE",
"366 27 OFFCURVE",
"253 27 CURVE SMOOTH"
);
}
);
width = 571;
}
);
leftMetricsKey = o;
rightMetricsKey = o;
unicode = 00F0;
},
{
glyphname = dcroat;
lastChange = "2017-12-17 19:32:49 +0000";
layers = (
{
background = {
components = (
{
name = d;
}
);
paths = (
{
closed = 1;
nodes = (
"707 674 OFFCURVE",
"699 687 OFFCURVE",
"689 687 CURVE SMOOTH",
"350 687 LINE SMOOTH",
"340 687 OFFCURVE",
"338 686 OFFCURVE",
"336 673 CURVE SMOOTH",
"327 608 LINE SMOOTH",
"325 593 OFFCURVE",
"332 580 OFFCURVE",
"349 580 CURVE SMOOTH",
"669 580 LINE SMOOTH",
"689 580 OFFCURVE",
"694 581 OFFCURVE",
"697 598 CURVE SMOOTH",
"706 663 LINE SMOOTH"
);
}
);
};
components = (
{
name = d;
}
);
layerId = "258ED206-D907-4350-8EBA-CBDDA1C16BF7";
paths = (
{
closed = 1;
nodes = (
"329 669 LINE",
"315 565 LINE",
"677 565 LINE",
"691 669 LINE"
);
}
);
width = 662;
},
{
background = {
components = (
{
name = d;
}
);
paths = (
{
closed = 1;
nodes = (
"669 659 OFFCURVE",
"667 662 OFFCURVE",
"664 662 CURVE SMOOTH",
"385 662 LINE SMOOTH",
"382 662 OFFCURVE",
"381 661 OFFCURVE",
"380 656 CURVE SMOOTH",
"377 636 LINE SMOOTH",
"376 630 OFFCURVE",
"378 627 OFFCURVE",
"384 627 CURVE SMOOTH",
"656 627 LINE SMOOTH",
"663 627 OFFCURVE",
"665 628 OFFCURVE",
"666 634 CURVE SMOOTH",
"669 655 LINE SMOOTH"
);
}
);
};
components = (
{
name = d;
}
);
layerId = "91AB5BCA-6A50-42DA-B2F7-8181BF189245";
paths = (
{
closed = 1;
nodes = (
"376 645 LINE",
"371 611 LINE",
"653 611 LINE",
"658 645 LINE"
);
}
);
width = 626;
}
);
leftKerningGroup = o;
leftMetricsKey = d;
unicode = 0111;
},
{
glyphname = e;
lastChange = "2017-12-17 19:32:49 +0000";
layers = (
{
anchors = (
{
name = bottom;
position = "{262, 0}";
},
{
name = ogonek;
position = "{391, 25}";
},
{
name = top;
position = "{331, 516}";
}
);
background = {
anchors = (
{
name = bottom;
position = "{373, 0}";
},
{
name = ogonek;
position = "{502, 26}";
},
{
name = top;
position = "{370, 530}";
}
);
paths = (
{
closed = 1;
nodes = (
"296 224 OFFCURVE",
"301 229 OFFCURVE",
"311 229 CURVE SMOOTH",
"622 229 LINE SMOOTH",
"639 230 OFFCURVE",
"640 237 OFFCURVE",
"640 254 CURVE SMOOTH",
"640 435 OFFCURVE",
"525 540 OFFCURVE",
"368 540 CURVE SMOOTH",
"220 540 OFFCURVE",
"90 426 OFFCURVE",
"90 256 CURVE SMOOTH",
"90 99 OFFCURVE",
"212 -10 OFFCURVE",
"372 -10 CURVE SMOOTH",
"484 -10 OFFCURVE",
"552 17 OFFCURVE",
"624 118 CURVE SMOOTH",
"633 129 OFFCURVE",
"630 138 OFFCURVE",
"620 142 CURVE SMOOTH",
"529 179 LINE SMOOTH",
"516 184 OFFCURVE",
"513 183 OFFCURVE",
"508 178 CURVE SMOOTH",
"464 135 OFFCURVE",
"433 122 OFFCURVE",
"399 122 CURVE SMOOTH",
"341 122 OFFCURVE",
"296 151 OFFCURVE",
"296 212 CURVE SMOOTH"
);
},
{
closed = 1;
nodes = (
"298 395 OFFCURVE",
"336 423 OFFCURVE",
"377 423 CURVE SMOOTH",
"427 423 OFFCURVE",
"446 372 OFFCURVE",
"446 346 CURVE SMOOTH",
"446 334 OFFCURVE",
"442 332 OFFCURVE",
"429 332 CURVE SMOOTH",
"299 333 LINE"
);
}
);
};
layerId = "258ED206-D907-4350-8EBA-CBDDA1C16BF7";
paths = (
{
closed = 1;
nodes = (
"550 203 LINE",
"557 248 LINE",
"579 401 OFFCURVE",
"502 526 OFFCURVE",
"332 526 CURVE SMOOTH",
"167 526 OFFCURVE",
"42 399 OFFCURVE",
"21 251 CURVE SMOOTH",
"-1 95 OFFCURVE",
"103 -10 OFFCURVE",
"265 -10 CURVE SMOOTH",
"379 -10 OFFCURVE",
"475 41 OFFCURVE",
"529 134 CURVE",
"385 169 LINE",
"363 134 OFFCURVE",
"321 111 OFFCURVE",
"280 111 CURVE SMOOTH",
"233 111 OFFCURVE",
"198 141 OFFCURVE",
"208 203 CURVE"
);
},
{
closed = 1;
nodes = (
"232 377 OFFCURVE",
"262 414 OFFCURVE",
"317 414 CURVE SMOOTH",
"371 414 OFFCURVE",
"392 377 OFFCURVE",
"385 326 CURVE",
"225 326 LINE"
);
}
);
width = 581;
},
{
anchors = (
{
name = bottom;
position = "{225, 0}";
},
{
name = ogonek;
position = "{329, 18}";
},
{
name = top;
position = "{306, 516}";
}
);
background = {
anchors = (
{
name = bottom;
position = "{347, 0}";
},
{
name = ogonek;
position = "{440, 18}";
},
{
name = top;
position = "{344, 530}";
}
);
paths = (
{
closed = 1;
nodes = (
"145 247 OFFCURVE",
"147 254 OFFCURVE",
"151 254 CURVE SMOOTH",
"562 254 LINE SMOOTH",
"577 254 OFFCURVE",
"575 266 OFFCURVE",
"575 274 CURVE SMOOTH",
"575 442 OFFCURVE",
"487 540 OFFCURVE",
"346 540 CURVE SMOOTH",
"205 540 OFFCURVE",
"103 436 OFFCURVE",
"103 261 CURVE SMOOTH",
"103 100 OFFCURVE",
"202 -10 OFFCURVE",
"346 -10 CURVE SMOOTH",
"440 -10 OFFCURVE",
"510 27 OFFCURVE",
"556 100 CURVE SMOOTH",
"559 104 OFFCURVE",
"558 108 OFFCURVE",
"555 110 CURVE SMOOTH",
"532 125 LINE SMOOTH",
"528 128 OFFCURVE",
"525 127 OFFCURVE",
"521 121 CURVE SMOOTH",
"485 61 OFFCURVE",
"426 28 OFFCURVE",
"346 28 CURVE SMOOTH",
"234 28 OFFCURVE",
"145 127 OFFCURVE",
"145 240 CURVE SMOOTH"
);
},
{
closed = 1;
nodes = (
"145 390 OFFCURVE",
"213 502 OFFCURVE",
"345 502 CURVE SMOOTH",
"461 502 OFFCURVE",
"533 414 OFFCURVE",
"533 304 CURVE SMOOTH",
"533 293 OFFCURVE",
"530 290 OFFCURVE",
"516 290 CURVE SMOOTH",
"146 290 LINE"
);
}
);
};
guideLines = (
{
angle = 88.4926;
position = "{257, 482}";
}
);
layerId = "91AB5BCA-6A50-42DA-B2F7-8181BF189245";
paths = (
{
closed = 1;
nodes = (
"478 247 LINE",
"483 277 LINE",
"506 436 OFFCURVE",
"440 526 OFFCURVE",
"308 526 CURVE SMOOTH",
"168 526 OFFCURVE",
"72 425 OFFCURVE",
"48 254 CURVE SMOOTH",
"24 85 OFFCURVE",
"107 -10 OFFCURVE",
"243 -10 CURVE SMOOTH",
"325 -10 OFFCURVE",
"400 27 OFFCURVE",
"447 106 CURVE",
"411 120 LINE",
"373 63 OFFCURVE",
"328 29 OFFCURVE",
"248 29 CURVE SMOOTH",
"118 29 OFFCURVE",
"73 131 OFFCURVE",
"89 247 CURVE"
);
},
{
closed = 1;
nodes = (
"108 384 OFFCURVE",
"175 487 OFFCURVE",
"301 487 CURVE SMOOTH",
"417 487 OFFCURVE",
"460 401 OFFCURVE",
"443 286 CURVE",
"95 286 LINE"
);
}
);
width = 529;
}
);
leftKerningGroup = o;
unicode = 0065;
},
{
glyphname = f;
lastChange = "2017-12-17 19:32:49 +0000";
layers = (
{
background = {
paths = (
{
closed = 1;
nodes = (
"375 530 LINE SMOOTH",
"367 530 OFFCURVE",
"362 533 OFFCURVE",
"362 543 CURVE SMOOTH",
"362 561 LINE SMOOTH",
"362 589 OFFCURVE",
"384 612 OFFCURVE",
"407 612 CURVE SMOOTH",
"450 612 LINE SMOOTH",
"462 612 OFFCURVE",
"468 621 OFFCURVE",
"468 632 CURVE",
"467 716 LINE",
"467 732 OFFCURVE",
"457 742 OFFCURVE",
"438 742 CURVE SMOOTH",
"325 742 LINE SMOOTH",
"228 742 OFFCURVE",
"167 688 OFFCURVE",
"167 601 CURVE SMOOTH",
"167 548 LINE SMOOTH",
"167 535 OFFCURVE",
"164 530 OFFCURVE",
"153 530 CURVE SMOOTH",
"105 530 LINE SMOOTH",
"88 530 OFFCURVE",
"81 520 OFFCURVE",
"81 508 CURVE SMOOTH",
"81 414 LINE SMOOTH",
"81 400 OFFCURVE",
"89 395 OFFCURVE",
"103 395 CURVE SMOOTH",
"159 395 LINE SMOOTH",
"165 395 OFFCURVE",
"167 392 OFFCURVE",
"167 385 CURVE SMOOTH",
"167 20 LINE SMOOTH",
"167 7 OFFCURVE",
"174 0 OFFCURVE",
"185 0 CURVE SMOOTH",
"348 0 LINE SMOOTH",
"360 0 OFFCURVE",
"367 7 OFFCURVE",
"367 22 CURVE SMOOTH",
"367 383 LINE SMOOTH",
"367 391 OFFCURVE",
"372 395 OFFCURVE",
"379 395 CURVE SMOOTH",
"441 395 LINE SMOOTH",
"454 395 OFFCURVE",
"463 400 OFFCURVE",
"463 414 CURVE SMOOTH",
"463 508 LINE SMOOTH",
"463 520 OFFCURVE",
"455 530 OFFCURVE",
"438 530 CURVE SMOOTH"
);
}
);
};
layerId = "258ED206-D907-4350-8EBA-CBDDA1C16BF7";
paths = (
{
closed = 1;
nodes = (
"323 516 LINE",
"328 547 LINE SMOOTH",
"333 585 OFFCURVE",
"347 596 OFFCURVE",
"379 596 CURVE SMOOTH",
"438 596 LINE",
"455 723 LINE",
"317 723 LINE SMOOTH",
"222 723 OFFCURVE",
"155 670 OFFCURVE",
"143 586 CURVE SMOOTH",
"133 516 LINE",
"50 516 LINE",
"31 385 LINE",
"115 385 LINE",
"61 0 LINE",
"256 0 LINE",
"310 385 LINE",
"403 385 LINE",
"422 516 LINE"
);
}
);
width = 410;
},
{
background = {
paths = (
{
closed = 1;
nodes = (
"273 530 LINE SMOOTH",
"268 530 OFFCURVE",
"266 532 OFFCURVE",
"266 537 CURVE SMOOTH",
"266 627 LINE SMOOTH",
"266 678 OFFCURVE",
"279 707 OFFCURVE",
"329 707 CURVE SMOOTH",
"409 707 LINE SMOOTH",
"414 707 OFFCURVE",
"417 709 OFFCURVE",
"417 714 CURVE SMOOTH",
"417 735 LINE SMOOTH",
"417 740 OFFCURVE",
"415 742 OFFCURVE",
"411 742 CURVE SMOOTH",
"339 742 LINE SMOOTH",
"259 742 OFFCURVE",
"226 700 OFFCURVE",
"226 618 CURVE SMOOTH",
"226 537 LINE SMOOTH",
"226 532 OFFCURVE",
"224 530 OFFCURVE",
"219 530 CURVE SMOOTH",
"106 530 LINE SMOOTH",
"102 530 OFFCURVE",
"100 528 OFFCURVE",
"100 524 CURVE SMOOTH",
"100 501 LINE SMOOTH",
"100 497 OFFCURVE",
"102 495 OFFCURVE",
"106 495 CURVE SMOOTH",
"220 495 LINE SMOOTH",
"224 495 OFFCURVE",
"226 492 OFFCURVE",
"226 488 CURVE SMOOTH",
"226 10 LINE SMOOTH",
"226 3 OFFCURVE",
"228 0 OFFCURVE",
"234 0 CURVE SMOOTH",
"257 0 LINE SMOOTH",
"263 0 OFFCURVE",
"266 3 OFFCURVE",
"266 11 CURVE SMOOTH",
"266 488 LINE SMOOTH",
"266 493 OFFCURVE",
"268 495 OFFCURVE",
"273 495 CURVE SMOOTH",
"406 495 LINE SMOOTH",
"410 495 OFFCURVE",
"412 497 OFFCURVE",
"412 501 CURVE SMOOTH",
"412 524 LINE SMOOTH",
"412 528 OFFCURVE",
"410 530 OFFCURVE",
"407 530 CURVE SMOOTH"
);
}
);
};
layerId = "91AB5BCA-6A50-42DA-B2F7-8181BF189245";
paths = (
{
closed = 1;
nodes = (
"230 516 LINE",
"244 611 LINE SMOOTH",
"250 661 OFFCURVE",
"267 689 OFFCURVE",
"316 689 CURVE SMOOTH",
"401 689 LINE",
"406 723 LINE",
"330 723 LINE SMOOTH",
"252 723 OFFCURVE",
"214 682 OFFCURVE",
"204 602 CURVE SMOOTH",
"191 516 LINE",
"68 516 LINE",
"63 482 LINE",
"186 482 LINE",
"119 0 LINE",
"158 0 LINE",
"225 482 LINE",
"367 482 LINE",
"372 516 LINE"
);
}
);
width = 373;
}
);
leftKerningGroup = f;
rightKerningGroup = f;
unicode = 0066;
},
{
glyphname = g;
lastChange = "2017-12-17 19:32:49 +0000";
layers = (
{
anchors = (
{
name = top;
position = "{353, 516}";
}
);
background = {
anchors = (
{
name = top;
position = "{392, 530}";
}
);
paths = (
{
closed = 1;
nodes = (
"672 562 OFFCURVE",
"616 534 OFFCURVE",
"589 496 CURVE SMOOTH",
"582 486 OFFCURVE",
"568 485 OFFCURVE",
"558 493 CURVE SMOOTH",
"525 519 OFFCURVE",
"467 538 OFFCURVE",
"391 538 CURVE SMOOTH",
"212 538 OFFCURVE",
"121 469 OFFCURVE",
"121 373 CURVE SMOOTH",
"121 312 OFFCURVE",
"159 265 OFFCURVE",
"225 237 CURVE SMOOTH",
"235 231 OFFCURVE",
"228 228 OFFCURVE",
"222 225 CURVE SMOOTH",
"168 202 OFFCURVE",
"113 169 OFFCURVE",
"113 122 CURVE SMOOTH",
"113 81 OFFCURVE",
"144 56 OFFCURVE",
"179 39 CURVE SMOOTH",
"187 35 OFFCURVE",
"189 31 OFFCURVE",
"179 28 CURVE SMOOTH",
"126 13 OFFCURVE",
"82 -8 OFFCURVE",
"82 -53 CURVE SMOOTH",
"82 -137 OFFCURVE",
"184 -175 OFFCURVE",
"393 -175 CURVE SMOOTH",
"594 -175 OFFCURVE",
"696 -99 OFFCURVE",
"696 3 CURVE SMOOTH",
"696 85 OFFCURVE",
"630 143 OFFCURVE",
"482 152 CURVE SMOOTH",
"330 161 LINE SMOOTH",
"301 163 OFFCURVE",
"286 167 OFFCURVE",
"286 182 CURVE SMOOTH",
"286 198 OFFCURVE",
"313 209 OFFCURVE",
"379 209 CURVE SMOOTH",
"547 209 OFFCURVE",
"636 284 OFFCURVE",
"636 374 CURVE SMOOTH",
"636 384 OFFCURVE",
"634 395 OFFCURVE",
"631 405 CURVE SMOOTH",
"627 419 OFFCURVE",
"632 428 OFFCURVE",
"651 428 CURVE SMOOTH",
"663 428 OFFCURVE",
"682 425 OFFCURVE",
"695 421 CURVE SMOOTH",
"710 416 OFFCURVE",
"721 424 OFFCURVE",
"721 447 CURVE SMOOTH",
"721 537 LINE SMOOTH",
"721 555 OFFCURVE",
"712 562 OFFCURVE",
"701 562 CURVE SMOOTH"
);
},
{
closed = 1;
nodes = (
"327 300 OFFCURVE",
"299 334 OFFCURVE",
"299 370 CURVE SMOOTH",
"299 411 OFFCURVE",
"327 445 OFFCURVE",
"377 445 CURVE SMOOTH",
"433 445 OFFCURVE",
"455 411 OFFCURVE",
"455 370 CURVE SMOOTH",
"455 335 OFFCURVE",
"433 300 OFFCURVE",
"377 300 CURVE SMOOTH"
);
},
{
closed = 1;
nodes = (
"500 0 OFFCURVE",
"523 -16 OFFCURVE",
"523 -35 CURVE SMOOTH",
"523 -64 OFFCURVE",
"481 -86 OFFCURVE",
"403 -86 CURVE SMOOTH",
"278 -86 OFFCURVE",
"243 -64 OFFCURVE",
"243 -27 CURVE SMOOTH",
"243 -6 OFFCURVE",
"269 10 OFFCURVE",
"312 8 CURVE SMOOTH",
"457 2 LINE SMOOTH"
);
}
);
};
layerId = "258ED206-D907-4350-8EBA-CBDDA1C16BF7";
paths = (
{
closed = 1;
nodes = (
"453 -171 OFFCURVE",
"563 -96 OFFCURVE",
"577 3 CURVE SMOOTH",
"588 83 OFFCURVE",
"534 148 OFFCURVE",
"392 158 CURVE SMOOTH",
"349 161 OFFCURVE",
"308 163 OFFCURVE",
"290 164 CURVE SMOOTH",
"241 167 OFFCURVE",
"209 167 OFFCURVE",
"210 181 CURVE",
"211 186 OFFCURVE",
"215 188 OFFCURVE",
"225 190 CURVE",
"243 188 OFFCURVE",
"278 187 OFFCURVE",
"294 187 CURVE SMOOTH",
"458 187 OFFCURVE",
"557 277 OFFCURVE",
"569 364 CURVE SMOOTH",
"570 371 OFFCURVE",
"571 380 OFFCURVE",
"570 387 CURVE SMOOTH",
"567 400 OFFCURVE",
"572 408 OFFCURVE",
"590 410 CURVE SMOOTH",
"611 412 OFFCURVE",
"638 415 OFFCURVE",
"659 417 CURVE",
"679 554 LINE",
"644 541 OFFCURVE",
"591 521 OFFCURVE",
"543 503 CURVE SMOOTH",
"533 499 OFFCURVE",
"502 487 OFFCURVE",
"500 488 CURVE SMOOTH",
"465 508 OFFCURVE",
"427 524 OFFCURVE",
"353 524 CURVE SMOOTH",
"212 524 OFFCURVE",
"82 468 OFFCURVE",
"67 363 CURVE SMOOTH",
"59 309 OFFCURVE",
"87 243 OFFCURVE",
"157 209 CURVE",
"74 199 OFFCURVE",
"31 160 OFFCURVE",
"25 119 CURVE SMOOTH",
"20 82 OFFCURVE",
"47 55 OFFCURVE",
"78 38 CURVE SMOOTH",
"86 34 OFFCURVE",
"87 30 OFFCURVE",
"77 27 CURVE SMOOTH",
"23 13 OFFCURVE",
"-22 -8 OFFCURVE",
"-29 -52 CURVE SMOOTH",
"-38 -118 OFFCURVE",
"54 -171 OFFCURVE",
"257 -171 CURVE SMOOTH"
);
},
{
closed = 1;
nodes = (
"203 -69 OFFCURVE",
"159 -62 OFFCURVE",
"164 -29 CURVE SMOOTH",
"166 -12 OFFCURVE",
"182 11 OFFCURVE",
"236 8 CURVE SMOOTH",
"328 2 LINE SMOOTH",
"368 -1 OFFCURVE",
"391 -15 OFFCURVE",
"387 -37 CURVE SMOOTH",
"385 -56 OFFCURVE",
"370 -69 OFFCURVE",
"302 -69 CURVE SMOOTH"
);
},
{
closed = 1;
nodes = (
"277 288 OFFCURVE",
"256 318 OFFCURVE",
"261 357 CURVE SMOOTH",
"267 396 OFFCURVE",
"297 430 OFFCURVE",
"334 430 CURVE SMOOTH",
"371 430 OFFCURVE",
"392 396 OFFCURVE",
"386 357 CURVE SMOOTH",
"381 318 OFFCURVE",
"351 288 OFFCURVE",
"314 288 CURVE SMOOTH"
);
}
);
width = 649;
},
{
anchors = (
{
name = top;
position = "{320, 516}";
}
);
background = {
anchors = (
{
name = top;
position = "{358, 530}";
}
);
guideLines = (
{
angle = 90;
position = "{354, 374}";
showMeasurement = 1;
}
);
paths = (
{
closed = 1;
nodes = (
"572 530 OFFCURVE",
"542 507 OFFCURVE",
"522 492 CURVE SMOOTH",
"515 487 OFFCURVE",
"511 487 OFFCURVE",
"504 493 CURVE SMOOTH",
"470 522 OFFCURVE",
"427 538 OFFCURVE",
"361 538 CURVE SMOOTH",
"229 538 OFFCURVE",
"151 475 OFFCURVE",
"151 369 CURVE SMOOTH",
"151 307 OFFCURVE",
"175 266 OFFCURVE",
"230 235 CURVE SMOOTH",
"237 231 OFFCURVE",
"239 225 OFFCURVE",
"231 223 CURVE SMOOTH",
"181 207 OFFCURVE",
"164 181 OFFCURVE",
"164 159 CURVE SMOOTH",
"164 137 OFFCURVE",
"175 121 OFFCURVE",
"202 109 CURVE SMOOTH",
"209 106 OFFCURVE",
"209 102 OFFCURVE",
"202 98 CURVE SMOOTH",
"139 63 OFFCURVE",
"110 21 OFFCURVE",
"110 -27 CURVE SMOOTH",
"110 -120 OFFCURVE",
"196 -175 OFFCURVE",
"350 -175 CURVE SMOOTH",
"501 -175 OFFCURVE",
"589 -119 OFFCURVE",
"589 -19 CURVE SMOOTH",
"589 60 OFFCURVE",
"542 110 OFFCURVE",
"435 116 CURVE SMOOTH",
"315 123 LINE SMOOTH",
"238 127 OFFCURVE",
"206 136 OFFCURVE",
"206 160 CURVE SMOOTH",
"206 184 OFFCURVE",
"239 209 OFFCURVE",
"354 209 CURVE SMOOTH",
"495 209 OFFCURVE",
"556 280 OFFCURVE",
"556 369 CURVE SMOOTH",
"556 411 OFFCURVE",
"542 434 OFFCURVE",
"535 451 CURVE SMOOTH",
"532 458 OFFCURVE",
"537 464 OFFCURVE",
"555 474 CURVE SMOOTH",
"571 483 OFFCURVE",
"584 487 OFFCURVE",
"610 488 CURVE SMOOTH",
"624 489 OFFCURVE",
"627 495 OFFCURVE",
"627 504 CURVE SMOOTH",
"627 517 LINE SMOOTH",
"627 526 OFFCURVE",
"623 530 OFFCURVE",
"608 530 CURVE SMOOTH"
);
},
{
closed = 1;
nodes = (
"250 247 OFFCURVE",
"191 290 OFFCURVE",
"191 371 CURVE SMOOTH",
"191 453 OFFCURVE",
"251 500 OFFCURVE",
"355 500 CURVE SMOOTH",
"461 500 OFFCURVE",
"516 454 OFFCURVE",
"516 371 CURVE SMOOTH",
"516 289 OFFCURVE",
"463 247 OFFCURVE",
"355 247 CURVE SMOOTH"
);
},
{
closed = 1;
nodes = (
"518 70 OFFCURVE",
"547 36 OFFCURVE",
"547 -19 CURVE SMOOTH",
"547 -101 OFFCURVE",
"481 -137 OFFCURVE",
"359 -137 CURVE SMOOTH",
"228 -137 OFFCURVE",
"152 -96 OFFCURVE",
"152 -23 CURVE SMOOTH",
"152 43 OFFCURVE",
"226 88 OFFCURVE",
"258 86 CURVE SMOOTH",
"434 75 LINE SMOOTH"
);
}
);
};
guideLines = (
{
angle = 90;
position = "{326, 346}";
showMeasurement = 1;
}
);
layerId = "91AB5BCA-6A50-42DA-B2F7-8181BF189245";
paths = (
{
closed = 1;
nodes = (
"362 -171 OFFCURVE",
"456 -116 OFFCURVE",
"470 -19 CURVE SMOOTH",
"480 58 OFFCURVE",
"441 107 OFFCURVE",
"338 113 CURVE SMOOTH",
"289 116 OFFCURVE",
"252 118 OFFCURVE",
"222 120 CURVE SMOOTH",
"140 126 OFFCURVE",
"118 133 OFFCURVE",
"121 156 CURVE SMOOTH",
"124 178 OFFCURVE",
"158 202 OFFCURVE",
"261 204 CURVE SMOOTH",
"265 204 OFFCURVE",
"268 204 OFFCURVE",
"272 204 CURVE SMOOTH",
"409 204 OFFCURVE",
"478 273 OFFCURVE",
"491 360 CURVE SMOOTH",
"496 397 OFFCURVE",
"487 422 OFFCURVE",
"483 433 CURVE SMOOTH",
"479 445 OFFCURVE",
"479 447 OFFCURVE",
"503 452 CURVE SMOOTH",
"528 457 OFFCURVE",
"538 459 OFFCURVE",
"575 466 CURVE",
"583 523 LINE",
"543 508 OFFCURVE",
"499 490 OFFCURVE",
"474 479 CURVE SMOOTH",
"467 476 OFFCURVE",
"463 474 OFFCURVE",
"457 480 CURVE SMOOTH",
"428 509 OFFCURVE",
"388 524 OFFCURVE",
"323 524 CURVE SMOOTH",
"195 524 OFFCURVE",
"110 463 OFFCURVE",
"96 360 CURVE SMOOTH",
"87 295 OFFCURVE",
"106 257 OFFCURVE",
"166 222 CURVE",
"114 207 OFFCURVE",
"84 183 OFFCURVE",
"80 155 CURVE SMOOTH",
"77 133 OFFCURVE",
"86 118 OFFCURVE",
"110 106 CURVE SMOOTH",
"117 103 OFFCURVE",
"116 99 OFFCURVE",
"108 95 CURVE SMOOTH",
"43 61 OFFCURVE",
"9 20 OFFCURVE",
"2 -26 CURVE SMOOTH",
"-11 -117 OFFCURVE",
"65 -171 OFFCURVE",
"215 -171 CURVE SMOOTH"
);
},
{
closed = 1;
nodes = (
"101 -133 OFFCURVE",
"33 -94 OFFCURVE",
"43 -22 CURVE SMOOTH",
"53 42 OFFCURVE",
"131 86 OFFCURVE",
"162 84 CURVE SMOOTH",
"331 73 LINE SMOOTH",
"413 68 OFFCURVE",
"436 35 OFFCURVE",
"429 -19 CURVE SMOOTH",
"418 -98 OFFCURVE",
"348 -133 OFFCURVE",
"229 -133 CURVE SMOOTH"
);
},
{
closed = 1;
nodes = (
"175 241 OFFCURVE",
"124 283 OFFCURVE",
"135 361 CURVE SMOOTH",
"146 441 OFFCURVE",
"211 487 OFFCURVE",
"313 487 CURVE SMOOTH",
"416 487 OFFCURVE",
"464 442 OFFCURVE",
"452 361 CURVE SMOOTH",
"440 282 OFFCURVE",
"383 241 OFFCURVE",
"278 241 CURVE SMOOTH"
);
}
);
width = 575;
}
);
leftKerningGroup = g;
unicode = 0067;
},
{
glyphname = gcommaaccent;
lastChange = "2017-12-17 19:32:49 +0000";
layers = (
{
anchors = (
{
name = _top;
position = "{370, 536}";
}
);
background = {
anchors = (
{
name = _top;
position = "{380, 550}";
}
);
components = (
{
name = g;
}
);
paths = (
{
closed = 1;
nodes = (
"437 599 LINE SMOOTH",
"447 599 OFFCURVE",
"453 604 OFFCURVE",
"455 618 CURVE SMOOTH",
"465 682 LINE SMOOTH",
"468 698 OFFCURVE",
"465 702 OFFCURVE",
"454 702 CURVE SMOOTH",
"424 702 LINE SMOOTH",
"413 702 OFFCURVE",
"411 714 OFFCURVE",
"423 728 CURVE SMOOTH",
"468 780 LINE SMOOTH",
"475 788 OFFCURVE",
"474 796 OFFCURVE",
"467 796 CURVE SMOOTH",
"439 796 LINE SMOOTH",
"425 796 OFFCURVE",
"419 787 OFFCURVE",
"409 777 CURVE SMOOTH",
"349 718 LINE SMOOTH",
"343 712 OFFCURVE",
"338 702 OFFCURVE",
"337 695 CURVE SMOOTH",
"325 613 LINE SMOOTH",
"324 603 OFFCURVE",
"330 599 OFFCURVE",
"341 599 CURVE SMOOTH"
);
}
);
};
components = (
{
name = g;
}
);
layerId = "258ED206-D907-4350-8EBA-CBDDA1C16BF7";
paths = (
{
closed = 1;
nodes = (
"440 584 LINE",
"456 684 LINE",
"391 684 LINE",
"470 776 LINE",
"417 776 LINE",
"330 690 LINE",
"315 584 LINE"
);
}
);
width = 649;
},
{
anchors = (
{
name = _top;
position = "{356, 536}";
}
);
background = {
anchors = (
{
name = _top;
position = "{360, 550}";
}
);
components = (
{
name = g;
}
);
paths = (
{
closed = 1;
nodes = (
"392 632 LINE SMOOTH",
"396 632 OFFCURVE",
"398 634 OFFCURVE",
"399 641 CURVE SMOOTH",
"408 707 LINE SMOOTH",
"409 712 OFFCURVE",
"408 715 OFFCURVE",
"402 715 CURVE SMOOTH",
"391 715 LINE SMOOTH",
"386 715 OFFCURVE",
"385 717 OFFCURVE",
"390 725 CURVE SMOOTH",
"423 779 LINE SMOOTH",
"426 783 OFFCURVE",
"425 786 OFFCURVE",
"421 786 CURVE SMOOTH",
"405 786 LINE SMOOTH",
"401 786 OFFCURVE",
"397 785 OFFCURVE",
"393 779 CURVE SMOOTH",
"357 726 LINE SMOOTH",
"354 722 OFFCURVE",
"352 717 OFFCURVE",
"351 713 CURVE SMOOTH",
"341 638 LINE SMOOTH",
"340 633 OFFCURVE",
"341 632 OFFCURVE",
"345 632 CURVE SMOOTH"
);
}
);
};
components = (
{
name = g;
}
);
layerId = "91AB5BCA-6A50-42DA-B2F7-8181BF189245";
paths = (
{
closed = 1;
nodes = (
"393 616 LINE",
"403 697 LINE",
"379 697 LINE",
"421 766 LINE",
"393 766 LINE",
"348 700 LINE",
"336 616 LINE"
);
}
);
width = 575;
}
);
leftKerningGroup = g;
unicode = 0123;
},
{
glyphname = h;
lastChange = "2017-12-17 19:32:49 +0000";
layers = (
{
anchors = (
{
name = bottom;
position = "{275, 0}";
},
{
name = top;
position = "{482, 516}";
}
);
background = {
anchors = (
{
name = bottom;
position = "{386, 0}";
},
{
name = top;
position = "{525, 530}";
}
);
paths = (
{
closed = 1;
nodes = (
"289 0 LINE SMOOTH",
"313 0 OFFCURVE",
"322 8 OFFCURVE",
"322 29 CURVE SMOOTH",
"322 349 LINE",
"341 383 OFFCURVE",
"365 399 OFFCURVE",
"396 399 CURVE SMOOTH",
"428 399 OFFCURVE",
"448 381 OFFCURVE",
"448 351 CURVE SMOOTH",
"448 25 LINE SMOOTH",
"448 6 OFFCURVE",
"454 0 OFFCURVE",
"471 0 CURVE SMOOTH",
"618 0 LINE SMOOTH",
"639 0 OFFCURVE",
"648 10 OFFCURVE",
"648 30 CURVE SMOOTH",
"648 375 LINE SMOOTH",
"648 481 OFFCURVE",
"591 540 OFFCURVE",
"492 540 CURVE SMOOTH",
"439 540 OFFCURVE",
"389 523 OFFCURVE",
"332 468 CURVE SMOOTH",
"324 461 OFFCURVE",
"319 464 OFFCURVE",
"319 472 CURVE SMOOTH",
"319 721 LINE SMOOTH",
"319 734 OFFCURVE",
"313 742 OFFCURVE",
"301 742 CURVE SMOOTH",
"141 742 LINE SMOOTH",
"129 742 OFFCURVE",
"122 733 OFFCURVE",
"122 719 CURVE SMOOTH",
"122 25 LINE SMOOTH",
"122 7 OFFCURVE",
"129 0 OFFCURVE",
"148 0 CURVE SMOOTH"
);
}
);
};
layerId = "258ED206-D907-4350-8EBA-CBDDA1C16BF7";
paths = (
{
closed = 1;
nodes = (
"212 0 LINE",
"260 340 LINE",
"284 373 OFFCURVE",
"309 389 OFFCURVE",
"339 389 CURVE SMOOTH",
"370 389 OFFCURVE",
"387 371 OFFCURVE",
"383 342 CURVE SMOOTH",
"335 0 LINE",
"530 0 LINE",
"581 365 LINE SMOOTH",
"595 469 OFFCURVE",
"549 526 OFFCURVE",
"452 526 CURVE SMOOTH",
"397 526 OFFCURVE",
"322 498 OFFCURVE",
"267 414 CURVE",
"314 742 LINE",
"122 742 LINE",
"18 0 LINE"
);
}
);
width = 620;
},
{
anchors = (
{
name = bottom;
position = "{262, 0}";
},
{
name = top;
position = "{356, 516}";
}
);
background = {
anchors = (
{
name = bottom;
position = "{373, 0}";
},
{
name = top;
position = "{395, 530}";
}
);
paths = (
{
closed = 1;
nodes = (
"192 0 LINE SMOOTH",
"198 0 OFFCURVE",
"201 3 OFFCURVE",
"201 9 CURVE SMOOTH",
"201 410 LINE",
"281 471 OFFCURVE",
"328 502 OFFCURVE",
"399 502 CURVE SMOOTH",
"486 502 OFFCURVE",
"522 455 OFFCURVE",
"522 377 CURVE SMOOTH",
"522 9 LINE SMOOTH",
"522 3 OFFCURVE",
"525 0 OFFCURVE",
"531 0 CURVE SMOOTH",
"553 0 LINE SMOOTH",
"559 0 OFFCURVE",
"562 3 OFFCURVE",
"562 10 CURVE SMOOTH",
"562 393 LINE SMOOTH",
"562 480 OFFCURVE",
"507 540 OFFCURVE",
"400 540 CURVE SMOOTH",
"327 540 OFFCURVE",
"282 511 OFFCURVE",
"206 457 CURVE SMOOTH",
"200 452 OFFCURVE",
"198 453 OFFCURVE",
"198 460 CURVE SMOOTH",
"198 734 LINE SMOOTH",
"198 740 OFFCURVE",
"196 742 OFFCURVE",
"190 742 CURVE SMOOTH",
"169 742 LINE SMOOTH",
"163 742 OFFCURVE",
"161 739 OFFCURVE",
"161 733 CURVE SMOOTH",
"161 9 LINE SMOOTH",
"161 3 OFFCURVE",
"164 0 OFFCURVE",
"170 0 CURVE SMOOTH"
);
}
);
};
layerId = "91AB5BCA-6A50-42DA-B2F7-8181BF189245";
paths = (
{
closed = 1;
nodes = (
"95 0 LINE",
"150 399 LINE",
"237 459 OFFCURVE",
"286 489 OFFCURVE",
"356 489 CURVE SMOOTH",
"440 489 OFFCURVE",
"470 443 OFFCURVE",
"459 367 CURVE SMOOTH",
"407 0 LINE",
"446 0 LINE",
"500 383 LINE SMOOTH",
"512 468 OFFCURVE",
"467 526 OFFCURVE",
"362 526 CURVE SMOOTH",
"288 526 OFFCURVE",
"238 496 OFFCURVE",
"153 439 CURVE",
"196 742 LINE",
"160 742 LINE",
"56 0 LINE"
);
}
);
width = 566;
}
);
unicode = 0068;
},
{
glyphname = hbar;
lastChange = "2017-12-17 19:32:49 +0000";
layers = (
{
background = {
components = (
{
name = h;
transform = "{1, 0, 0, 1, 1, 0}";
}
);
paths = (
{
closed = 1;
nodes = (
"437 674 OFFCURVE",
"428 687 OFFCURVE",
"418 687 CURVE SMOOTH",
"79 687 LINE SMOOTH",
"69 687 OFFCURVE",
"67 686 OFFCURVE",
"65 673 CURVE SMOOTH",
"56 608 LINE SMOOTH",
"54 593 OFFCURVE",
"61 580 OFFCURVE",
"78 580 CURVE SMOOTH",
"398 580 LINE SMOOTH",
"418 580 OFFCURVE",
"424 581 OFFCURVE",
"426 598 CURVE SMOOTH",
"435 663 LINE SMOOTH"
);
}
);
};
components = (
{
name = h;
transform = "{1, 0, 0, 1, 1, 0}";
}
);
layerId = "258ED206-D907-4350-8EBA-CBDDA1C16BF7";
paths = (
{
closed = 1;
nodes = (
"65 669 LINE",
"51 565 LINE",
"413 565 LINE",
"427 669 LINE"
);
}
);
width = 621;
},
{
background = {
components = (
{
name = h;
transform = "{1, 0, 0, 1, -44, 0}";
}
);
paths = (
{
closed = 1;
nodes = (
"357 659 OFFCURVE",
"355 662 OFFCURVE",
"352 662 CURVE SMOOTH",
"73 662 LINE SMOOTH",
"70 662 OFFCURVE",
"69 661 OFFCURVE",
"68 656 CURVE SMOOTH",
"65 636 LINE SMOOTH",
"64 630 OFFCURVE",
"66 627 OFFCURVE",
"72 627 CURVE SMOOTH",
"344 627 LINE SMOOTH",
"351 627 OFFCURVE",
"353 628 OFFCURVE",
"354 634 CURVE SMOOTH",
"357 655 LINE SMOOTH"
);
}
);
};
components = (
{
name = h;
transform = "{1, 0, 0, 1, -44, 0}";
}
);
layerId = "91AB5BCA-6A50-42DA-B2F7-8181BF189245";
paths = (
{
closed = 1;
nodes = (
"72 645 LINE",
"67 611 LINE",
"349 611 LINE",
"354 645 LINE"
);
}
);
width = 523;
}
);
rightMetricsKey = h;
unicode = 0127;
},
{
glyphname = i;
lastChange = "2017-12-17 19:32:49 +0000";
layers = (
{
background = {
paths = (
{
closed = 1;
nodes = (
"322 522 OFFCURVE",
"315 530 OFFCURVE",
"304 530 CURVE SMOOTH",
"141 530 LINE SMOOTH",
"129 530 OFFCURVE",
"122 522 OFFCURVE",
"122 507 CURVE SMOOTH",
"122 25 LINE SMOOTH",
"122 8 OFFCURVE",
"128 0 OFFCURVE",
"148 0 CURVE SMOOTH",
"289 0 LINE SMOOTH",
"312 0 OFFCURVE",
"322 8 OFFCURVE",
"322 29 CURVE SMOOTH",
"322 510 LINE SMOOTH"
);
},
{
closed = 1;
nodes = (
"322 734 OFFCURVE",
"315 742 OFFCURVE",
"304 742 CURVE SMOOTH",
"141 742 LINE SMOOTH",
"129 742 OFFCURVE",
"122 734 OFFCURVE",
"122 719 CURVE SMOOTH",
"122 600 LINE SMOOTH",
"122 583 OFFCURVE",
"128 574 OFFCURVE",
"148 574 CURVE SMOOTH",
"289 574 LINE SMOOTH",
"312 574 OFFCURVE",
"322 583 OFFCURVE",
"322 603 CURVE SMOOTH",
"322 721 LINE SMOOTH"
);
}
);
};
layerId = "258ED206-D907-4350-8EBA-CBDDA1C16BF7";
paths = (
{
closed = 1;
nodes = (
"90 516 LINE",
"18 0 LINE",
"212 0 LINE",
"284 516 LINE"
);
},
{
closed = 1;
nodes = (
"122 742 LINE",
"98 579 LINE",
"293 579 LINE",
"317 742 LINE"
);
}
);
width = 302;
},
{
background = {
paths = (
{
closed = 1;
nodes = (
"206 528 OFFCURVE",
"204 530 OFFCURVE",
"197 530 CURVE SMOOTH",
"175 530 LINE SMOOTH",
"168 530 OFFCURVE",
"166 528 OFFCURVE",
"166 520 CURVE SMOOTH",
"166 10 LINE SMOOTH",
"166 2 OFFCURVE",
"168 0 OFFCURVE",
"177 0 CURVE SMOOTH",
"194 0 LINE SMOOTH",
"204 0 OFFCURVE",
"206 2 OFFCURVE",
"206 12 CURVE SMOOTH",
"206 520 LINE SMOOTH"
);
},
{
closed = 1;
nodes = (
"211 737 OFFCURVE",
"206 742 OFFCURVE",
"199 742 CURVE SMOOTH",
"173 742 LINE SMOOTH",
"166 742 OFFCURVE",
"161 737 OFFCURVE",
"161 729 CURVE SMOOTH",
"161 658 LINE SMOOTH",
"161 650 OFFCURVE",
"163 644 OFFCURVE",
"172 644 CURVE SMOOTH",
"199 644 LINE SMOOTH",
"209 644 OFFCURVE",
"211 650 OFFCURVE",
"211 660 CURVE SMOOTH",
"211 729 LINE SMOOTH"
);
}
);
};
layerId = "91AB5BCA-6A50-42DA-B2F7-8181BF189245";
paths = (
{
closed = 1;
nodes = (
"133 516 LINE",
"60 0 LINE",
"99 0 LINE",
"171 516 LINE"
);
},
{
closed = 1;
nodes = (
"160 742 LINE",
"146 647 LINE",
"195 647 LINE",
"209 742 LINE"
);
}
);
width = 232;
}
);
unicode = 0069;
},
{
glyphname = idotless;
lastChange = "2017-12-17 19:32:49 +0000";
layers = (
{
anchors = (
{
name = ogonek;
position = "{182, 9}";
},
{
name = top;
position = "{187, 516}";
}
);
background = {
anchors = (
{
name = ogonek;
position = "{187, 9}";
},
{
name = top;
position = "{192, 530}";
}
);
paths = (
{
closed = 1;
nodes = (
"290 516 OFFCURVE",
"281 530 OFFCURVE",
"270 530 CURVE SMOOTH",
"107 530 LINE SMOOTH",
"95 530 OFFCURVE",
"92 528 OFFCURVE",
"90 513 CURVE SMOOTH",
"22 31 LINE SMOOTH",
"20 14 OFFCURVE",
"28 0 OFFCURVE",
"48 0 CURVE SMOOTH",
"189 0 LINE SMOOTH",
"212 0 OFFCURVE",
"218 2 OFFCURVE",
"221 23 CURVE SMOOTH",
"289 504 LINE SMOOTH"
);
}
);
};
layerId = "258ED206-D907-4350-8EBA-CBDDA1C16BF7";
paths = (
{
closed = 1;
nodes = (
"90 516 LINE",
"18 0 LINE",
"212 0 LINE",
"285 516 LINE"
);
}
);
width = 303;
},
{
anchors = (
{
name = ogonek;
position = "{90, 13}";
},
{
name = top;
position = "{148, 516}";
}
);
background = {
anchors = (
{
name = ogonek;
position = "{87, 13}";
},
{
name = top;
position = "{147, 530}";
}
);
paths = (
{
closed = 1;
nodes = (
"167 527 OFFCURVE",
"164 530 OFFCURVE",
"157 530 CURVE SMOOTH",
"135 530 LINE SMOOTH",
"128 530 OFFCURVE",
"127 529 OFFCURVE",
"126 521 CURVE SMOOTH",
"54 11 LINE SMOOTH",
"53 3 OFFCURVE",
"56 0 OFFCURVE",
"65 0 CURVE SMOOTH",
"82 0 LINE SMOOTH",
"92 0 OFFCURVE",
"93 1 OFFCURVE",
"94 11 CURVE SMOOTH",
"166 519 LINE SMOOTH"
);
}
);
};
layerId = "91AB5BCA-6A50-42DA-B2F7-8181BF189245";
paths = (
{
closed = 1;
nodes = (
"129 516 LINE",
"56 0 LINE",
"95 0 LINE",
"169 516 LINE"
);
}
);
width = 224;
}
);
unicode = 0131;
},
{
glyphname = j;
lastChange = "2017-12-17 19:32:49 +0000";
layers = (
{
background = {
paths = (
{
closed = 1;
nodes = (
"326 510 LINE SMOOTH",
"326 522 OFFCURVE",
"320 530 OFFCURVE",
"308 530 CURVE SMOOTH",
"146 530 LINE SMOOTH",
"134 530 OFFCURVE",
"126 522 OFFCURVE",
"126 507 CURVE SMOOTH",
"126 36 LINE SMOOTH",
"126 2 OFFCURVE",
"115 -6 OFFCURVE",
"102 -10 CURVE SMOOTH",
"67 -16 LINE SMOOTH",
"54 -19 OFFCURVE",
"47 -32 OFFCURVE",
"47 -43 CURVE SMOOTH",
"48 -145 LINE SMOOTH",
"48 -166 OFFCURVE",
"60 -170 OFFCURVE",
"116 -170 CURVE SMOOTH",
"258 -170 OFFCURVE",
"326 -103 OFFCURVE",
"326 29 CURVE SMOOTH"
);
},
{
closed = 1;
nodes = (
"326 734 OFFCURVE",
"320 742 OFFCURVE",
"308 742 CURVE SMOOTH",
"146 742 LINE SMOOTH",
"134 742 OFFCURVE",
"126 734 OFFCURVE",
"126 719 CURVE SMOOTH",
"126 600 LINE SMOOTH",
"126 583 OFFCURVE",
"133 574 OFFCURVE",
"153 574 CURVE SMOOTH",
"294 574 LINE SMOOTH",
"294 574 OFFCURVE",
"326 583 OFFCURVE",
"326 603 CURVE SMOOTH",
"326 721 LINE SMOOTH"
);
}
);
};
layerId = "258ED206-D907-4350-8EBA-CBDDA1C16BF7";
paths = (
{
closed = 1;
nodes = (
"288 516 LINE",
"94 516 LINE",
"25 28 LINE",
"22 7 OFFCURVE",
"10 -6 OFFCURVE",
"-28 -14 CURVE",
"-58 -19 LINE",
"-76 -149 LINE",
"-76 -149 OFFCURVE",
"-63 -166 OFFCURVE",
"-12 -166 CURVE",
"127 -166 OFFCURVE",
"202 -100 OFFCURVE",
"220 28 CURVE SMOOTH"
);
},
{
closed = 1;
nodes = (
"126 742 LINE",
"102 579 LINE",
"297 579 LINE",
"321 742 LINE"
);
}
);
width = 306;
},
{
background = {
paths = (
{
closed = 1;
nodes = (
"218 520 LINE SMOOTH",
"218 527 OFFCURVE",
"216 530 OFFCURVE",
"210 530 CURVE SMOOTH",
"188 530 LINE SMOOTH",
"181 530 OFFCURVE",
"178 527 OFFCURVE",
"178 520 CURVE SMOOTH",
"178 -46 LINE SMOOTH",
"178 -110 OFFCURVE",
"157 -132 OFFCURVE",
"104 -133 CURVE SMOOTH",
"46 -134 LINE SMOOTH",
"42 -134 OFFCURVE",
"40 -136 OFFCURVE",
"40 -140 CURVE SMOOTH",
"40 -161 LINE SMOOTH",
"40 -169 OFFCURVE",
"46 -170 OFFCURVE",
"105 -170 CURVE SMOOTH",
"196 -170 OFFCURVE",
"218 -133 OFFCURVE",
"218 -51 CURVE SMOOTH"
);
},
{
closed = 1;
nodes = (
"223 737 OFFCURVE",
"218 742 OFFCURVE",
"211 742 CURVE SMOOTH",
"185 742 LINE SMOOTH",
"178 742 OFFCURVE",
"173 737 OFFCURVE",
"173 729 CURVE SMOOTH",
"173 658 LINE SMOOTH",
"173 650 OFFCURVE",
"175 644 OFFCURVE",
"184 644 CURVE SMOOTH",
"211 644 LINE SMOOTH",
"221 644 OFFCURVE",
"223 650 OFFCURVE",
"223 660 CURVE SMOOTH",
"223 729 LINE SMOOTH"
);
}
);
};
layerId = "91AB5BCA-6A50-42DA-B2F7-8181BF189245";
paths = (
{
closed = 1;
nodes = (
"183 516 LINE",
"144 516 LINE",
"65 -45 LINE SMOOTH",
"57 -107 OFFCURVE",
"33 -129 OFFCURVE",
"-19 -130 CURVE SMOOTH",
"-81 -131 LINE",
"-85 -157 LINE SMOOTH",
"-85 -157 OFFCURVE",
"-80 -166 OFFCURVE",
"-22 -166 CURVE SMOOTH",
"66 -166 OFFCURVE",
"93 -130 OFFCURVE",
"104 -50 CURVE SMOOTH"
);
},
{
closed = 1;
nodes = (
"171 742 LINE",
"158 647 LINE",
"207 647 LINE",
"220 742 LINE"
);
}
);
width = 252;
}
);
unicode = 006A;
},
{
glyphname = jdotless;
lastChange = "2017-12-17 19:32:49 +0000";
layers = (
{
anchors = (
{
name = top;
position = "{166, 516}";
}
);
background = {
anchors = (
{
name = top;
position = "{170, 530}";
}
);
paths = (
{
closed = 1;
nodes = (
"270 504 LINE SMOOTH",
"271 516 OFFCURVE",
"263 530 OFFCURVE",
"251 530 CURVE SMOOTH",
"89 530 LINE SMOOTH",
"77 530 OFFCURVE",
"73 528 OFFCURVE",
"71 513 CURVE SMOOTH",
"5 42 LINE SMOOTH",
"0 8 OFFCURVE",
"-17 -4 OFFCURVE",
"-30 -8 CURVE SMOOTH",
"-56 -15 LINE SMOOTH",
"-70 -18 OFFCURVE",
"-74 -26 OFFCURVE",
"-75 -37 CURVE SMOOTH",
"-89 -139 LINE SMOOTH",
"-92 -160 OFFCURVE",
"-77 -170 OFFCURVE",
"-27 -170 CURVE SMOOTH",
"86 -170 OFFCURVE",
"183 -109 OFFCURVE",
"202 23 CURVE SMOOTH"
);
}
);
};
layerId = "258ED206-D907-4350-8EBA-CBDDA1C16BF7";
paths = (
{
closed = 1;
nodes = (
"277 516 LINE",
"81 516 LINE",
"15 41 LINE",
"13 27 OFFCURVE",
"10 -3 OFFCURVE",
"-33 -11 CURVE",
"-70 -18 LINE",
"-88 -145 LINE SMOOTH",
"-88 -145 OFFCURVE",
"-75 -166 OFFCURVE",
"-17 -166 CURVE SMOOTH",
"118 -166 OFFCURVE",
"188 -106 OFFCURVE",
"207 22 CURVE SMOOTH"
);
}
);
width = 295;
},
{
anchors = (
{
name = top;
position = "{142, 516}";
}
);
background = {
anchors = (
{
name = top;
position = "{141, 530}";
}
);
paths = (
{
closed = 1;
nodes = (
"160 519 LINE SMOOTH",
"161 526 OFFCURVE",
"158 530 OFFCURVE",
"152 530 CURVE SMOOTH",
"130 530 LINE SMOOTH",
"123 530 OFFCURVE",
"121 528 OFFCURVE",
"120 521 CURVE SMOOTH",
"40 -45 LINE SMOOTH",
"31 -109 OFFCURVE",
"6 -132 OFFCURVE",
"-47 -133 CURVE SMOOTH",
"-105 -134 LINE SMOOTH",
"-109 -134 OFFCURVE",
"-110 -135 OFFCURVE",
"-111 -139 CURVE SMOOTH",
"-114 -160 LINE SMOOTH",
"-115 -168 OFFCURVE",
"-108 -170 OFFCURVE",
"-48 -170 CURVE SMOOTH",
"42 -170 OFFCURVE",
"68 -134 OFFCURVE",
"79 -52 CURVE SMOOTH"
);
}
);
};
layerId = "91AB5BCA-6A50-42DA-B2F7-8181BF189245";
paths = (
{
closed = 1;
nodes = (
"163 516 LINE",
"123 516 LINE",
"44 -44 LINE SMOOTH",
"35 -106 OFFCURVE",
"11 -129 OFFCURVE",
"-41 -130 CURVE SMOOTH",
"-102 -131 LINE",
"-106 -158 LINE SMOOTH",
"-106 -158 OFFCURVE",
"-98 -166 OFFCURVE",
"-42 -166 CURVE SMOOTH",
"46 -166 OFFCURVE",
"71 -131 OFFCURVE",
"82 -51 CURVE SMOOTH"
);
}
);
width = 213;
}
);
unicode = 0237;
},
{
glyphname = k;
lastChange = "2017-12-17 19:32:49 +0000";
layers = (
{
anchors = (
{
name = bottom;
position = "{271, 0}";
}
);
background = {
anchors = (
{
name = bottom;
position = "{382, 0}";
}
);
paths = (
{
closed = 1;
nodes = (
"535 337 LINE SMOOTH",
"526 355 OFFCURVE",
"528 361 OFFCURVE",
"537 372 CURVE SMOOTH",
"666 501 LINE SMOOTH",
"679 515 OFFCURVE",
"675 530 OFFCURVE",
"652 530 CURVE SMOOTH",
"515 530 LINE SMOOTH",
"505 530 OFFCURVE",
"494 523 OFFCURVE",
"484 513 CURVE SMOOTH",
"334 344 LINE SMOOTH",
"326 335 OFFCURVE",
"322 340 OFFCURVE",
"322 346 CURVE SMOOTH",
"322 721 LINE SMOOTH",
"322 734 OFFCURVE",
"316 742 OFFCURVE",
"304 742 CURVE SMOOTH",
"141 742 LINE SMOOTH",
"130 742 OFFCURVE",
"122 734 OFFCURVE",
"122 719 CURVE SMOOTH",
"122 25 LINE SMOOTH",
"122 8 OFFCURVE",
"128 0 OFFCURVE",
"149 0 CURVE SMOOTH",
"290 0 LINE SMOOTH",
"313 0 OFFCURVE",
"322 8 OFFCURVE",
"322 29 CURVE SMOOTH",
"322 130 LINE SMOOTH",
"322 146 OFFCURVE",
"325 153 OFFCURVE",
"331 158 CURVE SMOOTH",
"379 203 LINE SMOOTH",
"389 213 OFFCURVE",
"394 211 OFFCURVE",
"400 198 CURVE SMOOTH",
"472 26 LINE SMOOTH",
"479 10 OFFCURVE",
"488 0 OFFCURVE",
"505 0 CURVE SMOOTH",
"676 0 LINE SMOOTH",
"694 0 OFFCURVE",
"701 17 OFFCURVE",
"695 28 CURVE SMOOTH"
);
}
);
};
guideLines = (
{
angle = -63.9531;
position = "{472, 148}";
},
{
angle = 44.2258;
position = "{421, 503}";
}
);
layerId = "258ED206-D907-4350-8EBA-CBDDA1C16BF7";
paths = (
{
closed = 1;
nodes = (
"410 303 LINE",
"629 516 LINE",
"432 516 LINE",
"264 359 LINE",
"317 742 LINE",
"122 742 LINE",
"18 0 LINE",
"212 0 LINE",
"233 146 LINE",
"277 190 LINE",
"369 0 LINE",
"558 0 LINE"
);
}
);
width = 609;
},
{
anchors = (
{
name = bottom;
position = "{233, 0}";
}
);
background = {
anchors = (
{
name = bottom;
position = "{343, 0}";
}
);
paths = (
{
closed = 1;
nodes = (
"376 331 LINE SMOOTH",
"373 336 OFFCURVE",
"374 339 OFFCURVE",
"377 342 CURVE SMOOTH",
"546 515 LINE SMOOTH",
"555 524 OFFCURVE",
"554 530 OFFCURVE",
"544 530 CURVE SMOOTH",
"512 530 LINE SMOOTH",
"505 530 OFFCURVE",
"502 528 OFFCURVE",
"495 520 CURVE",
"211 229 LINE SMOOTH",
"203 221 OFFCURVE",
"201 222 OFFCURVE",
"201 234 CURVE SMOOTH",
"201 732 LINE SMOOTH",
"201 740 OFFCURVE",
"199 742 OFFCURVE",
"192 742 CURVE SMOOTH",
"170 742 LINE SMOOTH",
"163 742 OFFCURVE",
"161 740 OFFCURVE",
"161 732 CURVE SMOOTH",
"161 10 LINE SMOOTH",
"161 2 OFFCURVE",
"163 0 OFFCURVE",
"172 0 CURVE SMOOTH",
"189 0 LINE SMOOTH",
"199 0 OFFCURVE",
"201 2 OFFCURVE",
"201 12 CURVE SMOOTH",
"201 152 LINE SMOOTH",
"201 159 OFFCURVE",
"203 164 OFFCURVE",
"208 169 CURVE SMOOTH",
"336 299 LINE SMOOTH",
"341 304 OFFCURVE",
"342 302 OFFCURVE",
"344 299 CURVE SMOOTH",
"526 7 LINE SMOOTH",
"529 2 OFFCURVE",
"532 0 OFFCURVE",
"538 0 CURVE SMOOTH",
"569 0 LINE SMOOTH",
"578 0 OFFCURVE",
"579 4 OFFCURVE",
"574 12 CURVE SMOOTH"
);
}
);
};
guideLines = (
{
angle = 121.8697;
position = "{244, 141}";
},
{
angle = 221.5891;
position = "{486, 490}";
},
{
angle = -64.3258;
position = "{390, 0}";
}
);
layerId = "91AB5BCA-6A50-42DA-B2F7-8181BF189245";
paths = (
{
closed = 1;
nodes = (
"307 328 LINE",
"517 516 LINE",
"458 516 LINE",
"124 217 LINE",
"199 742 LINE",
"160 742 LINE",
"56 0 LINE",
"95 0 LINE",
"116 158 LINE",
"273 299 LINE",
"417 0 LINE",
"465 0 LINE"
);
}
);
width = 538;
}
);
leftMetricsKey = h;
rightKerningGroup = k;
unicode = 006B;
},
{
glyphname = kgreenlandic;
lastChange = "2017-12-17 19:32:49 +0000";
layers = (
{
background = {
paths = (
{
closed = 1;
nodes = (
"474 332 LINE SMOOTH",
"469 350 OFFCURVE",
"476 357 OFFCURVE",
"486 368 CURVE SMOOTH",
"636 497 LINE SMOOTH",
"650 511 OFFCURVE",
"641 530 OFFCURVE",
"618 530 CURVE SMOOTH",
"481 530 LINE SMOOTH",
"471 530 OFFCURVE",
"461 527 OFFCURVE",
"449 517 CURVE SMOOTH",
"275 348 LINE SMOOTH",
"267 339 OFFCURVE",
"265 334 OFFCURVE",
"266 340 CURVE SMOOTH",
"288 503 LINE SMOOTH",
"290 516 OFFCURVE",
"282 530 OFFCURVE",
"270 530 CURVE SMOOTH",
"107 530 LINE SMOOTH",
"96 530 OFFCURVE",
"92 528 OFFCURVE",
"90 513 CURVE SMOOTH",
"22 31 LINE SMOOTH",
"20 14 OFFCURVE",
"28 0 OFFCURVE",
"49 0 CURVE SMOOTH",
"190 0 LINE SMOOTH",
"213 0 OFFCURVE",
"218 2 OFFCURVE",
"221 23 CURVE SMOOTH",
"235 124 LINE SMOOTH",
"237 140 OFFCURVE",
"245 149 OFFCURVE",
"251 154 CURVE SMOOTH",
"307 199 LINE SMOOTH",
"317 209 OFFCURVE",
"322 216 OFFCURVE",
"326 203 CURVE SMOOTH",
"375 31 LINE SMOOTH",
"378 15 OFFCURVE",
"388 0 OFFCURVE",
"405 0 CURVE SMOOTH",
"576 0 LINE SMOOTH",
"594 0 OFFCURVE",
"596 12 OFFCURVE",
"592 23 CURVE SMOOTH"
);
}
);
};
layerId = "258ED206-D907-4350-8EBA-CBDDA1C16BF7";
paths = (
{
closed = 1;
nodes = (
"455 342 LINE",
"657 516 LINE",
"450 516 LINE",
"259 330 LINE",
"284 516 LINE",
"90 516 LINE",
"18 0 LINE",
"212 0 LINE",
"232 139 LINE",
"315 207 LINE",
"374 0 LINE",
"586 0 LINE"
);
}
);
width = 636;
},
{
background = {
paths = (
{
closed = 1;
nodes = (
"313 330 LINE SMOOTH",
"311 335 OFFCURVE",
"314 338 OFFCURVE",
"318 341 CURVE SMOOTH",
"511 514 LINE SMOOTH",
"521 523 OFFCURVE",
"519 530 OFFCURVE",
"509 530 CURVE SMOOTH",
"477 530 LINE SMOOTH",
"470 530 OFFCURVE",
"467 529 OFFCURVE",
"459 521 CURVE",
"134 230 LINE SMOOTH",
"125 222 OFFCURVE",
"124 221 OFFCURVE",
"126 233 CURVE SMOOTH",
"166 519 LINE SMOOTH",
"167 527 OFFCURVE",
"164 530 OFFCURVE",
"157 530 CURVE SMOOTH",
"135 530 LINE SMOOTH",
"128 530 OFFCURVE",
"127 529 OFFCURVE",
"126 521 CURVE SMOOTH",
"54 11 LINE SMOOTH",
"53 3 OFFCURVE",
"56 0 OFFCURVE",
"65 0 CURVE SMOOTH",
"82 0 LINE SMOOTH",
"92 0 OFFCURVE",
"93 1 OFFCURVE",
"94 11 CURVE SMOOTH",
"114 151 LINE SMOOTH",
"115 158 OFFCURVE",
"119 163 OFFCURVE",
"124 168 CURVE SMOOTH",
"271 298 LINE SMOOTH",
"276 303 OFFCURVE",
"277 303 OFFCURVE",
"279 300 CURVE SMOOTH",
"420 8 LINE SMOOTH",
"422 3 OFFCURVE",
"425 0 OFFCURVE",
"431 0 CURVE SMOOTH",
"462 0 LINE SMOOTH",
"471 0 OFFCURVE",
"470 3 OFFCURVE",
"466 11 CURVE SMOOTH"
);
}
);
};
layerId = "91AB5BCA-6A50-42DA-B2F7-8181BF189245";
paths = (
{
closed = 1;
nodes = (
"308 326 LINE",
"520 516 LINE",
"462 516 LINE",
"126 215 LINE",
"169 516 LINE",
"129 516 LINE",
"56 0 LINE",
"95 0 LINE",
"117 156 LINE",
"275 296 LINE",
"418 0 LINE",
"464 0 LINE"
);
}
);
width = 537;
}
);
leftMetricsKey = k;
rightKerningGroup = k;
rightMetricsKey = k;
unicode = 0138;
},
{
glyphname = l;
lastChange = "2017-12-17 19:32:49 +0000";
layers = (
{
anchors = (
{
name = bottom;
position = "{101, 0}";
},
{
name = top;
position = "{222, 765}";
},
{
name = topright;
position = "{465, 765}";
}
);
background = {
anchors = (
{
name = bottom;
position = "{166, 0}";
},
{
name = top;
position = "{222, 742}";
},
{
name = topright;
position = "{409, 530}";
}
);
paths = (
{
closed = 1;
nodes = (
"399 129 LINE",
"399 129 OFFCURVE",
"373 131 OFFCURVE",
"364 133 CURVE SMOOTH",
"325 142 OFFCURVE",
"318 163 OFFCURVE",
"318 190 CURVE SMOOTH",
"318 742 LINE",
"121 742 LINE",
"118 173 LINE",
"118 95 OFFCURVE",
"129 -1 OFFCURVE",
"324 2 CURVE SMOOTH",
"350 3 OFFCURVE",
"366 5 OFFCURVE",
"399 9 CURVE"
);
}
);
};
layerId = "258ED206-D907-4350-8EBA-CBDDA1C16BF7";
paths = (
{
closed = 1;
nodes = (
"238 -11 OFFCURVE",
"264 -4 OFFCURVE",
"287 5 CURVE",
"304 123 LINE",
"284 125 LINE",
"233 132 OFFCURVE",
"230 157 OFFCURVE",
"234 182 CURVE SMOOTH",
"313 742 LINE",
"122 742 LINE",
"39 156 LINE",
"28 80 OFFCURVE",
"22 -11 OFFCURVE",
"212 -11 CURVE SMOOTH"
);
}
);
width = 348;
},
{
anchors = (
{
name = bottom;
position = "{72, 0}";
},
{
name = top;
position = "{179, 762}";
},
{
name = topright;
position = "{315, 723}";
}
);
background = {
anchors = (
{
name = bottom;
position = "{178, 0}";
},
{
name = top;
position = "{178, 742}";
},
{
name = topright;
position = "{323, 742}";
}
);
paths = (
{
closed = 1;
nodes = (
"308 36 LINE",
"298 36 OFFCURVE",
"285 36 OFFCURVE",
"269 36 CURVE SMOOTH",
"205 36 OFFCURVE",
"198 87 OFFCURVE",
"198 130 CURVE",
"198 742 LINE",
"158 742 LINE",
"158 130 LINE",
"158 57 OFFCURVE",
"186 2 OFFCURVE",
"257 2 CURVE SMOOTH",
"281 2 OFFCURVE",
"295 3 OFFCURVE",
"308 6 CURVE"
);
}
);
};
layerId = "91AB5BCA-6A50-42DA-B2F7-8181BF189245";
paths = (
{
closed = 1;
nodes = (
"159 1 OFFCURVE",
"172 2 OFFCURVE",
"185 5 CURVE",
"190 34 LINE",
"158 34 LINE",
"130 34 OFFCURVE",
"102 58 OFFCURVE",
"112 126 CURVE",
"199 742 LINE",
"160 742 LINE",
"73 126 LINE",
"63 55 OFFCURVE",
"83 1 OFFCURVE",
"152 1 CURVE SMOOTH"
);
}
);
width = 273;
}
);
leftMetricsKey = h;
unicode = 006C;
},
{
glyphname = lslash;
lastChange = "2017-12-17 19:32:49 +0000";
layers = (
{
background = {
components = (
{
name = l;
transform = "{1, 0, 0, 1, 49, 0}";
}
);
paths = (
{
closed = 1;
nodes = (
"383 501 OFFCURVE",
"375 514 OFFCURVE",
"356 503 CURVE SMOOTH",
"50 327 LINE SMOOTH",
"38 319 OFFCURVE",
"32 311 OFFCURVE",
"30 296 CURVE SMOOTH",
"13 176 LINE SMOOTH",
"11 159 OFFCURVE",
"18 147 OFFCURVE",
"40 160 CURVE SMOOTH",
"345 342 LINE SMOOTH",
"358 351 OFFCURVE",
"363 360 OFFCURVE",
"365 372 CURVE SMOOTH",
"381 485 LINE SMOOTH"
);
}
);
};
components = (
{
name = l;
transform = "{1, 0, 0, 1, 49, 0}";
}
);
layerId = "258ED206-D907-4350-8EBA-CBDDA1C16BF7";
paths = (
{
closed = 1;
nodes = (
"32 309 LINE",
"8 137 LINE",
"353 343 LINE",
"376 507 LINE"
);
}
);
width = 373;
},
{
background = {
components = (
{
name = l;
transform = "{1, 0, 0, 1, -14, 0}";
}
);
paths = (
{
closed = 1;
nodes = (
"257 436 OFFCURVE",
"255 440 OFFCURVE",
"249 436 CURVE SMOOTH",
"-5 226 LINE SMOOTH",
"-9 223 OFFCURVE",
"-10 220 OFFCURVE",
"-11 216 CURVE SMOOTH",
"-15 187 LINE SMOOTH",
"-16 182 OFFCURVE",
"-14 176 OFFCURVE",
"-8 180 CURVE SMOOTH",
"246 391 LINE SMOOTH",
"250 395 OFFCURVE",
"252 398 OFFCURVE",
"252 402 CURVE SMOOTH",
"256 432 LINE SMOOTH"
);
}
);
};
components = (
{
name = l;
transform = "{1, 0, 0, 1, -14, 0}";
}
);
layerId = "91AB5BCA-6A50-42DA-B2F7-8181BF189245";
paths = (
{
closed = 1;
nodes = (
"-5 216 LINE",
"-12 168 LINE",
"249 385 LINE",
"255 432 LINE"
);
}
);
width = 216;
}
);
unicode = 0142;
},
{
glyphname = m;
lastChange = "2017-12-17 19:32:49 +0000";
layers = (
{
background = {
guideLines = (
{
angle = 90;
position = "{405, 331}";
showMeasurement = 1;
}
);
paths = (
{
closed = 1;
nodes = (
"289 0 LINE SMOOTH",
"313 0 OFFCURVE",
"322 8 OFFCURVE",
"322 29 CURVE SMOOTH",
"322 349 LINE",
"341 383 OFFCURVE",
"366 399 OFFCURVE",
"396 399 CURVE SMOOTH",
"428 399 OFFCURVE",
"448 381 OFFCURVE",
"448 351 CURVE SMOOTH",
"448 25 LINE SMOOTH",
"448 6 OFFCURVE",
"455 0 OFFCURVE",
"471 0 CURVE SMOOTH",
"617 0 LINE SMOOTH",
"638 0 OFFCURVE",
"647 10 OFFCURVE",
"647 30 CURVE SMOOTH",
"647 333 LINE SMOOTH",
"647 342 OFFCURVE",
"648 350 OFFCURVE",
"655 360 CURVE SMOOTH",
"670 381 OFFCURVE",
"696 399 OFFCURVE",
"721 399 CURVE SMOOTH",
"752 399 OFFCURVE",
"773 381 OFFCURVE",
"773 351 CURVE SMOOTH",
"773 25 LINE SMOOTH",
"773 6 OFFCURVE",
"779 0 OFFCURVE",
"796 0 CURVE SMOOTH",
"942 0 LINE SMOOTH",
"963 0 OFFCURVE",
"973 10 OFFCURVE",
"973 30 CURVE SMOOTH",
"973 373 LINE SMOOTH",
"973 480 OFFCURVE",
"909 540 OFFCURVE",
"819 540 CURVE SMOOTH",
"759 540 OFFCURVE",
"683 497 OFFCURVE",
"646 446 CURVE SMOOTH",
"641 440 OFFCURVE",
"636 440 OFFCURVE",
"634 445 CURVE SMOOTH",
"611 507 OFFCURVE",
"559 541 OFFCURVE",
"492 541 CURVE SMOOTH",
"431 541 OFFCURVE",
"375 507 OFFCURVE",
"332 461 CURVE SMOOTH",
"324 453 OFFCURVE",
"319 457 OFFCURVE",
"319 465 CURVE SMOOTH",
"319 510 LINE SMOOTH",
"319 522 OFFCURVE",
"313 530 OFFCURVE",
"301 530 CURVE SMOOTH",
"141 530 LINE SMOOTH",
"130 530 OFFCURVE",
"122 521 OFFCURVE",
"122 507 CURVE SMOOTH",
"122 25 LINE SMOOTH",
"122 7 OFFCURVE",
"129 0 OFFCURVE",
"148 0 CURVE SMOOTH"
);
}
);
};
guideLines = (
{
angle = 90;
position = "{220, 314}";
showMeasurement = 1;
}
);
layerId = "258ED206-D907-4350-8EBA-CBDDA1C16BF7";
paths = (
{
closed = 1;
nodes = (
"212 0 LINE",
"260 341 LINE",
"264 370 OFFCURVE",
"299 389 OFFCURVE",
"328 389 CURVE SMOOTH",
"358 389 OFFCURVE",
"387 370 OFFCURVE",
"383 341 CURVE SMOOTH",
"335 0 LINE",
"529 0 LINE",
"572 310 LINE SMOOTH",
"574 319 OFFCURVE",
"575 327 OFFCURVE",
"577 341 CURVE SMOOTH",
"581 370 OFFCURVE",
"617 389 OFFCURVE",
"646 389 CURVE SMOOTH",
"675 389 OFFCURVE",
"703 370 OFFCURVE",
"700 341 CURVE SMOOTH",
"652 0 LINE",
"847 0 LINE",
"897 363 LINE SMOOTH",
"912 468 OFFCURVE",
"856 526 OFFCURVE",
"771 526 CURVE SMOOTH",
"718 526 OFFCURVE",
"642 508 OFFCURVE",
"577 407 CURVE",
"570 474 OFFCURVE",
"536 527 OFFCURVE",
"451 527 CURVE SMOOTH",
"399 527 OFFCURVE",
"320 508 OFFCURVE",
"268 416 CURVE",
"282 516 LINE",
"90 516 LINE",
"18 0 LINE"
);
}
);
width = 936;
},
{
background = {
guideLines = (
{
position = "{341, 454}";
}
);
paths = (
{
closed = 1;
nodes = (
"192 0 LINE SMOOTH",
"198 0 OFFCURVE",
"201 3 OFFCURVE",
"201 9 CURVE SMOOTH",
"201 410 LINE",
"277 471 OFFCURVE",
"322 502 OFFCURVE",
"389 502 CURVE SMOOTH",
"469 502 OFFCURVE",
"502 455 OFFCURVE",
"502 377 CURVE SMOOTH",
"502 9 LINE SMOOTH",
"502 3 OFFCURVE",
"506 0 OFFCURVE",
"511 0 CURVE SMOOTH",
"533 0 LINE SMOOTH",
"538 0 OFFCURVE",
"542 3 OFFCURVE",
"542 10 CURVE SMOOTH",
"542 393 LINE SMOOTH",
"542 407 OFFCURVE",
"547 413 OFFCURVE",
"559 423 CURVE SMOOTH",
"598 455 OFFCURVE",
"657 502 OFFCURVE",
"730 502 CURVE SMOOTH",
"810 502 OFFCURVE",
"843 455 OFFCURVE",
"843 377 CURVE SMOOTH",
"843 9 LINE SMOOTH",
"843 3 OFFCURVE",
"846 0 OFFCURVE",
"852 0 CURVE SMOOTH",
"874 0 LINE SMOOTH",
"880 0 OFFCURVE",
"883 3 OFFCURVE",
"883 10 CURVE SMOOTH",
"883 393 LINE SMOOTH",
"883 480 OFFCURVE",
"831 540 OFFCURVE",
"731 540 CURVE SMOOTH",
"662 540 OFFCURVE",
"619 511 OFFCURVE",
"547 457 CURVE SMOOTH",
"541 452 OFFCURVE",
"534 448 OFFCURVE",
"532 454 CURVE SMOOTH",
"519 494 OFFCURVE",
"474 540 OFFCURVE",
"390 540 CURVE SMOOTH",
"321 540 OFFCURVE",
"278 511 OFFCURVE",
"206 457 CURVE SMOOTH",
"200 452 OFFCURVE",
"198 453 OFFCURVE",
"198 460 CURVE SMOOTH",
"198 522 LINE SMOOTH",
"198 528 OFFCURVE",
"196 530 OFFCURVE",
"190 530 CURVE SMOOTH",
"169 530 LINE SMOOTH",
"163 530 OFFCURVE",
"161 527 OFFCURVE",
"161 521 CURVE SMOOTH",
"161 9 LINE SMOOTH",
"161 3 OFFCURVE",
"164 0 OFFCURVE",
"170 0 CURVE SMOOTH"
);
}
);
};
guideLines = (
{
position = "{335, 420}";
}
);
layerId = "91AB5BCA-6A50-42DA-B2F7-8181BF189245";
paths = (
{
closed = 1;
nodes = (
"95 0 LINE",
"150 399 LINE",
"233 459 OFFCURVE",
"281 489 OFFCURVE",
"346 489 CURVE SMOOTH",
"424 489 OFFCURVE",
"450 443 OFFCURVE",
"439 367 CURVE SMOOTH",
"388 0 LINE",
"427 0 LINE",
"480 383 LINE SMOOTH",
"482 397 OFFCURVE",
"488 402 OFFCURVE",
"501 412 CURVE SMOOTH",
"544 443 OFFCURVE",
"607 489 OFFCURVE",
"678 489 CURVE SMOOTH",
"756 489 OFFCURVE",
"782 443 OFFCURVE",
"772 367 CURVE SMOOTH",
"720 0 LINE",
"759 0 LINE",
"813 383 LINE SMOOTH",
"824 468 OFFCURVE",
"782 526 OFFCURVE",
"685 526 CURVE SMOOTH",
"625 526 OFFCURVE",
"588 509 OFFCURVE",
"480 436 CURVE",
"471 491 OFFCURVE",
"426 526 OFFCURVE",
"353 526 CURVE SMOOTH",
"283 526 OFFCURVE",
"234 496 OFFCURVE",
"153 439 CURVE",
"164 516 LINE",
"128 516 LINE",
"56 0 LINE"
);
}
);
width = 879;
}
);
leftKerningGroup = n;
leftMetricsKey = n;
rightMetricsKey = n;
unicode = 006D;
},
